<mxfile host="app.diagrams.net" modified="2023-01-05T21:25:08.927Z" agent="5.0 (Windows NT 10.0; Win64; x64) AppleWebKit/537.36 (KHTML, like Gecko) Chrome/108.0.0.0 Safari/537.36 OPR/94.0.0.0" version="20.8.1" etag="RdHtveIvcu6Y7RsT61uN" type="github">
  <diagram id="FmkuoTJb9qa1UCuna2Bl" name="Page-1">
    <mxGraphModel dx="948" dy="621" grid="1" gridSize="10" guides="1" tooltips="1" connect="1" arrows="1" fold="1" page="1" pageScale="1" pageWidth="850" pageHeight="1100" math="0" shadow="0">
      <root>
        <mxCell id="0" />
        <mxCell id="1" parent="0" />
        <mxCell id="6fhHhT-RDIvyIf84DN0j-2" value="" style="dashed=0;outlineConnect=0;html=1;align=center;labelPosition=center;verticalLabelPosition=bottom;verticalAlign=top;shape=mxgraph.weblogos.github" vertex="1" parent="1">
          <mxGeometry x="70" y="400" width="75" height="75" as="geometry" />
        </mxCell>
        <mxCell id="6fhHhT-RDIvyIf84DN0j-3" value="" style="dashed=0;outlineConnect=0;html=1;align=center;labelPosition=center;verticalLabelPosition=bottom;verticalAlign=top;shape=mxgraph.weblogos.html5" vertex="1" parent="1">
          <mxGeometry x="70" y="256" width="52.400000000000006" height="74" as="geometry" />
        </mxCell>
        <mxCell id="6fhHhT-RDIvyIf84DN0j-4" value="" style="shape=image;verticalLabelPosition=bottom;labelBackgroundColor=default;verticalAlign=top;aspect=fixed;imageAspect=0;image=data:image/png,iVBORw0KGgoAAAANSUhEUgAAAdkAAACMCAYAAAAwc9PyAAAAAXNSR0IArs4c6QAAIABJREFUeF7sfQd4HdWZ9jvt9qveJUtykS25GzAYm2paKCEkEEJCILAbUpaEhA3JJpts2p/es+nZDUkWEkJCCARCLwZjU2xwt+SqZstWL1e3Tvufb65FbKOre869I/nKnu95FOHozMw535mZd772fgKylPzahlmyIF0BmPNNCLUQzFqYqAWQn+WpncMdDTgacDTgaMDRwFRpYBgCOmAKHQLMDkDYqZn6Y8Mde/ZnMwEhk4OL6ue9zTTM8wRBuATAGZmcwznG0YCjAUcDjgYcDUwDDWw0TfNpQRReHGjb9QTvfLlAtqS+8QLDNG8HcB3vhZzxjgYcDTgacDTgaGCaa+ABURB+1tfWsoZ1HUwgWzhz3mLBwCcB3Mp6YmecowFHA44GHA04GjhJNfBbU8SPBlt3bU23vrQgW1Q/9z0whR8CqEx3MufvjgYcDTgacDTgaOAU0cAhCOadA227759ovROCbHHd3NtNCD89RRTmLNPRgKMBRwOOBhwNcGlAgPmx/vbdP0t1UEqQLapv/DJM80tcV3MGOxpwNOBowNGAo4FTTQOC8JWBtpYvj7fscUG2aGbjpTDMJ081PTnrdTTgaMDRgKMBRwMZaUAULhtobXnq+GPfArJFdY1nA+b6jC7iHORowNGAowFHA44GTlkNCCsH2ltePnr5x4Bs4YymhYJkPAgTDaesjpyFOxpwNOBowNGAo4FMNCBgj6mL7xrsbN4+dvgxIFtUN+9up0wnE806xzgacDTgaMDRgKMBSwO/HWjf9S9vAdkjRBPPO0pyNDAtNCAIMD0BmIrnmOkK4SEIujotluBM0tGAo4GTUwOiIFw4RljxpiVbVDfvL6cqk9MsM0mz7DMV+KBgCDFogoH9wvDJeQdM01WZniDUslnQy2ZCK62DKbkASTp2NWocYiIKubcN8uG9kPo7IGiJabrik3Dakggjzw+9OAgz6IMpJF9BgqZD7BuGNBCCEHP2K1d3vr5SQMAL1FYKGB4FhkMmEirQ2WMiGs/VWZ+QeT0w0L7r3da9Tf9DXMQw8fgJmcoJuGip6cM5RjUWmSWYYxbCY8rJB936EWDAtP4dF3TsEvrxingIrwmHMCI4D//Ub5cAPa8U8abzkKhdDNMdACQZppTcs3HFNCEYGqCrEEeH4NnxLFxtmyCosamfvnNFSwOJpjpo86qRaKiG6XEBogiIx+Vd6gYEw4Dc0QN5z0G4drRDHIk4GjyBGnDJwNvPFfG2syUsniMiP5DcNlkWYBgmDAPW21LTgd0dJl7aouP5jQbe2JV8h57SIuBy4jpOgmxd4/cB899PVoXQIl2QMMvIx436fCw0S+HGcRZQmsWHkMAasQOPiPtxSByFBuNkVVdurEsQYcouxBZfgtj81TAVd1bzEiMj8L3yZygHtifdyabzEshKoekOFgUYfg/UhfWIrVoAvTgPOGK1pjv0zb/rBtxv7IHnlRZIhwcA3XnmmHWXxUBFBmrLBVx7kYSPvFNC0JeWGPCYq+k6sGm3gR/9Scf6bQbCERPGKfm4CT8YaG/51JgluxUmFmWxLzl7qB8Kao08XGvMxSqjOut5xqDhAXE3XpQ60SNEEIee9TmdExylAUGA4QlCq5qH6KJLoRdlv2djZydwVQ7sgLv5Rcud7Fi2k3PnGXk+aLOqEFvZBK22LOuLiKEI3Bt2w7V1P6S+kaTZ5IjtGpAloK5SwBUrJXzkXRLKCvnA9fgJkRv5hU0G7n5Ex6ZdBvqHTzGkFbBtoG3XYqFk5rx5hoEW23fsBJ9QhohqM4DzjBm4RK9DCXxJ37gNYsLEfmEIT4vteEXsQo8QBf1/jmSnAbJctdKZSMw5C4n6pW9Jasru7P88Wgz1w73vVQtw5Z5Wu057yp+H3MAEqvHTGpBYWAfQW9tGITeya2srlOYOSP0jNp7ZOVV5kYALThdx3WoJZy8U4XbZp5OhURN/f9HAg2t0bNtrYCRs37lz/UyiiEahuHbeHaaAH+f6ZHnmFzBdONeswQX6DMylmCsmiN/xnPi4saNIYIvYi3XiQesn4Vi1GWvTCJYiPudMJOqXQS+oAAQx43MxHWjokAcOQml7A+69r0GMDDEd5gwaRwOiCK2yCIllc6DOr4VeFJw8NWk6lL1dcG1vg6ulE8JodPKudQqc2aUA5y8TccMlElYtEVGcb5cpcqzyyF2874CJp17V8eDzBprbDKjaya9gwcQnhOK6eT83gY+eLMudaxTiOn0eFqEEBeax5R2TsUZKkhoUYtgu9OFPUjPaBOcLm0fPlCGs1i5CbOHF0AvKJ816TTUnQY1D7m2Fe++rUCg5yslE5tk+mD434qfPRWLpLOjlhTBttl5TTUYcjUJu64b71RYo+w858VquXUsOnlsr4EPXyDj/NBGUNTwVEokDu9sNPPyigfue0k96F7IA/EIoqmt8FDCvnAoFT+Y1AqaC6/VGXGTUoQBuiLY5h9lmTWA7JMTxuLgfD4t7EBKcWs10mtMLKhFddiXUqkaYbl+64eP/nZJppCMvCC3DxBjKRtbiUDq3wbv5CUjDh53EKIbd0GaUIXrZ6ZaL2KQ01KkWw7TKfdyb98GzZivEU8kPmYWu/R7gHedL+PA7ZTTMEECJTlMplHNI5T57Og18/486Hl9/MsfYhX8IRfXzpnXSE8Ve5xvF+IC+EPPMIkgc4ErvZ6tsRxTgO1JVQDcbuTHiVgJqZllxrcIwfidtx1axlypup/L+nRbXMl0+JGaehuiSt8EIFPHNmTaMrCV6qSvSWzNWyS8V14CEBqu+gFOEaAie7c/A07wGgq45YHu8/kQBps+D6PmLEDuXP1eSto9KQNySAJ8kQhGTJSBh1URcN6Ehs2eOwNb36Ktwbdlv1dw62eNvvfHpsZlZJeJLH5Rw2YoM4uWmABMCdFWGoSWDtqKkQVISgEB/oZcpX24KJYw/slbHT+7XsLPNPPly2gRsE4rq5lEwKsnGMI2ELNUaM4hL9Xq8zZgJyiJmFXrIXYqAfL+EwoCIPP9bbzh6Pw+HdQyMaAhFTai6yfXcRqDiObEDT0pt6BRGnCxkwCrD0QurLHBVq5qseldmoS8iWQSoxpJ+pxP6XB4D2wxKPyghyrv1Kcg9+yDEw85Lm7K+Ax6oDTWIXbgEeinfK0O2gFVEkVtEgSKPu4X0fRTWdPTHdYQ1E6rBmU5oAnJXH7zPbYbU3gMxHHP2jcoXFaCyRMC1F0q44z0S/B4+17ChS9ATHiQiQajRIAzt2OdWEA3IrhgUbwiKNwxRUSEIfB+4Xb0mfv8PHY+u09F2KElwcZLIMIEs36dHDqy8xPTiNKMcVxqzMNfks4TcioCCgITSfAk+T/qXNT34I2EdfcM6RiIGNJ1PXYeEMJ4W2/Cy2GWBrX4qZiELIvTCaitjON5wNgx/Ad9ddLTlejyBQbozkQuZrFpyT3AW6wmJKFytr8PVugly735Q/PZUFNOlQJtZgcSy2Ug0zkiSSTAKbZdXElHoFlHkkiAx1MrSExZSdQzEDYRUAxpnTTNZta6dHXBt2WfFbQVyS52CQrovLxaw+nQR771MwvIm0eIAYRXTEKHFfUiEg0hEgzD19NYvWbbu4ABcvjAkJc5l2dIj+sYuAw88Z2DN60mwPRlkWoEsZQkvNEpwoVGLlUYVV9YwPduFAQnFeRLyfCKksTge4y4mNBPDozr6R5JgyyMUr91GWcjCQQts+4RTJyPS8OZBrV2C+Ozl0Mpn8WUN06a5laRbmMV6nWhT6AlO6IDK6Uo0DUgjvVDaNsO9fwOkwS6erZ/2Y7XKYiTOaIA6rwZ6CZ/1Si7hQpeEApcEL+fzRoojcB1OGBhK6BjVDN5vJKumVtnVadXXyu09034veBZAcdYLThNx3UWSlT3MmzWsxclyzYMayYOusnsJaY6CYEJyReHyh+Dyj1guZR6hhPF1W5IlPy9u0tE3zRP/pwXIknOj3PTjcmMWzjWqUWb6uWKvXpeI8iLJcg+TJZupWB5I1cBQyED3kIa4yv6lZX2dI4EdYh+eEPfjDbHn5GaNEkRoxbWILVwNtWqeReZ/hMWTTf30lnDLyfhr5lt27LXIkqV4XUzlzkalrGNp6DBce1+Be9+GpAv5JBbT70F82Rwkls6GVlWUpEFkFNouslyL3bJlxWaAr29eiZ6bhGFaFm1PTLPitlxiGJB6hqG0dMDzcjPE4ZN730g3xNZ02zslXHaWhLoKgWfrQK7hRDgfidE8aKoHMDN/+ARJt9zI7sCQBbY8Qu/awwMmXt5m4P8e07FhpzFtXcjTAmTP0atxg9FkxWB56BDJXUKWa0WRDI9L5GZ1S3VTWLk1CQPdgzr6RjSu/BpyF4eRwFrxAO6TmtEvnHx8utQZJ7bgQsSbzofh9lN2BPvzRZtG7kiyXnldw6xXoQ0kFzIR0XO+s4klSurrgHfrk1AONrNecfqMo5rX+nJEVy+FNqMUJnkSOMQtCqjyKwjKApNrmPXUY2DbH9fQHeXPRhVUHVLvEDxrt0HZ1pZMjjrJxOMScN1FIu68QbbcxJxbBy3mQ2y4BGrcC3IV2yWCqEN2x+Ar7Ibk4gu50DZ1D5h4+EUdv3xQx6E+zgfWrkVkcZ6cBVlKbKLY6236Ypxj1HAvkW642lIF+QHJNnA9fhL0tUUu5M5eFbEEZ5IGAEqHukfaiSekVuhvtiXgXmruHEDWa0kdRs+7GUZ+Of+8CFiPTvPmPwPfEVamTQzIoPSH4rPuXS9ZmchidGT6J9hYrQNdiF64BPGzm2By1nWQtVrillDhVSbt22hsc8ma7Qyrlgs5k1cuMUb5Ht8AqW+YO07Pd4NNzWhJBObPFPHFD8o4dwmFwjivawqIDJQiHi6CaWRuuaa7KiVIeYIDcOcNQJT4P3IO9Zv45u80PPCcbjmkOEP16aY3aX/POZClEpx8041zjRq802iw3MQ8QlnDlDFcWaRYGcRTIZQMdXgwmYlMLmSezadGA5uFHjwo7cZucRCUlZzJi2Mq1pnyGqIMPb8M8XmrrMSm43u8Tjg3q6ZDTMZeyT18IoSsWkqOoSxkTuVTvNa7+THIB5shxkYBky9efyKWe8w1KWvY74E2sxKxi5ZAq+BLJKREpoAioNwjwydPXXU6fR9RrLYvriOq88drhYQK98vNcG/YBXEoPC0tWwLX2goB15wn4Za3S6gq4XvfGbpsWa/RwTLoGp/HIpv7lqxaT14/ZE+EO15L79bnXzfwm79r2LCT8mQyK/nKZv68x+YUyHohY6lRhouNOit7mIcOUZYEBL0iygtl5Pntc3XwKDQaN3F4QLUSo3jitXSNIcStLj9rpE7sE4amTbzW8BdCrZ5vASzFYLkCQPSWIOuVAHayXMOsG2jFANRkYlQGJT/USs+19zXIPfshxkKsVz2h4yyu4bqyZOx18SyuPaDXOYEqJTYVuiVQic6JEIrXUsnPiKojonF+IQGQeoasLj/yngNJPmTODPQTsWa6JpXknLtUxI2XSVi5mO9998+s4XwkIgFbXcPM+hBMuLwhuAPDkN1RUPyWR/qGyIVs4JGXdGzeZSIc4997nutlMzZnQHaWUWCB60qzist6pQRUv0e0Yq9FQQnKiXraj+zCWH0tZSFTnS3v+3q3MIiXhYNYJyVLfnJWJBlq5VzE565KJja5OBibaNMIXIlQws7EpmyVRc8p9emiLGQq1ON8bsXwEJTOrXDv2wi5r93qZ5uTIgoWBWJ86WwkFs2EURjgakNHWcNUjpPvEq3EphMttE0RjbKQk5nIBLw8IiQ0yO3dFpGFa2c7BOL+y1EhtqazFoq4drWEq1aJ8HHWvOoJdzKxKRKEToQSfKqyXSuiqEPxj8DlC1mWLWUmswq5jPd0mnjyVR0Pv2Bg+77c9CKdcJD1QcbFer1FhzjbzIcE9oeW3s8l+RJK8pOJTSfaGDr65kiopgWyPUMa91cWsUQR2D4jtuNl8SBGc4yikQj8Y43nQ6tpgp7H2cqMXsoeJQmuubRhR28e+aQoTktkFpws5sQSJY70wkWNB1rWJuO1OSRU8xpf3oDEsgboZQVcdIgUd813SRbABsg1fIKs11TqTJJZGBhI6BhO6OBNRKaWelJnLzyv7YLS0plDu5b8BppZJeCWK5NsTeQm5qGJpqxhNZyPeDjPIpYws8gatl0xVPIjq1B8IXiCQxDlBNclKH+xpd3A39boeHiNjoN9XIdP+uATBrIEpkTmf4PRaNW++jgYm0grQZ+ImlIFPrcAKUdf1vSuJqaoviEdXf0qlyeK0qjCULFZ7MGfpBYQVWNmaR723UOmpECtW4rYoouhFVRyMjYR9YwL8Mi5C67Hq2qs5Cea4HYjEheyONIPz/anrC4/uSDqrEpEL19usTXxEErQ3D2SgAqvjDyFSnJyDF2PUy6B66im43BU43chm6bFFCXvPQjf05sg5khLPSKTuOPdEmrKRSv5nkfUqA+xkRJoNmcN88yBZSxZscQW5Q4MwJM3yHLIMWOovpas2Z//VcPzGw2reCAX5ISALMVar9Bn4ga9CUHw3TEUe60qlq3Ya44/68fsbyxu4kBvAgOj/C4Nsmz/Ju3BvdJOq28tu0PFvluM6lzDK65HYtYZ/Ccl65Wyhnk+vfmvMnlHUAyAamspQYpb+SaUzh3wbXwI0tChE5ISaQR9iJ+3CLEz53GX5BCclngkVE1B1rDdG0jfSH1xDV0RYkTmF+r0431+C1wbd58Q1ih6v1Ey048/pViEErxC1mtsuBjx0cITE3flnfBR44kP2V98ELKHv8SRKj0efcnAd+7V0dZlcCWiZjHllIdOKcgSv3CDUYib9QVoMou51kPv53yfhMpiGV537rmqWBZD7+r+Ec1yIVOSFGfoCB3CMP4oNWOL0IsRITE1lq0kQyuqQWTVjdCKqlmW+c8xFhM8kUooXDE/votM4WhKiqLPYzKVeFLIKYE6PARP84tW/1op1Dc1WchU81pXhsilp1u0iDxCrmG/LFolOf4TnOfAM+/xxlKM9lBEQ0gzoPHyIVM/itZD8K7ZCvlAHwQq+ZoCCfiAq8+VcOd7Ze42dASuVs2rZb1OfrvPyVIH8R+7/MNw5w1ZFI088VqaU++QiV8/pOMvz+roGTB5Iz+2LWtKQJYS+ytMP67QZ+FyYyaXa5i+5gJeESV5EgqDEsiSne5CX1q9QxqGRnXEOEt+4tDxqtiFJ8U2NIv9iE5ilx9TdkGtPw3hFe+G6fKyq30ssWmMsYn9yNwfSSaRlYWs8Zf8UKP43lZ4tj8HV+c2wODLqORSjiQisbDeIpWgJCdWGeMaLnIR3zAb1zDruU/kOPqgJZAdiGsYVU1+PmRVg2tbK9yUidzVn2QOmwShR6esSMAHrpBwy1USSgvY33eUNUzx1thIAdRY3qTWvE7C0lOekqxaYo1SvKPcZBb0uBJbFDUfeG6jAcpKnmqZdJAlgG00ivAuYy7OMCq4GJuIUIIyhovzyHplv9mmWomZXo8aDwyEDAyFdVCiFKtQbPagEMIasROPia0YmgTWKFN2IzF7OaJLLweV6TCLReZPP2S9Mh81/QZS2ji5jykTmbOlnhgZgnvX+mQ7PaqttVtkCbGzGi2AJXpEVnGJggWshS4RHmnqal5Z52fHOOrsM6waVmLUiMofupEPDcC9bgdcW1tBtbZ2S2mhgLtulHH9xSICXsYHyKT2c5Q1HLQyh6ey5tXu9ac8n2BapT5uXwiKbwSizMeHTOD61zUG7v67htYuPi6DbNc4qSArQMAcowD/qi/CArME1PuVRehrmqzW0nwZAV9uZQ2zzJ9nDBFZhCKG1eWHspF5XMhEXLFOPIg/SM3oFuzjZCULNjHrTESXXAYjSOQEDA+7RShxpMdrDpR18OxBxmPJZUxgO5aFzP6dBOga3Ltfhm/ToxBsrquNL5+LyOVnwvS5mZZGz1uBIqHYQ0T+2XENM13wBA+yKBp1EyOagb6YhhhPGrIJiEOj8K7ZAtemvaDyHzvl2x9TcMMl1CGM7aymKSIeKrDI/PW4G/Tvk1mstnruiFVfS5Yt/ZtVIjEistDxxV9r6DjM87CyXmH8cZMKslVmAHdpZ2CuWcxM6E/Wa2WRfNK4hlm2x6oY0U0Mjuro6tNAHX9YRYVhxWq/IL+EIcGG+j5BgFrRgMjZN0AvIGpEBoClmlcqyyE+N4bhrGubNuPGSn4oC5mjMJqaDrh3r4f39b+DOJHtELWpFpErz4Jeksd0Oq8soPJI3FWeokzCoOxGvb8QM/1F8EjJBEa3KCOm/xOwdoV6MZiIoiMyeS1YLM+/bmIgTj1sNTA/dgS0oQi8T2yEe8v+ZG21DfLxd0v4zM0Kc/YwxVujg+XQEm6YBi+XIv+ERW8J5EA1RE+plWMhCPS8SzCNI2m8WhxauBNGtA9GYnIJWYgPmXrXevP7uFzIFOVZv83ALV9VMRphf8/ya+ufR0wqyH5BW4FVHLzDRIdYX+FKTyhRXQRc0MTX/uyZHcDBgWx0deyxAQ+wsgGo5OiN2toLrNs94YuYntfOvgR6Bvke3PXiQXxX2oCYkN2XtZVFfM5NSNQuSq8rAlSv+8TRIaaf4dSOSLZpSmYiMz6/QiIC34aHLB7kbIVa0YXfdQ60WemTnCi1gbrklHlkKJNs/PgkBacVVWNVcR1WltRiho/9mYnqKl4fPIiXetuxrq8NXdHQpOTXEzXjgbBm8SGzihCOIu/upyDZUJh5zhIRf/mmiykBnxKb4sMliI5QGGfyvmolTzFclSuhlCyFUjAHgsheCWLEB5Ho3YRE3yaovZthGtm9l1LtiSCa8OT1wVvAVxx739M67vie/e7+8eY5KSBL/MPv0+fjfXpT2vuVvIzUiq6mRLbI/JnkzDnAV96VzFpllc/eB7y2n3V0+nEVBcBdVwKn1acfOzbi+Z3Atx9JxvLSSChCtbUaRqMmdAYfMpX5EP8x1dSSdZupxBZchMhZ1058OD3XZLX63Vw1r6IgWPWWPEJMPnaKLAqg2COrkCcxYXCWAVhEFkcoGhmykOXeNvhevh9yXweY0fm4BVC3HIrBxs5ZCKRx11Nv10qfjHzyQEyCuEQJpW4/GvPKcH7pTOsnqLC5rtNNZ/PQIbzQsx/r+zpwOBZCWE/AYNBxuvPS35N8yBoOx3RQ7JbhsbOaw/v/9HxWbmOiSPy/LylYOnfirx1yBWtRH6LDJdAS3kxvlRSqECDIXkjeUiiFjXBXXwA5WGdLVYCpxy3AjR9cA230AMzECEzDXoAjMgtvYfcRPuT0Bgp9A3/kmwk89AI/7zXLvXT0mEkB2QVGMb6inQMq2ZlIqLcr0SGWFch8ZP6nAMiS3lTNtJrED4Z0jMbSv+jbhRH8TNpkNYjPRIxAEYbf8TmY1J4ulRA+ER0iVcRzgBWdrjboxi1NJVxT++prB7nGpxt8WqkfV81kt6T2DcfxaOuglSjDLZQYEycuZGoZMsHRhm61zvNsexrU3YdbyMXfUIXwNatgFAUn3Doik5jhV6Bw7h3LnAhcZ/mLcHpRDa6qasS8IN9es1yDxpAq++NhrOlpxdq+NuwY7rZcy3ZVkFOz+N6obiVIxfT0FDD+h9bD/UpmbQ/JEfTp98v413fImCiETpnD8dECxEeKbE9sEpUgpLx6uMuXw1W2HKKb/flg3TNrnKlDG2lFrGst1IGd0MNdtpayUYkPxWldlInsiYJcyhNJS5uBm76sou0Qo9uJa7H/HGw7yPpNBXfqZ2ClUZ3SkZH0MgqoKFKs7GGOftDJmZ8iIGvdlyYQjRvoG9HRP6xZ/PWphDr6PCLuwx/knRZbFK+EV91oEf1P+JamFmheIvTn9zGeUxXE2mvnc01L+MmrXOPTDb5tQRl+vXpmumFv/v2JjmF86Ln96AxlSB9DmceUGEU/E1hc0nA3As/8EvSbV6wWdW87A7EVqT1H9MwVuCRU+8g9zG7Js8yFGKAovnph2SycVzoTCzJpc8hyoXHG9MTCeHWgA08e3oONAweQsKksil674SON4ikLeaLXsDQQQvCXj0IciXCvYsVCEd/+mGy1qksppoDoSDFiw9SKzj7vgyC5IBc0wl1xJlwlSyF6+LgLuBd75ABTT0Ab2YdE92uId2+EEeNz9aa7riircPtH4M7rn7ClXjhq4r//rOG/70+2zpsssR1kVxhV+Lh+GorM1OlxLllAfYWCPL/EawydciA7tvHkMh4eNdDeo1oWbiqh0p4fShuxQ+znumeog07o8k9MXA8rE3OTO607MtWFT0mQJWUQuMaOtNNLBbSGAf+6P8K9Zz3XvtFgvboYoVsvgxFIXcucr4io8inc7vp0k/HLLlxa0YCrKhsxP68MbunEtCtsDw9h81AX/nf/Bhy0kS86qhORhWqV+0wEtP6H18H9cks6dR3zd7Ji77hexsevl+GeINxJ2cORwXJbWZvILUwuYXfFWZB8Vba4hbkWT4+FFoU6tAexjieR6N8K2Bi3paxjl38EvqLDKUks6FF8aYuBO3+kon0SrVlbQZZa1X1MW4YLjFpMVGXXUO1CQTbN1E8hS/boG5duCiKw2H9ITRmnpVfBr6UteEzazxWbjZx5LWILVqd+2CgFlACWamAzlFMWZElfFOCj7OMJ4vGujq2WNcsrkatWIHbOgpSHURy8xqcgoNhb+1rs8uFfZp2BKyrnIU9xg0r2TqRopoHmkR7cvX+jFbNVTXvME2qht380YcVpU4my9yCC//sE1/Kb6gV89w4FZy1IbcUS73C4rxrU+9UeESDl1cE/5z1QihohSIy1QvZcfJyzmNCjvYgfeB7RzmdgqvbVjZP7mBij/CWHUs6+s9vEF36l4rF19uZ+HH1BW0F2rllkgWyDmZq8oDgoYXY1e5bauNo5RUHWelcbsBKiqOFAKnlNOIQfya9jkJGkgjKKR664EzqR/qcSAlcOYoPxTnNKgywphAB2wmYDJopAhrndAAAgAElEQVTuvp37dTb0uRtg5I8fRyfYowxiSnSyEwIDsgu/OfNazAkUn3BwPV5hFJ8li/bBgzsQP6osiFuxRx1wMKqiJ5oatMXBEIK/fcrqT8sql5wp4u4vKPCkINqhTjmhnlor2ckuUYoXILjodohuDoIZuy4+wXkoESpxeD3Ce/4MI2ZjFQhMBCs6oHhSu/K/c4+G796bPhk1UzXYCrKXGPX4oLYYeSlI/4kMaPFML+RsP8pOYZCljabM49bDKoiecTzpEyL4D/lFdAlsX4WJ2sWIrHwvDF9+6vsoz5uxm3jspKc8yFqBvliyMXwKyXv8R5AP7WZ+nrW6cox89KqU48mKpUQnak1nh8iCiEUFFfjSgotQy1GKY8e1ec5Bsdm7Wzfigc7tGEjwx0qPvxYlQ20fjKd0GVMzAd+D66x+tCwS9AH/cbOMD78z9cswMZqPyGCZLVasILmhFM1HcMkdOWC9ptZQ/PDLiOz5M/TIYRY1Mo1xkzVb2pVy7F+e0fHl/1XRw9/4h+n6toGsAhE36vPxHr0x5YXLCiTUlbuy755zioMsEVd09qjoHU79sr5Tfg4tItsXYXTZFYgtugREpTiuUKkH1QVnKac8yJL+yJKl8p4Unkf/i/8H995XmDUdefsKxFaN7yomy5VoEmv9ii1WrCJKWF5Yg39vPMdKdLLTMmZeMOfAR7qa8fO9r6DbBvrKPSNxjKbIhxBiCXif3QTP2u1MM6wsFnDPVxQsaRj/44eyicP9lUiE2UhFJrqoIPvgnXExvHPeDUHM1sJhWl5Wg9Sh3QjvvBtaiO2DJd3FiPs4UN5h9awdT55+Tcfnf5GkW5wMsQ1kS0wvbtMX4zxjxrjzpITGuTUuK9kpaznFQZb0d6hfw8G+1D1qvyO9iuclhsbTgojRc2+2eIpTfv2QmziLWOzYfjsge6S5QJRAdvwH2rvpH6AfVhm6690wUrA7UfMcsmIpqzhboRrnpQVV+OTcVZifXzZhzkW217L7+CcO78a3m1/AcJasWgciCfTGxo/dEb2i58Vt8D7zBtP0qQH7879wp4zAUBed8EAF9ER29cVkwbqrzoVvznUQXRN4qphmPXWDKCFqdMevoY8eyPqioqTCX9IFxTu+R2PdFh2f/ZmGlvYcB9kaM4iPaktxmklUfG8VokucW+MG/c5aHJC12uUd6FVTpp5ThvFTUltaVZueIEbPuxlqTerEGeT7uGtix7uwA7JH4rKRhC0ga3pdGPyvG1OWU1Gpztw8Fxf5Rqobps5fgM80no/lRTUgl7GdQlZmocsLqrOdDNFNE3/q2ILf7N+IITWa8SUORVUcThGX5QXZi5eLuO9rqXNTqAdsZKAsq4xislpd5cvhm3M9JB8jRSqjdvTRY92vguJLgrhd1JymiUTvRoR33wc9nDpxiWW6oqRZWcYu//hUj9MGZJuMYvy7fgYIbMeTAr+I+koXqHwna3FA1mqV12kDyOp5ZQifcyO0iobxt4UYmvLsSbxwQNZekNUrizD88WtSfgARs9O8fMr6zU6IFvGTc8/BNTXzswLYJIlEBBsGOkHMTXtC/YgZKuK6DkWkRiDExiWhxpuPOcFiVHnysLigEhWeQHYLoDwGLY572jbh961vZJx1bCfI3nKlZGUWjyeU8BQdKkFsODsyD2JsCiz6KORgbVb0i0SJqIc6oA5shzq0C0ZsEKZ2HNe2KFmuaDm/AUphE5Ti+VlbzsSJHD+wBuG9f8kq6/ikAdkFRgnu0pdbfWPHE2ZeYpbHyQFZ20BWK5+D8Mr3QC9M0ZCdEmaCHL1kJ9g/B2RtBtmaEgz/29UpQbbQJaE+wEE9mmLvrq5uwhfnX2SBYKbSExvFz/a+jBd72xDWEqBSs1R0iFQKROEl+k11t415pXjPjMU4t3Qm3FlYux3hIXyn5UWs788s1mcnyH7jozJuu2b8+ChxE0cHyyyGp0yF4rCBhR+Cu/zMrAA21vkcYh2PQ6NEJNM44oGZwK1q3SMiRNkHpWQJfLOuhhSoyXgOhhpCZM/9iB1YYzFGZSIOyGaiNQdk7QPZijkIU8edwqrxd4IoFImj2AZxQHb6gWylJ4i/rLoRZM3yCtWt9sbC+FPnFtzfsTVrNiZKtnp//VJcVDbb4kLmqcslysVhNY5f7n0Vfz2wHToBBqfYCbLf/DcZH3zH5IGsZ8bFCMz/V84VJolTTC1iWa3hPfdn7aq1YsKVq+CtvwKitzyjxCttZD9Gd/zGomTMhLDZAVn+2+CUolVMpR673MWaA7IT3oFZ0yoef3aqlbUpJqtPsiVLtbBfmL/aYnTilYiuYm1vG+5t24TmUI9tJP40j4vL5+C6GYuwpKDCapGXTsjuag8P4o/tW/DooRbEdH7KUbrGdAFZyVeB/LO+CtGVmsd6XJ0ZmpXRGyUGpu7XQMT+dgl19PHOehdcZadDdPMnYEXbHkVk719h6vwtIR2QzWQXHUvWsWQzuW8ATDl38TQG2bdXNeHz8y/kTkga1RKW5UoWI3XKmQyp9ubh3+aswIVls62etBMJ9aYlC3ZdXzvIus5UpgXIijLylnzSAjMuMXUk+rYhuv9vUIf32krcPzYPcmF7qi+At+5tEL2lXNMz4kMIbfsZ1H62EqmjT+6ALJeqjwx2QNYB2UzuGwdkmbVW4vbj64suxRlF1OiDPRYbN3T8ZPd6PNy104q9TpbQnGp9+fjQ7DOxunxOyljtU917cF/7FmwZyi5DdbpYskrRQuSd/mmu3q+0tkTfFoR3/QH6KEPZXxabSu30qBmBr4EyntP3PT76Uon+bRjZ+A3uqzsgy62yU6sLTyr1OO7iTG4cx5Jl1dolFQ349LxzQWDLIz/Y9RIeOLANMZvoDCe6NgFtlTeILy24GKcXVR3zMaAaOv56YAfuaX8Dh6L2WNM5b8mKCvIW3w5X2ZlcpTRkwY7u/DWMqL3dcFLunSjDU7kK/sYPWD1sWYWynEc2fh3qIF8jBgdkWTV89DjHknUs2UzuG8eSZdIaddYhN/FlFXM5bFjgsUMt+EbzC4hMogU73gKoh+2vlr8T1LCAJKqr+FPHVtzT9gaGsiSgOPp6uQ6ySvFCBBZ8yGq8zip6tBvDr3wJRmKY9RB7xgkivPVvh3/uDVzno+bvI298h+sYB2S51HVksAOyDshmct84IMuktUX5Ffhs0/loyitjGk+DKO75n1ufQmuYjcqT+cSMA99ftxSfmLvKAtU/tm/Gve2bQdasnZLTICuI8M+9EZ7aS5kzeKnjTWjbz5Ho2zxhr2M7dXj8ufKWfRqustOYL0HW7NC6u6BH2PsuOyDLrN6jBjog64BsJveNA7JptSYJIq6tWYCPN6wEWbQsQpbjj3evs7reaNQm6gQIJT/9v4WX4vmefXjs0K5JmUEug6zkK0Ng/gehFC9iW7tpINb5tJWxS7WoJ0okbxnyz/wSRE8R2xRMA5G9DyCy/29s46lq92RhfHLIKBj2/PmdwLcfmbCnKMNZrCFOTJZVU8eOc7KLJ9ZbkctrAew7quczK3jDwAGLG3j/CbJixyZa6vajNx5mnjfvwFwGWaJPDDR+AKKnmGlZRFU42nx3Rtm6TBdgHSRI8NZdnnQbC2y0mupgM0Ze/xZMnS2xzgFZ1s04elwmluxr+4DekUyuNv4x1MB80QyghKMWzQFZrL2W/eVNihd+8qp9e+ZYsml1OTtQhP+av9qiM2SRUS1ucQL/oX1zVuUxLNc60WNyFWSJztBbfyV8c97NBlSmjtiB5y1eYCKeONEiBWuRt+QTkPwpCHGOmyC1wQtt/iG0UAfT1B2QZVLTcYMyAdlMrmP3MQ7IOiCb42QUVLLzvaVXIi9V28PjngmyXr+y/VlsG7av/6fdj51d58tVkCVyB//c98FddR7TUqkperjlHsS72VsqMp04w0FUP0tdgsiiZREjMYLwrnsR71rLMtxxFzNp6fhBDsg67uKMbhynhGcitVE89vLKufjqwkuYtEtUhWt72/Hvmx+1ldGJ6eInYFCugizVm/qbboWrZDGTVrSh3RjZ9H0QWOWKuCtWIrDgNghy+r7VxEQVbfsHInv/wjR9x5JlUpNjyR6vJicmm8mN44DsRFojikLiBr59ztlMyo0bGu7e/zr+Z/9rTOOn+6BcBVm5oAHBxR9nK90hV3HXSxjd/suc2g45fxYCTf8COX8207zih16yMqNT9WU++iQOyDKp1AFZB2QzuVHeeoyT+JRaj5RN/Kl55+IaxqQnYnT6yo5n8Uz3Xns2J8fPkqsgS/WxeUs/xWwFhnffb3XWySWh7GJK3HJZXYPSC5UdjW7/FYhuMZ04IJtOQ+P93XEXO+7iTO4bJ/FpQq3lKW58ccFFWF3GZk0MqzF8/I2/Y/swe83iRBMgPuJ5QXYihQxvAeuwl/s7LNIKHslVkHWVLkXeaf/BtBRTDSO09afJ2tgcEurW4593EzwzLmKaFXUJGt3xP9AjPWnHOyCbVkXjDHBA1gHZTO4bB2Qn1Fqhy4sfL3s7FuaXM2mXiB8+svEh7A71Mo1PN+jKykbcMXdlumG2/P2W1/7CTbeYkyArCHCXr0BwyR1MejESIYuakLrt5Jr4590Ib/1VTNPShvdhdOfdoDZ46cQB2XQacizZcTXkxGQzuXGcmOxEWiNawl+ccQ3mBNhqLe0G2etqFuI/51+Y2cZyHnX1S/+HAxE+KsFcBFkq3yGWJ7ICWYSSnYZf+3LWfWJZrsU7xlt3hZVlzMJnTOU74ebfMvEYOyDLuxM03rFkHUs2k/vGsWQn1JoDshPfVLkJsgo8FpnDe5meCOIoHlr/WaZYJtMJbRzkmXEJ/A3XQ1ACac/qgOw4KioMiKivcEGR2dtmpdS0A7IOyKZ9DMcf4CQ+pVZcJiD70Y0PWbzFdohjySa1aOgSooNliI8WpFWrICrw1F4GcrWySC67i6n9nW/m1UyEGg7IOiA7/v3ukFE4ZBQ5TEZR5PLhJ6e9nbkxQEiN4zNbHserA/b0IHVAlh9k6QiexCfiKSZKQm04fSyTBbTtGyPAP+/98NZfwXRKmj/RQlJsNp047uJ0Ghrv72fOBr5yLeBW2I8eiQKqxj4+3UhRBAIeQGHj27RO54CsA7I5DLJ5igdfWXgxzi+dme7ut/5O2bn/vWc97u/YyjQ+3SAHZCcfZIlGMbTtF0j0bEy3HVP6d4rD+htvgqeaLSav9m9DaAdbD1wHZDPZykxA9p6XgL02Ur8V+oGrTwdmsbcDc0A26IBsDoMs1cl+Yu5KXFfD1slFMw08eGAHvtW8JpOn+C3HOCCbGcgqRU0ILrkTois9jzqR6kf2PYho68O27JldJ5F85fA33QJXyVKmU9JHQmj7L0ElSenEAdl0GhrXkp0DfOVdfJbsZ+8DXrPRRVJRANx1JXBaPfsKHEvWAdkcBllifLp55mn46OyzmO5pE8Br/Z24a8tjIGKKbGWqQLYrOoJ/3fBXdMdGuaaci4lPtAA5WI/Aoo9ADtYxrMdEonsjRjb/gGHs1A1RihYgMP9fIfkZGlOYJmJdL2B0x68dxqejt+iEJz45IDvuE6NVzEH47BugF6bogOGSAb/blqftnCrHkkUOg6woCLikvAHfXHwZ8363hQfx1R3PYvPQIeZjUg2cKpDdO9qP219/mLstXq6CLPWS9TfeAlfpMqY90EMdCG3/BbSRNqbxkz5IEOGpWY1A062AIKa9nKnHEG19xLLIWcSxZFm0dPyYTLKLHZB1QNYp4Un7tC0pqMS3Fr8N5Z70ZRR0soiu4jf7N+B3ra+DLNtsZKpAdneoz2Kq4u09m6sgS/FM3+xrrXZ3LEIZxpG9f0as81kg611jueLEY0RXvpUd7a46l+lkRnzQIqJgjSs7IMuk1uMGOSDrlPBkcN+IAvDhheX4+QXsLv4nOobxoef2ozOUvTvUmnIOW7I0vVpfAT7bdD5WFNcya/jp7r34TvML6E9k15v0grJZ+ED9aczXHRtY6Q2CGrYLYCsPfLSrGd/dtRaUHc0juQqytAZPzUXwN74fgpS+i411G3a/itHm3+VAvawApXgB8pbeCWp5xyJ6+CCGX/82jChb6ZgDsixadSzZt2jJYXziv3F8sojPnF6FL51ZzXzww62DuO3ZVvRG+XhuU14gx0GWkp9um7Uc769bBnIfswjFOL/T8iLW9raB2t9NtRDf8lVVjZAZXI00t9+2vo7/3b/hpOEupjVZMc2mWyAFapjUT8T6Vk/Ww68Aps50zGQMojrfwKJ/g7tiBePpTcS7NyLEEVN2QJZRtccMcyzZaWnJnlEewIbrF3DtuPCTV7nGTzQ4zyXhv86sxl3LGJIrjpzonpY+3PrMfuimTeCR4yBLy76sogGfbjwPVDfLIoZp4pGuZvx0z8tZW7Ms1zt6TIUniG8teRsW51cwH/rlHc/gH127oJsG8zE0MJctWWrcHph/G1xlpzOvKdH7BkZ3/hZGrI/5GLsHusqWI7j4dlCDACYxdYS2/4q5YTud0wFZJs0eN8gB2WkJskFFwshHzuDacTtBtsQj4+srZ+BDC9jLrn7X3GuBrG0yDUB2pr8I/zn/ApxeyG7xh7Q4vtX8Ap46vNu+DxIGpVMc9/aGs5GvsLlJqXPQf2x5HK8NHGA4+7FDchlkIQjw1l0F3+xrmN2uVvPz1kesch7TsJFDgFGzkrcUecu/AMnL/jya6igG194JQ2XPDHdAlnFDHEv2WEVNR3cxrcD8OFt5yNhqG+/dil2D0UzukrccUxNw4afn1+MdswqZz3cqgqwkCLhz7jl494xFUER2spX28BA+svFv6I6zvwCZN2KcgY3BUnym6TwsKahijMYC24YO42s7n8Oe0X7uS+c0yFqlPLUILvkEJH+KSoFxVkxAS+U8ap89hCKsSiXLNbj0k8x1sWPnje7/O8J77mO9jDXOAVkudR0Z7Fiy09KSpd0zPnYWfXQzyzl/3Yl1XSHm8RMNbCjw4PeXzMLZFemL9q0PAgC/29mLf3n21LJkae2LCyrw1YWXWIlQPEJ9Wu/c9CgSxuTG+agt3+1zVuBdNQt5poc/tG/GL/e9mlFdb66DLCnC3/gBeGsvZSqFGVOcqUUxTO3vqG2cXWGRCXaFEpz8jTfDU3UOE0/xP+cZxsCLd8BU+RLsHJDlekQckB1T13S1ZPd9YAlm5bG59mit1z62Bw/uG8jkLnnLMYtLfHj4yrmoz2OL/4RVA9/bdAhffpXftZhywtPAXTw29y/MX413VM8HWbY88sSh3fjh7pfQH4/AmIREqIDswg21S/DBWcvh4rC0yVX8/V1r8WhXC89y3hw7HUCWrNj85V8ExWh5xCqL2f5LqAPNMA2bkvzeMgEBoqcQ3plXw1N9AXsc1vriNRDteArhlt/zLMsa64Ast8oybHXn1MmOq+mpJKOgCbz87gVYUcFWg0njv/dGFz69LnsCeoKJC2ry8MTVjXBJbKARSuj4xsYufOv1rkzu0vGPmUYgOzdYgu8vvRLV3jyu9auGged69uGP7ZvRPNIDol+0S8rcfryzZiFunXk6F8CSV+KNwYP4ZvMa7B/N7KNtOoAs6dk353r4Zr+TU+Um9MhhK0ZL9adUS2urCILFSOWZcamVSczSM/bo6+vhLoy88R3okW7uaTkgy60yB2RJZdPVkv3T2+bgPQ1sTcFpnZv7IjjvrztBgJeNyKKAjy4qx3+fx0I9l7wSle18dn0n7t7JVo/HNL9pBLK0nvfULsZ/NJ7PtLSjBxHQ7hg5bHEbr+nZj9EsaRepPGdpQRXeWTMfF5XP4QJYmteoFsfdra9bwJ+pK3u6gKzoykPeaZ+BnD+be9+otCfe/aqVvauNtFoWZNYiKnCXn2mxOimF87hcxHRti295z/2IdT6dkZXtgGwmO+jEZKctyP7nGVX4+tkzmHd9JKHjvU/sxWPtQ8zHjDeQamQfvHIuLqtld6N1jibw4eda8XiW1z5mPtMMZKlulmKzF5bN4tY/lfb0JcLYOnQYfz/YjJf6MqPxK3J5cWVVI66qbMSsQDG3+5om3jzSi7s2/wOHYplbaNMFZGm9SulSBBd8GKKbL6ZugZqhQg8fQvzQOiR6X4c+epB7760DRBlKYRM81edbv0VPUUbnSXS/htGWezIuNXJANhO1OyA7bUH2vXOL8cfL5jDvOtWnPtY2jA8934rD4cxZl25qLMH/rJ4FN6OrmCa4azCG6x7fg+39fIkWEy5umoEsraXOX4BfnH4NqCY1E6E9pBKfXSO9+HtXEmxZ2JYkQcR5pTPxvtolaMovg1eSmVmdjrWqdXxu65N4vmd/VmQZ0wlkBckFb93l8DXckMmWWccQRzB1uUn0b0fi0EtQh/Za/9/Ekoy7ukqWwV21CpK/GqIS4ErEOvr8VnP2lt9DHWzOOCnLAdlMbgEHZG0G2fdAT1UTqVDfXG8muzTuMVRG03HrMuaSCzrJqGrgh5sO4ZuvdyGq8bmvKPq6tNSP59/VhHwXezkKXXdjTxjn/3UnIpzXPNlAlhKfLi5vwBcXrIZX4ujhnEIRES2BjYMH8UJvK/aNDqBlpMdKj6K98ogy6v2FWF0+G5dWNGQM7GOXJgYqSsT6/Lansr6HpxPIWoakuxD+ee+Du3LVEe1mpwKqTdVC7dCH90IdboWp//Pjk8qHRE8JlKKFkBlZp9LNhmpiI3v/YiU8ZSMnDcjON4rxKX05qszxk1qoC09dhQsumS3pZEKlOiBrG8jqBZUIr7oRWnkKdyBZfnlszD8sD0KpV8ZT1zRhaQnfOYfiOr6/6RB+39yLg+EEDAYCpoAiYVVVEP+7eiYI3HmErC+KxX7ouVaew9KPnUJLNqiImBPkW3eqBVBG7411y3BT/TL4bADao69DbuXO6BACshvFjCxT6RUN0HmJdILcxNTIIFvpiqrojo6fGyAkNHhe3AbvM28wXebLH5Rx+7vlcceahoTIYCniIfZ67lQXlQvmwj/3vVAKGrhjoUwLmaRBZDFTDDa89wFAz9yDZX1sSBp8RYfh8o8fKli3Rcdnf6ahpZ3hpZLBeoWiunm2nHmWmY+Pa6eh0Rw/qSXgFTC7yg234oCsRRKfpfQMaTjQq0JLkQ/0Q2kjnpLSx8AMXz7C59wEtWZ+ihkJQL4XIHZ9G8Qri/jcGdX4r+XsBfNjl03ophUffWDvAHYORNEdVUEx26OTomialT4XZgRdVvz1w4vKUenjt77iuombn96HP+/hJy2YUE2xBBBTUzY/8b3yF3h2Ps+kaaMoiKG7rgPE8duDuUQBjflucHjIJ7xumSdgEfi/o6oJPtke8GZaaIaDqP3et5tfwK6QPYlr7aMqBlIk4Fkgu2YLvM9tZprtzZdL+P4nU92XAmLDRYgOlcI0s3/uKB7qn/d+yPkzbbFomRaYzSBTR7TzaUR232clPWUrBLL+ki4o3vEbvE8bkC03ffiwthRnm+O/PGUJaKx1w+dO3y8wrVIdSxaH+jUc7FNTWnRfk1/GOpEhYUGSEV75PsTnnJk6bkL9ZKmvrA1CIHjRjHzcc8lslGcAfjQFAsBNvWF0hBIYiGsYiP3zo4UAZWaeB/MKPWgs9HLFYI9eHoH4uX/decy5s14+fc5G4slOPCkk+ORPoRzcyXypoc+9B0b++N4jWRBQF1CQRy5/m4Ra4JE1e/2MxcyE/DZdmus01DP2ey1rsXHwgGXRZit0hp1DcSRSuFCEaBy+xzfA/doupkutWizioe+m/lBRIwGEBypgaPwfiONNwFWyGN7Z1yUt2hwWchFTZnNk/8MwEsO2zFRSEgiWt0OUx3/unnpVx+d/oaHtUPb3yXgTts2S9ZsKbtYX4GojdVJLfYULZQV8cbFxtXyKg6ymm+jsUdE7nLqs5Q7lWewRBplu0tiiixFdegXMVPyvkgjk2ReXLfUq+MbZNfggB4cw00JsHPS59Z321sfS3HQDCMeTv1NI4R8+A4GDlnD0/auRWEgWyluFbKBit4Qav8IVA0+nxmK3DzfVLbPKe9yiPR9f6a7J8/fW8AB+vvcVvNTbjrhNnLxhzcDukdRWlTgSgf++56G0Hmaaam2FgCd+7EJpwfiWKoFruL8SatTPdD6WQVSn6pt3I1zFi1iGT/kYivlSnW78wHNc3MTpJuoODMNfcihl79zfParja3erGB7f0E13+rR/tw1k6VZ5h96AW/SFcGN8IA16Rcua5SSQeesiTnGQDccMtB1WQb/Hky5hFJ+X1+KwwHbXqFWNCJ97Ewz/BDEgnxtw2/NCpf1/W20BfnxeHYjqMNdky5HaXHJF2yrULo9cxSlYkKTBLuT/7Wtcl4wvnY3wDRekPMYrCRbIBmT7rFm6GJX2UFnPfzZdCI9kz33BtfAUg7tjo/hOywt4qa8dqo3Ujq2jCQwlUn8cSb3DyPv5IyCLlkWK8wX88JMyLl+Z2uiIjZDLuAQUo7VLRG8pfLPeAU/VeYBoj5Vsx9z0aB8iex9AovsVEJ+ynRKsaIfiGb9CIBYHvvV/Gn7+V23SGCVtA1lSyjKjDB/Vl2GGmTrVf94MN/L9WT7wpzDIGgZweDAZj00la4VO/EzejGGB7WY1ZRdGrvo09KIJuq5Q3C/osS0265ZEfP3sGty+uBwespRzRMizeMUju/CEnbWxtDYKnkcSE1qxni1Pwvf6w9yaGPzyTTA947se6eO3xCOhyqvYFVZ/c37UJH1ZYSX+a8FFFsdx9tFD7qW/eQA5+vriYXxi06NWtrKdMpjQcSCsQpvAm+ja3orAvc8xX9atALe+XcL/+3BqoDNNEaGeGdCifEmC6SYhyB54ZlwMb/3bQcQVJ1RME1qoFaM7/gfaSPocEt65evL74StMfT90HDbxhV+qePxlvqoFnnnYCrJ5pgt36KdjpUFdMcZ/5BRJwPw6N9yuLB7JUxhkQxEDe7sSUFM88TpM/Fragsel/VDBfuPEFn1NNoYAAB9bSURBVK5GZPm1mNDNQHFZn2viMRx3X4VPwc8vnImrZxZkRDDAcSmmoVQe9Kvt3fjiKwcRUm20Ysk9TFasmjoWK2hx5P3jh5D6O5jmevSgyFUrEDsndZ9eilMTyBa5JduBluZBJTe3zDwdZxfXosTty6iWlXvRRw6gEp0RNQ5Kcvr6zuctoLVLCFOJv/pAREVUnwBhDQOBe5+Fayff3p21QMRPP62gvjL1u1BX3Qh118DQ7E80o4Qo35xrIQXrkrWsUyjUWs+MDyLRuwXh3ffabr1CMK1Ep0DJQQji+O9B+qB+8hUdn/iBioGRyVu8rSBL07xan4Ob9AUIIPUXWmFAwowyBZ5MgfYUBdnRqIH27tRuYtJ/uzCCH8kb0SLw8bNSljFZs0ZgAlYW8vOSy5g+w23KNqYa1h+eW4sLqk/sFzWB6gN7BvDl1w5YCVW2CL2XdT3pIk4D2u69r8L36gMQMgAJvboYoVsvgzFBPbNbFFDhlVHokrIP14yjHJ+sYFVxndVQYH5+OQoY+7tmo2cqy9kx3I3HD+3C44d22xZ/pTkRptI90RPTrTrpiVJi5M4eBH/9OIQJPqLGW2dRHvDZD8i46XIZlBiaSrSY10qC0hP2h1ZExQ+l7Ex4qs+F5K+B6MqMcIR1HwlcjViv1YggduA5aMP7WA9lHieIOly+MLwFPRDl1B6/kbCJ79yr4VcP2vhBPc4sbQfZMtOHL2hno8FMHd+jdzUBbXWJDG8m2canGMiquonhUR2HBzRE4qkfdw0GHhX34V55J8LgrwuMz1tl1cxOKPTRrciARwFscvMuLPbh88ur8K7ZRaCyk6kWir3e09KHH24+jH3D6RhtGGdH1itlEdNPmqJeMTwI//o/QTmwIyOuWNOjIHrxaYitnJ+ynIdmrYgCStwSit0ybEw4PkYhxAq1orgWy4uqcVphNSgb2W6J6io2DBywftb1taMjMmRLBvHYPCnJaSihYzhhIJ6uIFvXEfz9M1B2Z9ap6aIzRHzj3xTMqp74vtdiPlCMVo35YRr2h1ckXwWUovlQChuTFIheKsW08Vk0DahDe6AN7YI6sBPq0G5Qiz1bRTAhu6JWPSz9iNLE78D12wx87LsqOrsnJ6t4bG22gyyd+GK9DnfqZ0CcYJPoXRr0iagolJHn5/y6PkVAlp7v0YiB3mENI2EDBLYTCVmxP5M2YZuYWV0gxWZHV98GtSa16/HN6xPAkvuYLNusM9lg1bXetqDM+iE38lRJVziBH20+jD/s6kNXmP/D5C3zpE0jYCXLNVUR89EH6Ro8u16Cd9M/MrJirVMJArSaEkTecTa0mtIJVUfPXUCWUOQSLQasyfimoVARZSA3BIqxqKDCAtvTCquyKvkhYG0Z6cUbQ11W4/V9o/04HAuBSEPsEioN649rGNFMxNJYr2PXdL/aAv/fX54w1j7R/Mj58PlbFbz/cgkpwupvHk4Zx4lIEPHRAugJtnaNXLoRRCtGS+3y5LyZFuDKBY0QXRl+KBkatNED0Eb2QR3cZbFFGdEemJpNH7JHLY5qYSn+qnjCEJUEBGHi+4L++oEvJyY1FjupIOuChI9py3CJUT+xUSQAsiSA2KBqSl0TukyOOVFJEFhWN+FX+1su/Hor0Jc5Ofhbzud1AQtqgGKOG/DQELCtk4mDM6GaODSgYSCkg0p20r1LYtDwoLQHf5KauWKxx69LL6pBaPVtMPImflknX+5EpyICpAsluwxIOpVfkbCyMoC7llXi/Oo85pZ0XC+SI4Mp/nr/7n78eGs3dg9G7aFOJHchxV4JaNNtGM3DNKF0tYAIKKRhauGVBWBIImLL5yF66ekwKRM8jZBVS4xQZR4ZHilVBkW6s0z8d9pTtyQjKLtBjFENwRIsyq/ADF++Fcet9AShjNMPljKE+xMRC0Q7wkPYOnwYByLDVuyVuunYwd509MwpvWEwrlsAS5ZrOuN17Fj5QC/8978AyizORqpLBfz+SwqWNKS3UImcguKz8dF8i7DCVmvzqEUIogJqri4ofsj+Kitua1EnugshBaogyG8tLdJG2gEjYVmsRrTbSmTSYwMw9WjSarWjo89xihZEE+7gADyBIQiymhZcxw7/8f0avnOPhoQN39Xp9n5SLFm6aMB04QfaBZhhssXayDCqLVNQWpA75QDplDdZfydwtYgm2POWsF48iO9KGxATsmSTEgQkapdYJT2mi6M2lqxaL8Vq078oWPR2eV0BvnRmNc7i6D3Lct5RVbdYo76+oQvb+iPML9QJz00ehkgM4OQ4ttzEL/wOyuE9LFNPP0aWELn0dMTPboJJLn0GIZZTitWWeIh8/9QTcg13RTSM8u5dKGIBrLLXnl7DyxoEPPZjN7uhQQnrCQ8i/eXQ4vZmH0+Lu+BIYpOvoBeSi88yfny9jpu/MgXoekSRkwaydP65ZiE+p65AOdgyDukhD/hEVJco8HsESJPhy8rBOyiZH2NaLmEC12iC3aKhlIw2YQj/T36FuS42nQpMxY140wWILroYppujGJ72i3xeZNXatHez8t24dnYRlpcH0FTohV8RLQt3LHZLfWKpHGhMyICM6YYVo6P3ZsIwLCt1R38ULxwcwTOdI2gZtCEWRFtEX0FxirumpkkcV9emCQtg194D5RAbQ1C6PRv7uxH0IfLOlUg0zuD64PFJIiq9MvyKkBOZ3qzrzWQcWapksfbFdAwkNL4PLdq7gRC8z26Ce/P+5D1gk7xthYgf3EmGBvvnDlm25D5OhAqhqy5baBhtWs6knEYQDEiuONx5g3B5Qykzh8e7eDwBvLzdwMe/p+JwP/s7NtuFTCrIShBxhlGOW/WFqDXzmFP7FVlAcZ6EoqAEv0e0I+SXrZ4m7XhyBVPWcP+wjqGwPhEZ0FvmQC7i7UIvfipvRjcj8QTrQsiKjc87B7H558Pwc/aBpFRJykAmAgSbwJbmHXRJFg9xpd+Fcm/SUivyyNa/3wQZ00TrSNyKqQ3EdfREVYvnWGP1AbIoiJKaKOZKsdcJ2JvGO5WgJSD37IN3498h97WzXI17jJHnQ/Ty5UjMr4NJ+8AotFWUfUylPgS6Nm4d4wwmdxi9VukDjBKa+uIa1AzwUW7vhmftdriaO7j3nmV1bz9XxBf+RcGsKnagJZcxAWw8VAA1GrD++2QTKsORlDgU76gFsKLIlxEcipj4xzod3/+DPmn0ial0PqkgSxdVIOF0owzX642WZUvAyyoEsJSFTICbVV0t6wWncBxZXKGogYGRJLhSDJZH+oQo1goH8LC0B92Cjf1Oj56EKCE+6wzEG8+Fxtu0m5KhyKIlNzKBrQ3JUTz6mZSxvElNR0/CNCCF+qG0vg7Pnlcg2kyY8Jb1yhKiFyxG/PQGGIV8ZRkUoy1wSdYPMUadDEJJTUOqbrE2UTye72kDhEgMrm1tcG/YDYrFTpa4FODi5SI+eq2M0xtFK5GfVYi8grKQE+EgEpG8SclCZp2LXeMogckCV18yY5j+m1f2HTRx/9M6HnhOn/RM4vHmNukgSxeVIWKOUYirjFm40KidMOv4+Ela2ZBe0QLawqBkJUpNd4nGTXQPahbIxhIGU47M2JqpTGen0G+RTbwh9CAkxLlfGFz6EyVQO7x4wwrEG1bCdHHW6tEG0puCspBtKvnhmr8dg+mNbGUMH8ka5jynoMbg2rcBrrZNkHvbQP+eCiErVp1ThfhZTVBnVVCWIfNladu8kmhZtoVuEdRsYDoKZR8PxJMlOVHdsOpfeYS668j7uuB+Yw+UPV0QqIvSJAs9Lk31It53mYTrLxIR9PPp3tAlaDG/5UZWYz7Ahk4+k7zkcU9PhP4u/zBcvpDlIiZXMY8MhUw8uEbHQy8Y2LLHsNImToRMCcjSwih/kRihzjIqcau+CAVInwF5tEIIXKnkp6pIhm+aupDJNdwzqKN/RENMTZ8xfPwN0Yco/iK1YL3YhSEhDgLcqRJyH2sl9aBmAmrlXGrSyH5pekcIYrK2lixbvncG+3UmYySV4RCZBAV4WTKGj5uD1NsG/4aHIA0ehJCIZHSOrJYlijDy/UgsrEdsZRO3VUsN28maJfe8nd18sloTw8GEpSOqgd6Yhohm8pf6mCak7kF41u+EsusAqAFAJvvPMNVxh9A3TX5AwBmNAj51o4wzmtg9gGMntEp+okErC9mubj6Zrof3OJd/BN78fohygivuStehFIkX3tDxq4d0bNltYGiU9+r2jp8ykB2btpXcBBc+oC3EJUYdqNyHRyh5taxAxoxSZVp5IIdCOjp7+ZKaxvRCcPqk2Io/SC2Tb7mm2QyqpU3MXYnIsiv5kqLGzksbSDFUDquK5/6wbSy9paOJZGJTBr4CcbQfvg0PWdbrZJQucK9TEECx2sjbV1iAyyvJeK2ICq9yQghDeOZLrmFqsE6xV07DNXkZ04T3xa3wPLcVQiKRyfbzTHfCsWNVch+9VsKn308GBv8Xqq4piA2VWGU/uf6FS5nC/uLDkN2ZJScSF/HXfqvhsfU6KNEpF2TKQXZs0RSbXWqU4j16I2abBfBNQMM4nqKIkrGmVEGeT4Q0SXV+2W6QRVkbN9DVp2IozGd1EifrKFTsEPtwn9iCveIgMnxlZLuMcY83AiWILLsc6oyFSbAlS5VV6D1BwadcdCFT3JXcwpHU3XJSLtPQraxh1/7X4WleAzGSXf0kqzp5x6kN1YiuXgq9qpgrMYquQ1ndlIVMNbZUa5srQk4G1TQxmDDQHVW53cKUYixG4pDaDlvkEpblmkNCqm6YIeDj18u4dIVoWbm86k9EAogPl0BT3TkVr6W4KxFIuIODcPuH+S1XDegdMPG3F3T8+H4d5CbOJTlhIDumhHzTbcVpLzRmoN7M57JsyaVSEBAty5aSpHIlXktZ/dSGbjCko29EYyL+OfqmIErEFrEfz4kdVv1rDHyZdFN5gyVmLLIsW618FgwPX4KNFaOl7Ffi+LOpvjbjtRO4jrmGOTOG6ZpkuSoHm+He+xrk3lbAxjZrGa9pggOJ5zhxRgMSC+qhVxbB5PQskOu4xC3DLwugMqoTJVa4XDcRItdwXEOMN+hKJTmjMVDWsHvjbih7Dk5K1rBd+iGekctXSXj3ahErFkrwc5Sy0xyobR5ZtInR/CMlPxwfx3YtYuw8VlJTAi7vKFyBIeu/eYS+hTu6TazdrOM3D+toac8tcH1zmUV183JiZrONApxr1GCFWYk6k9wa7OJWBBQcyUL2eycic2Q/Z6YjI/FkxvDgqA5KcOIRAtMWod8C1pfFLlAGce6LAMOXB7V2MeKzz4RWSkxcHCmRtEDKQqZsD5c09VnItEX0tFLvWE3jdg0KsVG4OrdD6dwCV+cOQM+SDGQqN1wULYCNL5lluZCNIr6PJMpBpMQoykL2y1Nf8qMa1IEnmdREIMv3tMEi9Jf3HYJrexuUXZ0QQ9PheUveIJXFwDXny7jmfBGL5vBlIVMiFHX3SYTzrB9yJ0+1EHE/ZQsr3hAUcg2noUE8en7ktTg8YOL5jQb+vlbH2s3GlDA3ZaqjE27JHj1xD2TMMwpxvlGLVUY18sBe70VWrc8tosAvWqxRLmVqv64pqYkyhofDhmXF8uTIUHu6dmHYslw3iIfRIUxi36VM75R0xx3JQlar5yO2YLUFvFxyTMkPgS3X0ZkNHqt1JQuWs46WWtMpB1vgan3dsmAz6Z6T2aTtP4qykInzOEFgu3gWqOEAqySpEwXkK8n6Wir/mWyxkpoSRCShI6yZILDlFSrDcb/cDLm9B9JAyFZSCd65ZDN+6VwBFy2X8L5LJdRW8OmeGg1oCS8So3lIRPJhGnzHZzLvZIecZDmO7IlwZwzTVj/xso77ntKxaZeJ3kF2GsxM5mvHMTkFsrQgykIOQkGTUYz36fOtbj48W5+k0hVRWSRbJT+TXXlAYEpEEt1DGqIJg5sAhlzD/xD34VmpwyKUiOewa5jlhqPEKCNQjOiSy6DWL4UpsX8oWeenDSTLll70k+WGJHewlTHMD65k6koDXfBsfxZKVzPEaCg3EptYNifNGMPvgTar0spC1urKuVz4tFXUTo86/JR6+JIZeaZOfV0PR1ULXIlghBdexeEIPC9tg9LccQRcec/AM9upGevzAAS2N18u4/KVEujfPGJSyU/Ci+hwsVVnO1lC/V2JZ5gsV0HiD4E1t5n4wR9VvLLdRM9A7oPrmB5zDmTfnBhgEVdcqc/GB/T58HImRtFDT0lR1Lc2o3Z6ae40AleyWIkGkRqpZ/Axjc1CD34lbUGHOJJTSU22PGSiDK1sJiJnXQut+P+3d6WxdRVX+Ju5b/Ea4yU4cRIvibekDsQhCNwQBKQkQa2KqpYW8aeCokoVVF3+tapU+qf9U9pKLe2/ohYVaEulUgVCAqWhbAkpJAEn8YLxgh0bYz+v8fNb7kx15uWFBGL7juPn9158jhQ5TubOnPnm3nvunDnnO5X2XdLXUW6Qtkn21851BS0aRQuTgbVxNZzvj/JbybjmnD6cnnScpUNi7p6EgM4NGP7j8C1N0LQGFkIfxLk+gcr8wJISWVC+62A4QeK/mGeNmLnILZx36G1Di7iY9beAYdmb0uNCIQ57bpJ49Ht+lFlQMyaVpfxayq2NTJZAuZZHPvPM2KEKOcXDCOZPWrmFk11OTGv8+qk4/vy8i2mqM5Bl30UZa2QvXrPVOg/3u5/DDWqtKQZvc+pKFI1UTq+0yIGfopBttsWXuXESwacJ1/DH40SD6H3FDa0b4hgQ03jCacVbcmjZH8blHlDlrkKkfqchs1CFpXZRyKQssUXRi57eIItdO3oqKc81HElU47YRrSAiMwgMnDZUiPJcyObqrG7rlhcjvGc7YhvXQhMntcXDQ15j2tWW5TgmInkxS2c4vc+fuw6FExVyrERriEgMMjSJvOeOwd+1NGT+VjqkoXFBnsC375b41t0+lKwS1tlyVHggPL4a8UguaJe7KKGIYSeOQMEkcgpD5u82QsGjoxMah99RePTJOLr6LdfeZrAUt80KI0sYBOFguyrHPlVjXMmFFue1dH1hrsS1xT5DaBGg0iOWYojno8qcuZKBjVjSIJJxpXqvr8l+HJI9mBR2kXSW6mZc83hZFWabdiO+uhqqsMxOP3q5U7oPBUfZGNukcY3EElzDliLDk/ANdyPY8bo5f4Wye1FYDpexzemsNnJjPeIVZZ7K6F08kTyfRGnQMUQWyaIOXiZK56xUIWc0ojAVo6gFOyFmJmdwFMHjXQic+ABiOWqa2amY0tZ06rKtTuLBux3svF5iTYmwCuAnisZYON8UinejOVYpPxTURHVdg4Xj8AWJZslu9T4Kabx9RuGJA4mgJnp8s1myxsgmQS7XeWhR67BTVaBJe6h5etHq0Ps5GYVMxtZrlZ9IVBt+4dFJ1zqoiYbvFuMmWvh1MYBeOQV3GZmaMunm1I4fsXWbEa29GbGKeuiA5flPslA8RSHPl/JDzzSdtyYDm2z9SyoOf/8ZBHpPmMhhMbuEdYgzaUG86iIAtSrfBEVFr6tBnEJbycPgUeiTtiiQoGgs8DuY7xuXHA3T5yOGJ2KuteOB3MK+s6MInOqFv7UbzujV5xr2CLtpVpQP3LHDwT27JW7ZJpEbtNtgkNuY0n2oWLwxtvNQNErHhY/ScfIoavicdVDTxDmNo60K+19zceANjfFpO+Nsg8tyts06I0vgEBfyBl2IFlWB3aoKFdp74fQED4JAUb6DsqL5q/y4LhCadjE26WIqbFchh/QkGsTDsg9vOmfRJcazPqhpaW5MAZV/DWLrtyBS23I+5cfCJUW7WlPdRyZSfugn/RsZUvqTrJBDP23zXZVruIUD3e/A/+F7cKZGlmbKV0kvlEtLLuTYlkpEbmwwDFI2QuQVBT6JAr9EniOQc77ST6I6jjbcwpSKQ0Y2ausappi5qbChQfR19sMZGoOgDy0Wg8CmdQI3NUnc/yUH2+q9fyCZi5MpP+F8ExhFxjZ5ZpskkiCmpkDeNHzBGWvXMC3TiXaFp1508cpxZUj8l7CCYNrvgKw0sknUyIVco4tMcBTl2NLvXiXBWy9QQJV+Ch0THEW/U13XaDxRfm582sVsVCNmeY5HEcLkFj4gu9EtJjAjstzf4RVUm3bSgcovRqSuBbObb10kRaP47DkhvZxtd670gj43hpy2V+HvPQFncmTFuoa9LCGl/LhrSjB7cyNiTdWeC8Qn+6ZiA+SUIF5k+ug1Z6+a+IUTZ7C2+xfKdw0ebUPw7U7I0UkQqT/LZxEgzGvXC3z9Cw7u20ebDLtdLbmQ6YyWCC0+2dFqw9BEqTm0k7UVYmf65V/iOHhE4ezH9O617SHz22e1kSV46TahnS2d1ybq1hZZB1mYTJGL7zd6TycoTK2EmveJCRMx3CpHDIG/ZRdW410VjcnY5hRipuUeRKual39KWplc19zjzyd2rhnO1LT8AM09ovb7EK+rwMzeHWaHu+ziuvC/fxa5L5+EMzDCO1ePC0ChDVtqBH7ygA+7tjlpKY41M6vx5MEEDeLIuLZmxfM41YxoRkZ2nFz3GaHNFSqRo324VzVgr7vRRCGT8V0OicLFiJjBs/J9HJK9mBVX4edYqoGUDqJV2zDbdAfckvWg89vUiYaIReBMfIT8N56Gk6Li6anTP7N6VoV5iHx+MyLNtabij00U8mJmQm5g2rFSvmvg3R4TQcxijwDxv9NZ7ffv9WFNqTB04qkUk/YYBo6ecvGbp10cO62sT3RSqV+K+p4QJdUN70Jja4oGSEu31aoIX1F1aFbXogS5cKz3tt7UjkFhWMzgiDyL/bILQ+Kctwu51ZwIkAt5tnEXYpVbTR1bq8IDC+KqIaJhOGODCHa+iUDXWxDZRIO44PzS2yBevQazO7cgXnltwtgutVBQ00dj8LX1I+fIGchJft6WAmJyG//gPh9275CGNcqmULzX8amW6/EOhb+95JrAphWzdALviZKqxv2A/qJXsLKlHVX12eGuwS61Dtt1uXWVn/nmSS7gUYRxlCKG5QBOy1EOalrKG0M6iJdVIlp7E6KV10PlLYGjRatEUFPvSfh7TyZcw9quMtJSTvFq7YtcyCYwqrnWsEYRscUVC9V2HR6Hv2PAnLs6QysnV/mKsfPYAdWHaNkq8dXbHdyxQ6K81L7Kz+WGIlrwEx3KnLk++18XPYMr7QBNPCdKqxp+r4HveFyLrGpGpBVEZHGDKsceVY0GXXLF+pNr+DU5gFfkh4bMf6Xlu14xgBYdaF/QpPwQPSO5komycTEip0YQ7DwCf38rfGODgMvuxcXg6Pkaql1bXIBowwZEt9ciXlGayG9ehMipGQRae+E/1QNf3zAHNS0CQ5tLaFe7q1kYY0ucyJbFmS4Zqq1H4Z+vKLx0zMXJzpVmXBNQCOAPorSq8WEN/Vubhci2tnQ2W67z0aLW4i610SrlJznXGFxDg/i80412EcKYoCRrltQjIKByCw1FY6y6GVRaTwc81PdSLpzxQZPr6u9rhTMxBBFfWQQgqV+b+UeglB91TQFijRsMmYVNcJSYnkXgVLchk6BdrAhT8fSV+aJe7nUkw0pntNfVCjz4ZQe7mr1nbdASnR3R+MfL5BZWaO9TIFfxShUB8V1RVFm30RGyayWAQMa2WOfgVrXO5NdSJPJC57URxPGOHMZ++QHaxShmRBz2SQYrAd0Uz5E4daXPpPrEyzchVtGIeOkGwx6lg4l8TWNIw1MIDJyBf+A05MQwBO1aOWI4xYuzQPeONPVq3dVFiDbVIL5xjTG4lAp0QeKuIex3+kcQ6ByAv6MfRPXDua7pWzrKuqBiA5vWS1NS77btEnWV0pSA/rRQXdeTHS7+9arCv48lWJrIVbzSv4tcrTaZxJWSqoZjAHakbznTM3K1XoVtajXW6kKU6kt3R50ihH4xjVNyBOMikh4FeVRGgBFgBDIMgeb6T4KjYjGgZ0hjbIWTos2xRP8L9bbfaIxscWX9z4UQP8qwtWR1GAFGgBFgBBiBrERAa/2Lsb6OHyd2stUN+6BxICtnwkozAowAI8AIMAKZhoDAXaGe9hcu8ByVVDX8HcDXMk1P1ocRYAQYAUaAEcgyBJ4J9bbfQzpfMLJl1Y23Ka3/k2UTYXUZAUaAEWAEGIGMQkAKcftIT9vhS4yscRtXNfwRwP0ZpS0rwwgwAowAI8AIZA8Cj4d62x9IqntJGYbimobrhMILANZmz3xYU0aAEWAEGAFGICMQGNQS+8a629+9rJE1u9nq+m9Ai6czQl1WghFgBBgBRoARyBYEhL431NPx14vVvWxBwdKq+oc0xO+yZV6sJyPACDACjAAjkE4EBPTDo70dj31ahzmr9pZUNz4CrX+aTqV5bEaAEWAEGAFGIOMREOJnoZ62Ry6n55xG1riOaxr3QOmDGT9BVpARYAQYAUaAEUgHAlLsDXW3HZpr6HmNrDG0VY0tEPpP0KhLh/48JiPACDACjAAjkHEICHRCi2+GetvenE+3BY0sXVy8YXOTkOqHnN6TccvMCjECjAAjwAgsPwKPayV/NfbhmdaFhvZkZJOdnCeseIiZoRaClf+fEWAEGAFG4CpE4BkpxGNJogkv87MysskOE1zH4k4IfSc0tnoZiNswAowAI8AIMAJZh4DAe9DiRQj9InER2+q/KCN78SBlNQ0N2sVeCDRqiEoIXQmNSgBFtspwe0aAEWAEGAFGIE0ITECgD1r0Ceg+aLQJBwdHutvbr0Sf/wPnTy5efqI5nAAAAABJRU5ErkJggg==;" vertex="1" parent="1">
          <mxGeometry x="282" y="140" width="143" height="42.33" as="geometry" />
        </mxCell>
        <mxCell id="6fhHhT-RDIvyIf84DN0j-6" value="" style="shape=image;verticalLabelPosition=bottom;labelBackgroundColor=default;verticalAlign=top;aspect=fixed;imageAspect=0;image=data:image/png,iVBORw0KGgoAAAANSUhEUgAAAUwAAAFiCAYAAACdyOEZAAAAAXNSR0IArs4c6QAAIABJREFUeF7sfQd4XNWZ9nvvVM2od8lqtlzkXrDBBeNCs6kGQjMBQgghm0L2zyabkJBNsullE7IpuwRIgLAU04tNxwZT3AB32XKTZPXep8/9n+/ce6dpJM1IM6MZ6Zw8xo50y7nfOfe9X30/ATEckiQZbTbbGkmSikRRLJIkqRhAkfKH/p0aw+nwW3EJcAkkhgR6AJwFUEd/BEE463a76e86g8HwniAI1lg9hhDtG9lstgpJktYCuBLAZdG+H78+lwCXwKSTwDYArwiCsMNgMByL5tNHBTCtVusGSZLWAFgvCMK50XwAfm0uAS4BLgFVApIk7QHwriAI7xmNxtcjLZmIAqbFYlkN4OuCINwQ6Yny63EJcAlwCYQjAUmStgD4c1JS0s5wzhvu2IgAps1mmydJ0jcAfDlSE+PX4RLgEuASiJAE/iYIwp8MBsPhsV5vTIA5MDAwRRCEb9AfAKaxToafzyXAJcAlECUJDEiS9Cf6YzKZ6kd7j1EDps1mu1qSpP8CUD7am/PzuAS4BLgEYiyBU4Ig/JvBYHhpNPcdFWDabLYfSJL0s9HckJ/DJcAlwCUw3hIQBOE+g8Hw83DnETZgWiyWJwVBuCncG/HjuQS4BLgE4kkCkiQ9lZSUdHM4cwoLMK1W6yEA88K5AT+WS4BLgEsgjiVw2Gg0zg91fiEDptVqlUK9KD+OS4BLgEsgkSRgNBpDwsKQDrJarW8CuDiRBMDnyiXAJcAlEIYE3jIajZeMdPyIgGm1Wr8D4DcjXYj/nkuAS2BoCTQ0NOCBBx6ATqfDvHnzsHbtWqSnp3ORxZcE/t1oNP52uCkNC5g2m+1mSZKeiK9n4rPhEkg8CXzhC19AVVUVmziB5rnnnos77rgD5eXl0Ov1EIQRdZfEe+gEnLEgCJsNBsOTQ019yFWyWCxrBUHYnoDPzKfMJRB3ErjqqqvQ1tbmmRcBJGmYa9aswcaNGzF9+nQYjUYOnHGwcpIkrUtKStoRbCpBAZMqeERRfBfAzDiYP58Cl0DCS4AAs729PehzZGZm4sYbb8SqVauQn5/PgXP8V7vK7XavD1YRFBQwLRbLrwRB+O74z5vPgEtgYkhgOMCkJ9RqtZgzZw7Wr1+PlStXYsqUKRPjwRP0KSRJ+nVSUtL3Aqc/CDAVIo3dvDY8QVeaTzsuJTASYKqTJrP8ggsuYEGhWbNmMY2Tj3GRwIAgCOcFEnYMAkyr1foAZx0alwXiN53AEggVMFURZGRkYMWKFVi+fDn7YzabJ7B04vbR/mY0Gu/2nZ0fYBKfpSAI78ft9PnEuAQSVALhAiY9JgWGcnNzceGFFzLQrKio4MAZ4/WXJOkCXz7NQMB8mpP/xnhF+O0mhQRGA5iqYAwGA6ZNm4ZFixZh3bp1mD17NkRRnBRyG++HJBLipKSkG9V5eACT2koAeG28J8jvzyUwESUwFsBUtc2kpCSWt7lp0ybm5zSZOAVtjPbKRrXdhS9g/g7Av8VoAvw2XAKTSgJjBUxVWKRZUiCIEuHJVKcgER9Rl8B/GY3Gb7MPl3orq9W6H8DCqN+a34BLYBJKIFKAqWqby5Ytwz333IOpU6dOQmnG/JEPGI3GRR7AtNlsCyRJOhDzafAbcglMEglEEjBJZEVFRbjvvvswf37IzGSTRNLReUxBEBYaDIaDTMO02Wz/Toma0bkVvyqXAJdApAGTEtsJMBcsWMCFGwMJUCGPwWD4DQNMq9VKNeNrY3BffgsugUkpAQ6YCb/sO4xG4zpBkqQkm802kPCPwx+ASyCOJcABM44XJ8SpGQwGk2C1Wi8F8HqI5/DDuAS4BEYhAQ6YoxBa/J2yQbBYLHcKgvBQ/M2Nz4hLYOJIgANm4q+lJElfIsD8sSAIP0r8x+FPwCUQvxLggBm/axPqzCRJ+gmZ5KRd3hnqSfw4LgEugfAlwAEzfJnF4RkPE2CS/5L8mHxwCXAJREkCHDCjJNjYXvYNAszDAObG9r78blwCk0sCHDAnxHofIcDsBpA6IR6HPwSXQJxKgANmnC5MeNPqIcCUwjuHH80lwCUQrgQ4YIYrsfg8ngNmfK4Ln9UEkwAHzImxoBwwJ8Y68qeIcwlwwIzzBQpxehwwQxQUP4xLYCwS4IA5FunFz7kcMONnLfhMJrAEOGBOjMXlgDkx1pE/RZxLgANmnC9QiNPjgBmioPhhXAJjkQAHzLFIL37O5YAZP2vBZzKBJcABc2IsLgfMibGO/CniXAIcMON8gUKcHgfMEAXFD+MSGIsEOGCORXrxcy4HzPhZCz6TCSwBDpgTY3E5YE6MdeRPEecS4IAZ5wsU4vQ4YIYoKH4Yl8BYJMABcyzSi59zOWDGz1rwmUxgCXDAnBiLywFzYqwjf4o4lwAHzDhfoBCnxwEzREHxw7gExiIBDphjkV78nBv3gClJElwuFxwOB+jfNDQaDXQ6HURRjB9JJsBMJMkFl+SEW3LKchR00Ig6AEICzD7+pqjuR5qZIAwvQw6YwdeP3m23283ebXqf6d0eSZbjuRPiGjCtViuamprwzjvv4OWXX0ZbWxsT6Ny5c7F582YsWrQIZrOZA+cIO0iS3LC5elHb9R6Otb6K6vYP4JQGsLDgZszPvxlpxjLoNWYIgmY892JC3JtebNqX7e3t6OzsZHM2Go3Izc1FSkrKkHvx6quvZvs3UmPKlCm47777sGDBgkhdMmbXIRna7XZ0dHRg9+7dqKqqYqCZnZ2N888/H9OmTYNer4/ZfMK5UVwCpirM9957D88//zzq6uoGPVNOTg7Wrl2LdevWYfr06TCZTHH9ZQpnUSJ3rASHy4L2/ipUtjyNY+1PodfRCEkASFcX3TqYtZmYk3sTZuVcixzzfOg0psjdfoJdiayc2tpafPTRR3jttddQU1PDnjA1NRXr16/HZZddhtLSUrYXA60fDpjyZiCNsrm5Gbt27cKbb76JY8eOMetRHQSad911FxYvXoysrCz2MYqnEXeASRrlgQMH8Pbbb+PTTz9lX/PhRmFhIa655hosW7YMZWVlzFTnA3C57WgfOI767o9xtPl5NPbtgluwQRIkSGSCS2T6EGy6IEJEdtIcLC74F5SkX4AMUzkEcHeHuo+cTiezdCorK/HII4+gurp60BYjjYg0ozVr1mD58uVsL/pqSZMdMEmrJA37xIkT7N0mZWiod5usyHnz5uHSSy9lsszLy4ubVzouAJOE2dXVhVOnTuH111/Hhx9+iN7eXo/PciRpGQwGzJkzh2mbq1evZl8mEvpkHOSn7LM3oa57Fw40/h0NfbvgkAaYRgkGkASWAuDWk+MNEOQPEnng9GIKilMvwMKC25BnXoxkQwFEQTsZxciemcxE2pdHjhzBG2+8gb1796Kvr29YedAHm1xFF198MTOX8/PzmbZJH3Uy4yM1EskkJ2Ckjw3JkLTzUOVA7jayIi+88EL2ficnJ4+7FTnugGmz2XD69Gm8//772L59OxoaGpjaPtpx+eWXM21z/vz5zK80mQJDVkcnqjvfRk3nDpzpehfdjmq4GUgGGxoGnAKDUtI5lb8lIFlfiPKMDZiefRWKUlfAoKWmopMrMNTT08Ne8j179rCXnNxCtC9DDUikp6djyZIlbC8SiP7+97/HwMDAaLf1oPMSATBJM6ePzWeffcbebzK/1RGqHOk4+uhs3LiRyXPGjBkMOMdrjBtg0tebNiEJkr7cJMyRvt6hCokETMKlrzyp9uRTmsjD4epHU++nON35Oo63vIhuW7WsRIouWbMMOmSTW5DobzdEdiAz1tkQoUOOaS6mZlyKqZkXIz9lCbSapIksRvZs5D8nk5tAkvYmfczpZ+G+6OrxZO3QR7u1tTWisot3wCT/7r59+5ifkj48BJ6+I1TAVM8hX2Z5eTkuuOAC9odccVpt7K2fcQHM/v5+5sPYuXMn9u/fD/qaR3rQV52CQfSFJ5We/j0RR7flLI61PocTHS+jbeCg7EAXKAUrCW4tmeJDQWYwwCQ9UjleEiG4dTCIqchOnoGZuddgVs41MBsKQXrpRBwU9SaXEEVuydfW3d3NzPKxvOjRklO8Aia92xSD2Lp1Kw4ePMgi4b7pV6P98KjnZWZmsiwZMtVXrVrFMhNiOWIKmPSVoa/Nk08+iePHj7Ov7ljM75EERV8x8oNUVFQw3+bKlSs9PqWRzo333/dZ63Gq7XWc7HwTDf37MOBsBSQnBEkLCC5IkgGSSP5JBQAZxqk+TPq3Cnr0twSRVFI/cFUCQ/RzwQWzPhc5pgosLvwXlGVeDK0YX9HLsawXaZDkN6dgBL3k5LcMBMqxXD8a58YbYJJrTQ3WkhleX1/vF/2OpAwoPkFWJEXSSRki91tSUmysn5gBJuVa0VeH1HRKzYjlhiQBp6WlYdasWdi0aROWLl0ad+kKoW4oZn5378XRpqdwpmcHepzNcIG0SjmmI5vWgJslUpN2pGqYknwAA8bBGqKomOby2eoxsl9T/i+ggRsZhmkoTl2LOXk3oiBtObSiIdSpx+VxtBdfeOEFZn5TFDfQdIzLSQOIF8AkhYdca2Qx7tixA2fOnPFzYURTfhTspTgFKUI33HADA9Foj6gDJpk1JMgnnniCbciR0oSi+cDk86D8TfJvUnCIVPvx8IOM9hk7B05i39k/orb7XfTYm2GXrHD7ZP8MGd9hN1RhL/jdZcAMHApgqnmbrNJKglYwI0WXj7l5N2Be/heRaiwe7SON23lkOj722GMMKMnSsVgs4zaX0dw4HgCTZEha+SuvvIKzZ8+yoFYsFSFVbqRdlpSUsFxYSkWidzxaI2qASWYOVehQ4jk50SMZIRyLMMhMJ5CkZOPPf/7zuPbaa+MeNB3OPhxreBoH6h9Fo+swnIKFaYqSIMoJ6IpABgOmv/9tOLn5AibplJSvGWzIYSE5uq4TzcjWV2Bhzs2oKLgeRn32WJYmZue+9dZb2LJlC0tjI1MyEcd4AiaBIpnfTz31FHNhULB2PIDSd93ovSaNk6zIL33pS0wpisaIOGCSSUNq+TPPPMM0SzXyHW5ULBoPG+yaFMW88847ccUVV8Rl7mZD7z68dOwudNuq4IYbEsudJEVPA4HSghiwyeDmj3GKOa7+cAhTXJWJCpi+YMlOIXCUkzjZoRLBs0BpX/RH/p1eMKIkbR3OK/4WClOWQROHZjqZjmR+33///awgYrxf8LHu7/ECTArQPvfcc3j88cfH1VocTn4EnBRJ//rXv87KLSM5IgKYKkEGRRlJq3z22WdZPmXgFyCSE4/ktQjMKShEGifleVGEfTwBnqp0+m2N+PD0T3Gg8wm4RFVTJIAi7S64H3IQYApBNMxhfZiyx1IS3J78TfleogzQ5BMl050Ak4Gmd9C9TWIGZmZcg8VFX0WWeWZcEHvQB5zMRTIbKcWForbjubaR2rexBEz62JAmTtYiKUJqilS8y7GgoIAVDJCpTr7OSBSzjBkw6UtNm5BqQymoQ1Fw37w1dYPEu3BpnpSyQM5jAk8qx4pV5E2VkVtyoMdah6qWrTjU/BDaLFVwa92KRqlqeSpYDg7cRBIwvSa5D2CqVjoDSx+TXXAzTZPAXOs2Ice4AHMLbkB5zmXMvykIsS+zpJecKkooyEhBHYrcJtJeHAlYYwGYpAhRDOLQoUOM/IbSrXyDYonwTpP7jaLp1113Hau8IlfcWOY9JsAkoCQzh77c5BciJ/BQYyyTHGnzRPL39BUiAgWi4yK1PiMjI+rMKS63Df32VrT0fYYPa3+N5r4jcAlWZv4KTLv0IJVPBHs4wFTM9DFomIMBU2SAyObCrhscMFUzXSvoMTX9ciyacheyzDOQHKP8TQJKMhvJP0kvOeX6BvopE2UvDrevowmYpASRK41Sg8j8JhnS/w/Mp0wkOVLiO9XzX3TRRSguLh51meWoAJO+MlQBQRuS/JQqzVUkgWu8r0VfIkp6J22T8rwo8hYJld73uajue8DRhvqeXTje8hyqu96GxdUh+ymZcUyBHRWY1ERzX00zUEqBJjiBG11qrInmwVwA3nupqUyBs6H566Q0zMy9DIsK7kCWaQ6SdBlRW1qKdJOFQ5Fv2peRrq6J2sRHceFoASZlsVAMgvJSSREi0JxIQ42mE0lKIEFKKM85KsD8+OOPWUoGRcgm+iAzfcOGDbjxxhsj7kDuslTjSNM/Udn2FDqspxi4MRjywze19sY/+BK8tjtYVFxJVh/TQgUDTK+GKSrEzn4fAyUVCZKW+T6zTbMxM2sTFuffgWRj4ZhmE+xkKq2lqjGiXTt58mTErx9vF4wGYBLhzQcffIBt27axdztRclJHszbnnnsu0zYp8T0cCrmwAZOqIO69995JAZbqQlCk7bvf/S7OO++8iGmZxFN5pPFp7Kz+CaySzFFJwx2oDPrlRwYCV2Dqz9CV46PZVN5zhr+vL2B60uTV55CMMiOSpIVe1GNN4Y9wztRvjG06AWer0W9KdRnPPN+IPtQIF4s0YJIrgzgdiCRkommVQ4mSlKGvfvWrjNgj1BE2YJJviML10aj/DnXS43HcF77wBdx0000Rq10lUt/tJ+7D6e43IGlsHqXSA5geM9q3hNFX/VTTiRSzm341ZtN7KMn6AqbqH1Vrzqm6SE058k6BuRIYU7ERYCWaAjQQMdO0CZsW/zOiS/jnP/+Z+dqCBRsjeqM4ulikAZO0S8qrJL7PyTSoSui3v/1tyI8cNmASKcHXvva1YQM8Id89gQ4khzExQVMQKBKjvmsPth77F3Q4KiFQlFm5qBcwAyPLgf+fAIsi6L5apXKViAOnL2Cq9/Q1yWX7W/a5qlqyXIrpCRSx5CQtysxX4MZFT0VChJ5rfPOb35wQuZXhCCXSgElxiAcffBAvvfRSONNI+GPJNP/DH/4Q8nNwwAxRVBEHzO492Fr5FQUwvbRqYQFmYLRafZagZY4hPmjQwwIB099XKgd9BEiS4CnVVCvQffVjAVqUmq/ATRwwx7IY7FwOmGMWIbsAB8zIyHHQVSINmHUEmMe+gi57payJjUbDjGPADKxdlyFXi9LkK3DTQq5hjnWbcsAcqwTl8zlgRkaOMQVMubxxiOGjLTLvYWBQiEBzhLLHqIiE3Td4QjpjhAtC9sEBM3IrMZEBcyiPku9rwgolgohzUNB0BJFPWMCk+lDaJJRr19jYGLmdF+KVoqFhvnrsK+i2kw9zLICpUraF+CCROowDZqQkOarrcMDkgBl041BpE5U0UYSaeCyp4oDyxChpnoAzGJvzqHbgCCdFDTBtlRCGyvymOY2kYUbjYSNxTYUURFT555j7QIuSlMtx08KnI3EHzzXGI+hDuXvUQ5t69xDFGZUQxmov0oNPBMCk3jwrVqxg+ZD0nj/88MOsR7nDFdDOwreobAjNUt0Mk1LDpJIralFKPTxuvfVW5mfwTS6l0i2qDSaOTcq9IxCNJnM7LcZ4AaY7YdvdyrtcTTmSyykJMC/DTQu3JCRg0r6k/lAEVrfddhtrqUsgSXuRCjloL1IZZrT3YiIDJvU3ImuR3u3NmzczwFTbEdN7TCXW//jH39HT0wuH0yH3CBgGMMMFyMCNl/AmOTEFFRUVsZLE66+/nhFiDDeIEIBaXtCXiXLJokXbFXPAlERPErvs0yF/IaXpRCs5PaIY5ilX8q8C0qAkbQNuWvBMRG8WbQ2TgJKIWIiQ5fbbb2fN9QIH7T0qJ6SeQNR+JZw20aMRRiJqmCRD6t1O1TUXXXQxsrKCv9skP8qrpcqtlpYWOB2OAOpCWWIszTfArz88ifZgSScsYNJXhipqqP/OLbfcgpkzZ4bcIpdMc6odprIuqiWOBinseAGmuin8G48RcI7mNYvlOXJc3AuY9P8JMC9JKMAkbYjIWOjFIqAkzWg40gmqkiGXEZUPU+sGIs6OhqmeSIBJMiSqNWIN2nTNNZheXu7ZiC7JAWq7ohH0rCupus9JZqSxP/300zh2tBJdnZ2DSjVJu2R5vz4k2uqFQ30/EhIwidSCiC6uvPJKnHPOOaNmEmlqasKjjz7K1PpItxwYT8D0wpyaD5kImqYKmOrsSUMWUZJ2cUIAJlk6xKG4cOFCti9nz57NeFJDGfTBpnr27du3s484AWekQTNRAJNIa1Q/5Zw5c/woE23OXtT37UNj1x6YNOnIS12C3OR5nnbOJDMiUNm9axc+eH8nDh85gp7u7kHaJQFnYBggVMAkVjIqew51xEXiOpngVD1ETnTycYxlkCn005/+lJlHkRyxAkyv4qgk5jDmIt+hknDEu4qZuIBJ1g71sycWfgo0UnXXaPYl0R1Sf3P6Q+DJWiBHaCQCYFLjQepmcMkll/iVFBPva9vACZxsfx1HO19Ge+8h6Nxa5KUsQHnWRszK2YQ0YylEQcOkRW42+ug88cT/4fXXXofT4fSk1zELTGkAGI52SUEmonn7/ve/DwLyUEdcACaZOnfffTdT2yMxiLHmZz/7WSQu5blGrAAzGPlG4IaI6INF7WKJC5hE+0V9YciPHokmecS7QFkeFEmP1EgEwJw+fTr++te/slbXNIjOsMd6Fme7dqKy/WVU9+yEQ+qTyaeV4I4gaVCRfS3KMtaiOH010o1lHgLqbdu24g/334+B/gGPlhkoz1A0y8LCQmbRUh05KWnhjLgATGoNQRs0VJNnpAekQNC3vvWtkQ4L6/fjCZhhTTRuDg4ETNWHGf8mOWmVFEiiAEWkBu0f6poaqZGIgGmxt2H3mV+hqvNVdDjq/OoeVKCTfd4C60pakr4GF03/PQzaNCa2rdu2sp5M/QMyYKojFJCkY4njlrht165dy3zSo+n3ExeASWr7F7/4xUjtJUalzwEzYuIc5YVkV4K/b0mbEEEfDpijXPKA0wI1zB7LWbx88BY02z6Fg9pE+XibVNCjLBCBtUARYNYW4gtLPoZZnysD5mv+Gib9LFSwJKAk1wD5pMkFSIGo0QwOmCFKLeYa5pD0bvHuu/QXqAcw2c7WJEQeJgfMEF+KEQ4LBMxu61k8f+jzaLN+Bifl5Q6qbVSCmYKb5e+atfn4wpLdQwJmYH4mTccPhAUBZH5TYjy1m6FsB8rnHktrDQ6YIe6N2ANmMHo3lQMzxEmP52FqpY8fvidG4joHzMhsnGCA+ezhz6PdcgAuwRkEMGUWLBUIk3U5uGPx3qCAGahZqh9mNQZAOZ+UcUPvLWmXVFU0FqD0mP9WqzUslSUafJjcJPcuwdD0bmwrKX8SADiHBMz4L43kgBltwNwPd0CbZvmOvrSBEgPKLy7yAcxt23D/H+9nXLxeE94fdwVRxNSpU/HFL93JSqpTUlIiErjjgBnmnhh/DXOiAGb807txwAzz5Rji8GAa5nOHP482y2cKYKqKgqoIqIApk0+bdQX44iIfkzwIYPr6yClofMedX8Rll18+6lSwkZ6cm+QjSUj5fawAc9B0Ep18Y5BJzgEzxC037GGJGCXvttbiucOb0WY9ADccXtVQIaAmHzdpmaJEwEk+zGn4wjk7YNbnMFlse+11OUre1+uRDZnZ5JckbfKOO+5g5nc0BwfMEKXLATNEQXlsF9ltMChKnsIBM0xJBj08EQGz11aPVyq/iAbLR3C6fRiJGGCSz540TaKboZYtOmQlzcRNC96ASZfNZHDg4EH85S9/wZHDh1khAQElpX4RUFKDwkj4KEdaGw6YI0mIa5ghSijgsASmd+Mm+eiWPPCsQJOc6sbru3dhT/1/o7H3E9gcHXAzbVJ1N8mBTrM+HdlJM3H+1J+gIGUpREHLfk55rM888yw++uhjJCebsXLlCkbkkZ+fP6pKrNE8JQfMEKUWew1T5Sz37YoTVnwuxCeL7mGD04o24qaF8c1WRLl63/jGN1j9eCQGlfZt2rQJ7e3tkbgcu0YiaJiUxkMmNNWTq9qfBDf6bE041f4qKlufQWvfUVjdVAElwaBJQ5phKpYUfhmzsjfBoJMT1n0HtVGmP1SBRZFw4qGI5eCAGaK0Yw6YPvRuFDkXEp7ejYCfyDfin96NaNw+97nPMXYiohccy0vZ1dWFo0eP4sc//nFEO60mAmBSSeR1112H9evXo6S0FAa93vO2udx2tPQdwsnWbWge+AQSnCgwL8OMnKuQm7zQUw4Z4usZs8M4YIYo6vECzIlD76ayFcU/vRsBJAES1RuvW7eOkTOEWxlCbFmnT59mxBtvvvkmGhoaQtxpoR2WCICpPgn5F1edfz4WLliI0tISvxJoonbrszdAktxIM5ZBI46uAic0qY39KA6YIcpwPAHTO0VO7xZsuaJFIExpKgSWy5cvZ7XH5JMLhYzjzJkz2LlzJ/bs2cOIrSlvMNIjkQCTnp2Yi+bPX4AL16/DsnPPZWk/iTg4YIa4arECTE+GhSTIZV7K397KBvbDEGc9noclLluRr9TI90am5YwZM1iJHWmc9PIHDvJTEjv4J598gvfffx8HDx6MKut6ogEmyUuj0aKwMB+LFi3EihUrsXjxEkaIkUiDA2aIqxUrwOT0biEuiM9h0dIwA2dChMLUEYBo3wg81V40FIT47LPPQLSChw8fZtHcaPf1SUTAVOWp1xEXZRFWrTofa9etw9Sp0zyyDH/1Y3sGB8wQ5T2egBniFOPssMSldxtOkJT/p7KIU1AoKyuL9Z/Zt28fqD2F3W6PyTokMmBS/ocoAMnJKSguKcbll1+JdevX+5EMx0SIo7gJB8wQhcYBM0RBeQ5T6d18y9+op8+lCdGiYqSnpaRpiqBTrXJtbS1LdYl0G4rh5pDogCknzYHlT6amZ2DWrArGcE+kvqrmPtIajMfvOWCGKPWYA6ZPSaQ8RblrZGL4L2m+E6/NbrCtQj7OWAKlOoeJAZgEmzJ0ihoNjEkmXHzRhbj9tttYh854HBwwQ1wVDpghCko9LAhbkSBpUZJ6GW5M0L7kYUogqodPJMBk3R/lHqMswT0pyYBNV13N+gFRcno8DQ6YIa5GpAGzvnuCLMV5AAAgAElEQVQPtlb+CzrtlRBYUxNZIxtM7xasKVwCaJoBgCn3bdGiNOVyXL/o6RClHtphsQr6hDab2Bw1sQBTTZfzyo6As2LmDNx4442M/JfyYGNRKz7S6o07YJIQqD1FJFtUUMSSWlRE0gEfacBs7PkUrx//OlotnwE+nSHdKnh6TPIEBkyJWlRoAMEJQRKgkYhx/Sp8bvETI+3LsH7PATMscQU9uLOzEw8++CBeeumlsV9shCt4DXH5X262/wfRr0OQ3CzJnQoICB+oy6PJZIpZ3XhQF8x4EggTWJLjnBqgUX/gSA2qsvjP//xPljwcKf9SpAFzwNGKPXV/wL6GP8MpeZlbPHmYAcLwo+MfopfJoJSkSAl01NcRILpMgKYPoluAVtBjXvbduGj2r0d9xWAnUqtU6v8d7VSeiE56jBcrLy/H9773vbBaxA53S+po+fjjj+Ppp58eFzmO1BmVcIJSuegPEQSTqT4eGue4aZhUfkYsI5dddhkjJkhPTx/jFvKeTi/Op59+yr6YNTU16OvrG/O1Iw2YVEtb2/0edp39LzT0fQKH28LmKFGvkyDDwzDNDgr2PfYx58f8tBG6gCAxoCR3g0EyIde8ABdOvx+5qQsjdAP5Mq+//jqj/ero6IjodeP1YmSeUkT51ltvZSlOkRhOpxP79+/HQw89hJMnT4KUjliOkQBTnQvlwW7cuJHxX5aUlDCKt1iOmAMmpRFQ7trcuXNZCsGKFSuYlhnpQRvg1KlTeOutt/Dhhx+yWl762WhHpAGT5uGS7Gjs+QRH257BmY530W2rgRt2VuHjVlCR2H58wTKwl4lvzY9vA6jRPmekz9NChxzzXBSnnIfpmdegJPOCSN8CAwMDeOKJJ5iWSS1UJuqgskxSMohNifYjgcdYiEEC5UQurMrKSmzbto11XqUE/EhZaJFcEzLLqWSV8mDVdrmEK7EYMQVM+jISZZb6oJQ6EMkFDyYwMjXIp0kbgMrWGhsbQWVs4Y5oAKY8BwlWZzfOdGzHqbZtqO3Zjh5XExyUbiE6oXcJXu+Oj2bJwj6D3T7hPlbEj5cYopO/UotUXSGK01ZiXt4tKExbCZ0YvYgnveykIRHRxaFDh9g6TxQTnUxPtac2lWZScy9SOqIBEgSQVOK5d+9e7Nq1i8mUGJfiETgJPwgwib+UZBKL+vSYASZ9FYm1ZMmSJQw0QyExiOTbTE5tYo7ZsWMHjhw5gp6enrA2QfQA0/uU1Lf5bNcOHGx9Amf798Mm9UPvcvq1PlOPVlmMZOo3nzGEuR5JWQZeS8FI1sLKqZFgEDIxLXkVKrKuQknGBUgxFsMH9qM5FfZykzuG/Ncff/wxq+dO5EFJ3IsWLWIEIPTulJWV+bH9RPPZqHLpvffeY5r78ePHWXJ+PA7SuimSvmbNGsyaNSuqqUhRB8yCggK22Bs2bGBsL7H2OfguMC14XV0dq/elut9jx46FbKbHAjCZvim50Ny3HzXdH+OzpofRbTkut3lQUVH5NwGlN39NfkrfTnqq9qn+HWrD+3BfCLouzY/uo9GYkZW6GNPTN2J6+nrkmGZDI3o5EMO99miPJ82SXDBkVdALf+DAgYTUNomAl+rW165dywId4/HuENNSdXU1k+Hzzz/PNPd4HCQbCoSRrDZv3hy1KUYNMEmDvOSSSxi7CzG9ZGdnj0tUK5jkbDYb83WRxvnGG2+gqalpRAHHCjDVidhd/Wjo3YWTra/iZMur6HURn6LcI4fAySVQOoaiTiqOTBVT6Rg1Yh55wFRYlJRKHpqCzgWY9PmYmXs9ZuVci2xTBQzaFIX0eETRRuUAMiHpA0kvO1kV77zzTty+7MEEcNttt7F0GgJKCoiOR0TYd17kJyZXB2mbFBeIR82dZEQfmZ///OdME4/GiDhgkglBDtkrr7yS+RXGylgdjYema5Ifk6Lnzc3NeOaZZ9gLNZzJEWvAVLXNAUc72vuP4ZP6B1Dd+TYEVz9cghtOQQs3Uz1dTLOUmeC8hBdM+/Sx1YfXMIdPhKccSvqfqtGSn9ItUKMqASYxE/MyrsHM3GuQbZ4Hky4LghDbtgHD7RFaZ3q5qd77xRdfZKZ6NPgpI7FPyZ9PbivKGqHuh8nJyVHxU452riRLcnmcPXsWjzzyCPNvRjLXebTz8j2PcjV/97vfoaioKBKXG3SNiAEmoTs5YSmfkoI6lO5ASaeJMCgwRF/PV155hQWGgqVUjAdgqrIjM73X1oDazvdQ2fgEGvp3wwq7okVSW1JK/yWtUmQpRxQvDA8w2SdkyKVSAVM+yi0DswjkmRdhSd5XUJF1OQzatLgCysCHoZed/NbEU0nsQmRiOhyOuNmepBlRih21c4hFMHQsD07aOykaxND06quvMtdWPMiSrFj62JB2Hq1gckQAkxhbyPwmUCGEJ6AcbxMi3A1Bfi96oUjT3LJlC6Pq8h3jCZjyPCS4JScoMHSw6REcbH0MvY5mpuV5W9kqqRVkkqv/VLTMkX2YIwOmXO0oQCemYP2MX6A8ayOM2kxohMT4MJIUaZ1Jw3zhhRcYcEayMVm4e46OpxQZUjKuueYaBpTkykqUd4fS9Mid9fLLL7Nc2PGSJWni9LEhq5Y0y2iyHYUNmJSbdc8997CEcEproL7AVKmzatWquDIfRrN5VVOdvp5bt25lGic9L23gr33ta+yDQBt8vAcBZ1t/JfY1/AUn2l+EzUld92iIzK8pujVyuZlA2qD8m8GAOQxAMnwms1s28QVJZKBM15ibsxlryn8CsyF/vMUw5vuTefnss88y8zLWaTMEjBT1puTzefPmRfUlH7OgRrgAASf1LyLXFrHNR6JQJNQ5U8YNkXRQYDkWH5qwAZMehCJlFIEkqn4K6kzEQZuATA2qeiCmbaosoC9ZPA2X24Zjbc/hs4YH0Gw5BId7QJ6eywQJGgiCNRhSemnifKuKfOjkRIVGjgWWoEcSspGfNA/nFN2O6TlXQCPEPvIdTblTzuGTTz7JsicouBEt8KQXmnKRiTjj2muvZebjRBrkyqKsBPIVE4BGQ5YkQ4qIUyCZZEhZBLHMHhgVYE6kRZ4Iz2JxdGB37f043vkceh0tcLjlUlBREhnpBVMY/RLdSV10BX100iYF5hMVoNOYkGooweKCr2JO7g0waBOr/0o4a0tmOvnjyLSklCR62UdT4DDUPclMpBQ78u9feumlKCwsDGd6CXUs5Ty/++67zO1BylUk8jdVoKScS8q3JDfGeHBmcsBMqK04/GSb+w7hQOs/cLLtDRYkkuDw8W/K58rASf8lc91bWOkJqLtF6AQDMg3lKM+4lEW/c5Lnx33700gsI1kVlKdLfmwyLSmyHokoML3YVLhx+eWXs6qUyTDIV0wdM+kDRIFU6qQ52kExEfJNUgbBhRdeyPK5o+mnHG6eHDBHu4pxeh6RelS1v4pjrS+iqe9T9NrOQgJpk3JqkJxARBomASb5MSn/SAKZ4QJ0SNEXoShlOeblbmZVOvHeJzoay0CmJaXMkJZEZjppSeFGgcm/T6V6lA9IRBmkFYXb2zwazxbra5LcKOf573//O8uJbW1tDblYhPy8lG1DvBNU+EJpiuMFlKrcOGDGegfF6H52Zy8qW17E8bbn0NJ3AFZnm6c5LwWG3CKBpeTJ4UzSZCDffA5m5VyH6VkbYdbHZ4uAGImP3YbyN0k7UuvTydQMxb9J1GP0klMglEr2yIyc7INcHqS1ExEOyZQyUoYbBJQUFKNacdIsY1EnHsoaccAMRUoJeozTbWNJ76fbX8OptpfQbjkOh2SDywOYcsJ7aeoFmJZ2CUoy1iHHPA9a0ZCgTxz5aZNpSaY55Ry+/fbbOHr06JC+TQJKqsxZvHgxK9GbOXNmzDkTIi+ByF2RfMKkrW/fvh179uxhJntgxRAFVinyTcEc0soptzKeBgfMeFqNKM3F6uhAY88e1HRux+n2Heiw1sIpOJFuLkZ55jrMyb4BeeYF0EaRTShKjxazy5JpSaQt9KJTSW0gjRxVtBFI0h+K4FJucizSXGImgAjeiIJA5NOkMkuSJ5nqBKaUiULaJH1wyJURjy4MDpgR3AjxfCmqFqIyy7a+Kva3Gy6YDNnIM89BEpUzBmkRMB7PQ/O0uXqZX9UzBEqWT4oLfyqZlqQZkbZJObpU4EC+NXrZyQynAA8HypF3Drk2qMKOgmzk1yTApGonKnyJR6DkPsyR15QfESMJUD5pW99RNPZ+gj5HHRr798PldnhSn6i1RbqxHHmmhchPWYK0pKnQa1JiNLvBt6GXnapaKDhESdoEkpSTHK1yvHF7UH7jQRLgGibfFOMmgR5rPU62vYnGvl1osxxAj6MRTrcTVqlbDq4oaU8aiNAKZhiFNCTrMpBhmIo883moyLsOaUkl4zZ/fuPJJwEOmJNvzcf9iSnR/mT7NhzveAW1PbvhlPrhYq05HJAo0Z4i+M4U1m2S0p/UGnaROk8KDmiggR4ZyElaiMVFd2Ja9kXc/zruqzo5JsABc3Ksc1w8JeV/9lhrsKv29zjU8jhcgpNpkrIiqVLMEY2cG5C0kESWMcoGq2r3HCf/W2Sapx55SYtwXvE3MT33iqDtWuPi4fkkJoQEOGBOiGWM74cg2OuzN+Gt6v9AU/dO9FprGSkIS6UP0pjIt13w0G2HiUlZprXTuAXohQzMzbsZi4vuQoZpOgSiuuODSyDCEuCAGWGB8st5JUCsSnZXH5p69mJH3W9wxroTBodc4y5rjSMDJtM9gzIuyRqpTJ5M4EmkxSKS9dlYWfpDzMq+CkYtMZXHD5kx3xuJLwEOmIm/hnH3BJLkhtVJuZ/7cLDxUVR3vw0L+ljtOgM4hoByqaavhslMcZ8h+WmJdK5vU2HvgVTYKQ8ZOAVRh5LUc7G65PvIMlXAqM2AKGjjTk58QoknAQ6YibdmcTxjCVZHFzosx3G0+Wkca30aA64uxQ8pyZoi66Xh0S+9bEoCGe50DHVkl1VKNTeUGJQYIzwBrqJVyv+Sj5JbcyiAqdyAiOlMmhxUZF6NipzrkZeyiKUicVM9jrdPAkyNA2YCLFIiTFFmg69GVdsLONq6hZVhuiSnJ2gTrIe6r4ap9gnyY1BSTXd2shsCqad+fd8YfAYXjxJdJ+LjHNN8zM69CcWpFyDbXAG9lnhN47CpeyIs9CSfIwfMSb4Bxvr4xI5EjEht/UdxsvUFnOx6Df2uLpkEya1Tks+Dm9LBAFNRP5VpKb5OxU+p6pSyMimrq2p/9kHPoZj3ckqSCL0mGbmmJZiVczXKMy9BurGM+zfHuviT8HwOmJNw0SPzyBKszh6c7dyJ4y1PoXXgCDqtp+EQ7LLWR0jlNgKgip3h+wXJ+KcQz7G/ybfpNd9l01wFXfUXhMhqp8xgT+S9p9fHKcKsy0FZ6vmYkXU1pmauZ4Ehrm1GZkdMhqtwwJwMqxzhZ3RLLjT3HsCRlidR1/Uh2gYOyE3ahMBulQR8wbXLoaZEPkzZZ0k4JoOe6BYZoHpSjPzse9UxGnjF4UE63TgdxWnLUZH1OUzLujjCEuKXi7YEqI+VzdlDu85zqxRDEcQoZ0VwwIz2yk6w6/fZGvFp/QOo7XkPLX2HWZWO6g1kDJsKaKo/G7lbZaCAVA2S9D75ZfASH/v6HT13GELCQwOmireU3pSbNA/zcj+P0ozVyEyaCa0maYKt2MR4HHL99Nnq0d5/Ah39p9FuOYheZx0cgkv2zkhAgXkJzNoCFKUuZe1UMpKmRzw7ggPmxNhPUX8Ku7MHJ1q34ljLy6jr/QA2dzcgUl9vZhfL/kQFMH2TzcMBTBnIVK3UW0uuXsNrWst+Sf+4ja8mO7xW65vXSbM2aXOQaZyKWZmfw6Kiu6AVyZXARzxIgDTIHkstjjT/H2q630OvoxFWRz/s7i44YZMzKxR3jUGTCq1gglmfC72QjLLU1ZiXtxmZ5pkRexQOmBET5cS8EH3ZT7e9hmOtW1Dfuwf99ja4BAJKGi64KQzt03GS/dirJIYsFFlLoGsZAMGBJH065ud+HrWdH6LFcgBuySHnWFLOJQWT6G/R5lNSKbfdkAf5N4eOgg/6lQRoJBFJ2kwUpS7HooIvozhtFdc2Q1696BxodXbhQOPjqKx/DL3uegxI3RBghF5MRUHyImSap0Mjaj2A2TpwDE29u2F1dkJwa2HQmJCtr8D8gjtQkXdtRJr4ccCMzlon/FUJoHptjTja9BQONz+GXnstXHD4NU5TDWYvAMnBGrn6Rh6+ZY7DCoVASzAiU78A5TnrsKDg80jW5cHi7MSexgewv/0ROK0dENykWdKdfUsfKUczmAkeHDiDpjgpcyZiD7MuC8Wpq3HOlHuQn3IOz90ch91sc/XgjVP3oKpjKyS7DXqtCTnJSzAr61pMzVwLky4LokAfTm9A0CU50G9vwKHG/8OZ9jfQaa2BWwJS9LlYUnAX5hfejiR95piehgPmmMQ3MU8ecLRhf9PD+LTxQQzY2yFJDhkAJS/NsAw6cqBH/pW3VJGUzsAxJHAqQEX+xHMKvo7zSr/FCI19nfdOtxVN/Yewv/EhnGh/BTYntRH2muxyUrsCmH4Bo/AAk+Yswg1iRaL5pBrKsDD/y5hX8Hkk6bMm5mLH4VM5XVa8UnUXKjtegUuwI9NYhnXFP8b0zMsZkfTwxQcS3JIbFBQ60vQkdp/9HSyOTkDQYFbOjVgz9T6kGkff4pgDZhxumPGYEvmB3G4H2norsfP0z3DK8h6c0gADD5kpQ6ZZ89PrVLBkgKUYwwEapvosMmBStJvpnezHRJqhgx55qcuwdMo9mJqxnvVCH2pQVLSq7WXsa/gL2geOgaL1DLTpeqLSZ32sgMk6aNLj6iBJpMFoUZy+AueWfANFaSuYmR4v7PTjsU+ifU/qQ/Vs1V041vkstK5kZJtKcMWMv6LAvAgaUedJLgs2D7U+TP2d02XBmfY3safmv9E0cAB2rROri3+ApYVfhlGbNqpH4YA5KrFNrJPkZmlHZfO76VkMoBUuAkhGqSZX0whqik9Q7XHoiLQvxMp+SqrYAXSiCRmaaViSfyfmFN4MvTY1ZKEO2Fuxv/ZhnGh7FR32GtjETkiC3Ep4TIP5Mr217nIQS9ZeSQ7nTvlXzMy6FjnJc6DVmDhwjknYg0+mstrXT34X+7tfgCjZMMU4H5dN/yMKUs4B+dJ7bPUYcLQoJ6qmuHdDJmkzYNLlQq9N8YuON3Z9go/O/BZn+t+GVqvDhWW/wezc60cV3OOAGeFFT6TLOVwD6Le3oq7zI3xU/SP0OBo8uZS+2OPrkwz2fIGkGf7H+FfraGFARlIppmVuxJzcW5CTPHfUIuvoO4YPa/+IautH6LOeASTnqK9FJ6rEIASO7HWk7pqsf7tMGkLath6pWFH6bUzLugwZSdM4cfGYJO49mXo5Haz/J96t/U/0C+0oNM3BpWV/xJS0c9lBvbY6fFjzKxxs+qeSmaEFqEhCdMofdjeQbpyKwuRVmJu/GYVp50GvMXtuUN+1C+/X/BANPbuRpEnBNfNeREHqsrBnzwEzbJFNjBN6rfU40/EWjjY9j8be3XBhANSvXLXAfZ8yEDC9tL7yUb7134OlIweCKPncrM3GlJTlWFh0J4rTL4BG1I9ZmP32FrQMHMGe+j+joXcPbM4uZT5E4hGazqmmLanPyTRqJf7OPgaM9EPNmSLWdy3yzQuwqOBuFKeuQopxSlw0aBuzMMfxAh39x/FW1b+itm8X0k3luHzG/6DQB9BkwPwlDjY9JrNcubUsT9clupSPG7Hz0zqJSNXPxKqy72JOzvV+muax5mfwcc1P0W2pQUXuLdgw+y8h7hCvYDhgjuMmifWtGZGvrQEtfUdwovVlVLU/CwvlU/p4Jr3MPz6bxCfqLTMKqezo6jG+prBS2uiBHAkGbRqmpV6CfPMSzMi5HBmmGRF/dNKUP2t8BDUdb7G69n6hk2mHolvDXACq3zTYjT2AqUAsewIlvdT7rOTLZd5NmYcTApI0mZiWshozcq5GUfoqmPX5vD59VCsrYW/tf2NX3R8w4OzCpeW/xaIpd/ldSQbMn+Ng86OUx4BC87lIN5RBEijVTEKXvQoNA3vhkCzkHUdp2jpsmvUoknTeqDiZ9TtOfgdHm5+AS9Lg1nPeR1aYOZocMEe1wIl3EgVMWvoO4njbi6hq3Yo+51lI1CLC8yhqOGcwU7l/mhCr52HaqLeax7/qRtYANNCKekxJX4aClHNxXtG3YYhBp8fm7s9wpu0dVPW+gaaBvXC65fkKzMfpPwYl1Xsi7fLzyKa4GkpQfqYGrpSPiNYNpOoLWQR3es5VyE1exPL9OHFx6O8I5Vu+c/q7qGx7DiZNATbPfwHppumDAPODmp/hYPNjSNaW4uLy32F6zgZPNgVVnb1X8x842fkG25d55oXYMP1PzP/pO062vortp76FbnsDFud/AxfO/GXoE6XPpdVqDa/YN6zL84PHWwKUT9llqcWptldR1f4yWvoPwS4NyEESVY1ik1RBb2TAZJyVCr+GR8dUyS5ZozIjcowVKM1Yi9l51yLDOJ1pmbEapEnUd+/B0dYncLLrTXQ5GyEq7Sx85+AHmCr5h88BnlQqBo5ewJTBVD5QoCAWAL1gQLZ5HkrTL8Ls3BuQZZrJQTPEBa/t/gBvnv5/aB04ilVT7sWq0u9Cw3IsvaOHaZgyYKbrZmPDzD+iNPN8fzDs2IZnj97AfpahL8MFZT9iwR3fQelGrxz5Iqp73ka2cT5uX/p+WHm2HDBDXNREPIzM1KqWl1HTtR0NvR+j39HCknAkGCCJdrkrY2CVjl/ikAoKvonochDEC7YKjS8FSiQRJm0epmZcjIrsq5kPivIXWXVOjAcFEeglq+v9GDU9O3G64w3mjmBgxz4PCikxK7GkZ5KBz0uSJEOk+qiBHxRvXqknfZ8drBczUJJ2AYpSVqI882JkmWZx4Bxh7T+pfxAf1v8SVkc7bpr3KquyCtwzHsBseRTp+pnYMONPKM24wO/KVe2v4LnKm8E4UJNmYf2036As88JBd99X87/YefZHEAUBtyx8B9lhBB45YMb4RY7F7eyuftT17UJl0xbUdryHfmcz3LB7tUhJx1ragrRMRVXyrdYJNkdV/5ThUZSjky69knLjhlGThtL0tZiZfQ0KU5YixUCBkLEHdcYmL4mRGPfZG3Gi7WVUtZKGfRg2d5fcA4iIG9ypgKbHA5gyojKolDVI5q9UYJT5NWXw95plPrRzjFFJYBUoSZp05CXNw4K8O1GedXFYaVNje+bEO/utE/fi09YHkJs0G9fOfhJpxsG95hlg1v4ch5ofQZphGjZM/wuzYNTRMXACH9T8Ckfan2KpYaWpq3HZrIeQYiwaJJCajvfw0vHNsDs7cO2c51jGQ6iDA2aokkqQ45p792Nf819R0/cxBgYa4XJZh8lO9OZPhlzCKKMIC6KILj37J33xFxTeiunZGxgxr0Y0xJW0CMaIPKTP3owTLVtxpOVRFil1C1a4oYdbQxye3sYYvnXoXsCUH8k9nLYsU3R6WOE1kgZpumIUJM/G8tIfIydlflzJJV4ms7XyHhxo/wempa3DVRUPw6TLGTQ1GTB/gUNNj8KoTcX0jCuQYZymfNw0jJijaeAwrO4OZBpLcEHJjzEzZ1NQtiLy5z++/yJ0DhzCNXO3oDzrypBFwQEzZFHF94FU932k+RkcbX8crbYqONwOVklD5kko6dzD51L6PDvTvnTQwI10YwnmZG9GSfo65KXMh05LydyxN7/DWRm7sxcdA8dxpPExHG5+AjbY4BKdrAe67NOUG7PJbPAqJ6esRcq5AcM/n9e3K0Ck1Be3CB0MSDVMYdH0paVf94vchjP3iXosAebBjn9gampogEmtSnRCEjQwMDcQ7V27ewBOwQG9NhNrSu7Dwvzbhs2RfXTverRaP8La0l9jack3QxYtB8yQRRW/Bx5peg67Gv6EVsdRONEHuOhllaErWF03e/mVpmOhPJUfWQUFdVwGTMu6CLNzrmMtH8hBn0hRYepqaXf1oL77I3zS8Dec6HnTU/qpsr17DPKAYJCH3HgIwXkAkxGDmlltuiD2M18xlVXmmBdgceFdqMi+Nu408VD2QjSOYRpmxz8wLXW9omFmB9cwKXG9+RFmDYhuvZIy5mSA6dba4RZIQUhCaepKbJz+V6QlDTbt1Qs/uuditNh2YtPspzAje1PIj8UBM2RRxd+B/bYm7Dj1QxzveAE2DMhaEIt8a8nLOCJYsrI/ZQQDAlnhUuxMOlbSIFmbg3VFP8O8os1hJ/3GnwRlvfFI6zN4+9S3WGtgOcdS9lnSf8lVoWaW+s5/KJ5P348LY1ZiJCEkOwGS6CVELk1diwun/hrZ5jkRJ7mNTzkPPautld/AwfZHUJa+HlfPIpM8OGB+VP0rHGh+nAHk9IwLUZqyGloN+eMltA+cwadtf4PkEmDSpOKcgq9hVem9QSPg1CXg+cpbYHG24bo5T2N61uUhi4wDZsiiio8DiXCive8IjjU9g8r2Leh21HorbSSCSRrisGa4XPLnYmAQqIGqwOmteiHaNS2SdBmYmnol1pb/BKYJxtxDGku3pRYHGh7D8dZn0es4BTecpKgzrYXkpKYVqfIKBTAH7xgFMJnJLyJZm4uK7OswP/92loYkB8lCcaDEx16M1Cz21j2Aj+t+C0mw48a5ryAvecGgOn1KXCfA3N/yKKvuWVP8H1ha+FU/jsttVV/HgdaHmARL09bgmllPwajLGDTNU22v45WqL8El2XHzvG0oTFsa8qNwwAxZVON7IAGlxd6Khp5PcaD+QdR2vwunYPdHPE+K0Eh+NhkwBw3Fd0c/17ipXkLLSHXLMi7BgsI7kJ96DjTCeEe+o7cOlLPa0L0Le+t+j4a+fRhwdcMBB9wiIafyEaLqIV9mOT+107/n5VAzVT9GlNwvSBrkJS9h8p2asQ6phoKEcm9EYkGEAkMAACAASURBVDVOtL+KHWfuRZu1GhdN+y3OKfjSIK2bAPPj6l9if/PjcIrAmtLvY2nBv/gB5p6zv8OOmvvYlErS1mBTxWDAdLkdeKfqOzjUsgWp+mLctXx3WI/AATMsccX+YMqbtDq70dzzGQ41/hNVXa/B4epnbOfsUyrKtGuyxqOW7g2vpaiEEurrTUEO8nmSOekSJWglA1LFLGQnzcXCwi9havbFk4h9XAKx5lR3vovDzf+Hur7djOmbEckxsHTLjEZBtoIcZx9BQ1TO9QSW3HpIkhaSTofy9HVYVvhlFkxLSyqL/WYbpzsSX+VrVV/ByY4dyDSV4+b5L8Csz/ObjQyYP8f+1kfhEAWsKf4hlhX4a5hHm57A1qq74RYdTMMMBpgNXXvw+rG70WE7g7m5t2AjqycPfXDADF1WMT+SiHMbevfhdOfbONj4Twy4mvwyANmEfKp1iPR2qOGtAfcewZK13SJj4dFIAms3odGlIM+4DHOzrkF5zqWMWGKyjq7+U6hseQaVna+gzVEDq9QB0S0xwAw+VMD0B02v+a50wVSi8b6tNNSa9RRNIQpSFmJl2Q+QaZoJnQ/jzkReh711f8LHtX/BgLMZl0z7JZYUfSUIYP4CnzU/BqcGWFNCgOmvYdpdffjT+zPg0nZjSupyXDHrH0gzlnqu43Rb8OGp/2AEHnaXHZfPfgAVeXJlUKiDA2aokorhcVTa12k5iXoyDxv/glZrpefug31nXk6e8AFTqZWWBGgFDbKSZqIsYwPjfJyStiSGTxy/t6KKoerO7ajt/QiH259m+ZtyOChwDK1Z+pF7+Gmn3nPUrAUy96mMszBtOWZmXoMpaStZtRBxPE7kUdO5A++euRfNlkPINszGtXOeRKZPPblHw2x+HA6NxFKHAjVMAsy/7pgJl64LaaaZWD/tV5iWucEjttOtr+Hj6p+gxXIUWUnz8bmFz8MUoMmOJGMOmCNJKMa/bx84gabeT1DV+gLO9nyAATeR43onMVSwgY4IBMxQadiSDQUoSV+DisxNKEtbN+FfztEsKWn7R1u34ETHNtR17YbF1cZgUw4CEYMTwai/rR7Yk52x1/sM3/VRKfLk+nXZx6ITUxjDExF7VGRfg9Sk4tFMPSHOcUtOfFz7X9jV8Ac43HYsyrkFF5b/2sPAP2BvxsHGR3Cy/TXmw1xUcAfmZH/Oj/OSGNaf/eQ6uLR90OuzMD/3dlTkyilD1J53+4nv42zXDmj1Glw0/b9ZzX+4gwNmuBKL0vH0Qp7t+ggHm/+Jxr696LbVQoJzUPPDUAFT1VjkNCNKwiYyA2I7J7NQNg31SEF+yiLMLbiV+XxS9FP8eulE6VET9rIUFOq0VKOuezdOdm5Ddde7EO39LM3FKWoZg5PaW0gGS/lPIOMRS1lS8mA9QOkDprLFzuCYRYvNmhxMTb0IJZlrUZa+GqlGAs6JF03vspzBWyf/Dae73wW1zF1V/P9YTyW91gyX24Zuaw367VTmS2TBpUgxFPoFh8gaqO/cDYm1KxGRrC9EuqmM0f3tq/sfHG/bCiobXlJ4G84v+wGM2sER9JE2JwfMkSQU5d+TX6W17zBOdLyGU8TlaDkCl2QdsktsqICpBnZUtnDKzZTrVOSKluLUCzBLqfvOTVk46XMBw1tmCW39x3Cy7VWcbX4NzZYDGBDkNCTqLSSvkZp/STJXwE2t21cBk0g/fKrWZZwMDoRUL5Ssy8fU9LWYk3MTYxQfrv9ReM8TP0dXd7yJ16ruQp+9E2ZDJhbm3omZOZ9DTvLssCdJIEvsXJ81/g3H21+FzWVFefolWDftJzKb1Cg+Ohwww16GyJ1AuX9Hm7bgdNc7aLEcg83VBYBIMWT6tGAjHMCU2cIVXYQCQpKAdEMRZmZchTm5NyLHPHcSRb8jt24yHFJ9ejc6+07gTOfrONj2FDps1XJpJbsVxczl1C01d1Mtq2Sp8Yzd3tcXqrI+DR24k2nkzMjSV2Bm9nWs3WxWSsWoetNEVhqRuxopEFUtz+P9U99Dn6sLBm0OitPWYlHBbchNnguTfnCdebC7U734ibZXsL/lH2gZOAybs5fVn68s/jcUpCxWWvSGP28OmOHLbMxnkHP6TNubONL0DBr69mDA3QEXvVySEQLlVlKvkrECJtG4iQpvJQCTJh+zsjZhdvbVyDbNZdUUw7crHfNjTooLUJklVQg19O7Fvvr/YWY60xTV1r8st5XcIhoPQA4GTJVYjrT/4QGTpSNJWiRpMpCqz8eykm9hRs5VEww0rTjd+irervoO+tACUWNCir4ARamrWLJ6XvLQJCakVZ7peAdHmp5FY99u9DjPUiMLTEvfgFXF30NB6qJRgyVbV04gHLv3mhzbBJT76x9E88AnsLh64QTVwKrpQTLd/nDtFIbSOmV89TYck31kbogaPfLNy7C08OuYmrEWek0yN7+jsOQuyQGrowPNfZ/hYMPDqOl6B3Zql0Dtesmn5soAxB5mPcjMUF4NczirQZ1qME4A1iZDm42itNU4p/Bulkojiv7Eu1F41JhckjJFui1ncLD+H/ik9SE4JBurhDKJRUjVFaMwbQFMBrlXvJql5XY7cbzldfS7TsPq7IUkOWEWi7Co8HbMz795kM9zNA/CAXM0UhvFOV2Wauyve5iZ4DapkZXekfPaJVvKnhHKyxN4e+/LRBeTTUABVPddggWFt2PhlNtZiZgokB+Tj2hKgAIPfbZG7K25H6c6t6Lb3gK3IPeZUQsFVMAMrS5Inm0wwGQN66jIUjJCKxowM+sSnF/2Y0axNzGGBDKtq9u343DT/6FxYDcGHO0QiN+A9jL72/uk5PJwua3so2QU0lCSshoL8u/EtKz1rKd5JAJlHDCjurMkkMm2q/p+fNr0R/Tbe2XtUXCCKKpYtxna9GMETLXUjhhx6FJGGFCQch6WFn8HZdnrovqE/OJDS6DbUo33z/wQJ1pfh0tyA6LMuzm4M6caUR/6WkMDJu0imT2eWKTSkoqwJP9LmJO/GSZ9bkRAIh7WmDTOVupJ1fIcTnS8gi478ZnKM5P3v9wxsiBlKcrSL8WsnKuQkTQj4koCB8wo7AYCSXJe13Rsx6Gzj+LUwEdwSEo5I4uZUmtQObVntIApaxdK6olE1ScCDDAh2zQbl876M9KSyidNlUgUljBil6RUJMqrfe3IN9HvrGG8jYyOTGnf62NbDHtPX8CU114ZRLgipTDWeFabLtihEw0oTbkAS6f8GwrSlkGnSYp7ntJQBU57nrROp0tm5/IbggCjNi2qveI5YIa6UiEcR4tJC9nefwyVzU+jsmULet1tcIlqbYiSE8nyIenfozcSmKeTuSx1MCEJmfopmJV5Pc6b+u88mBPCWsX6EALOT2sfxPHWp9FuqYINPXCxRnQBMxki6OONtPt+ZBXNVOlLpGqajBtA0sAoZKIi9zrML7gFGUnlMGrTJ4zGGev1U+/HATMikpfgcA2AEm/rej7AwYZ/oLX/CAM0lpsX8FIwY9yn66JKnsFipWrKXpB5qbEh+puuK4hmZBrKMTPjEsylToXJcyaMJhGRZYmzi5Dl0WU5hf1n/4ba3h3osJ/yaEqMd5NtAG+U3HfbqL5txkusaJhq/fkgc525ZlQiFhfSjFOwOP9uzMi6Csn6fBb4i3dm/DhbOs90OGCOcWVkJ38Dqru242jL02jo2w27i9rYKs2ygqYHeYl76fbEKxt4mMzB6OXaUJm8GVOOpIHZWIgp6StRkXU9yjLWTsgk5jEuTdyeTiV8Db17cLj5MVR3vA2Low0uMtMZ37D3C0s15b6D6ZMKsHpdMsGIohl9tGqzs2wJoy4dU1KWg4iLp2dciizm36NAFB/hSIADZjjSCti+VKZV17ULNZ3v4GT3G+ix1yl+RepIONyFfZnO/YFRPZFeCOKkJO2BNAmiXSOgTBXzWUBnWvZGTM26EGZDHtcWRr2G43miBMqcONX2GmuVcbZvF3qdLQpjPuVaEuRRJZAPaCp+a48PU1E7B1cHySEQlTVerTqiK+nFFExPuxQLcjejKHV5UILd8ZRKvN+bA+YoVoj4KJv69uN4+4s41foauq11cudBD0jKjbSGGmpriOApRN5cSkbiqxIxGLKQY1zEar5n51+PtCQvbdUoHoGfEkcS6LHW4VjrC6hqfwmNfQcZEzgFBemPf3M6mZRjMFdSsGT3QF+QchZLfBeQY6xAWfpaTM28FCXpK6HVmOJIIvE7FQ6YYa4NReg+qf8rTnW9wXpcO6QBb29Vr6djBOe6v0nuPwUvYJKeoIGEFF0hFhV+FSXpaxmxbJIuM8xZ88PjXQJ2Vy8ae/ahqvVVVHdsR7ftJANL9nH1RMUDyynVp/IHTO+HWP1oD/54y35zATlm6p1+B2blyv5NPoaXAAfMMHZIc89+HGx+DEfbXsKAq1XWIjV2wE2+IF8QHOLr7rlXYA2xn3tfTj5XqDJm51yLWVlXozRjvRLlDGPC/NCEkgC1Iem3N6Gl9zBOtr+CQ02PKAxISgoZ68UUjItzKMCkxw8SdVRq4eXUNgEp+lKUZ16M84r+Ve71zceQEuCAGeLmaOr5BDur/xN1vR/C6rYx5yJjSqPUEIl8lkMBppL64bvRAzPVmZnk7TCogQ555nOwvOQ7yDXPVUq6JkbJW4jintSHsUCivRm1nTtwpGkLGnr2wYEe1pbELbrkwI+fhLxWie+P2ZZjPJ3B3EOsbEKpbxegF5MxM/NKrC75IdKTpk5q+Q/38BwwQ9gaHQMnseP0vTjT9SZcsCksh8M1GvP9qpNJFaySw1viQ2BJAR3SWCnxfF7+zSjP2shy5zhBRggLNEEPoeqWXmsdqC3soaaH0di7h2mYFABUq1zkRx8MmGoKmkz0MRRgEqB6P/REWFyReT1WlnwbGUlc0wy2rThgjvCykc9yV91vsb/xIVic3SFmmgcCZjCfpQqYCvuMmIrFBV/GvPzNSDYUQqcx8iTjCQqE4T2WBKfbhs6BKhxtehLHWp9Dl6OBaZoK8aYMmAqHQGCskQg66EPs1UrVj7d/LhsrhBA00AlpWJJ3K2P2odbKfPhLgAPmCDvidMeb2F7zA8apN1zkO0CsPmBHG9MHMOViH+X3IrTuZExLvwTLiu9GQeo50IkcKPlLOlgCFBsn6rKzXR9iZ80vUN//sUJSrDK6i0Q9ATcRRfvstyEB08+FJJv4LmjhEnRI1xdibfH3MD/3pjFRoU3EdeSAOcyqUp7ce6fuxfHOF1lSsa8vKGxWIcaurVZfSIw9Jd0wEyuLvo15uTdOxL3FnylKEqC0o31nH8D+xofR56iFC0QjR350F9zuNEDsY1yobPj0mldbZvgCqm+Cu1vm42f/nZJ8LtaX/QLFaSui9BSJeVkOmEOsG9X+Hml6DB/X/Bzdjka4yHk+FlYhpaUtASWlb1TkXI9FeXcinfWfHjbLPTF3Fp911CVAjb3Odu3Evvr/Qp+tCXahn2VvymlI3pQir2WkBiC9Fo8vYPruQ4OQiQun/goL8m+GwCuCPGvJAXOIbd1jrcEHp3+GytYtDCypdI3VMCrxycCOgCO9HVSxY9bmoDR9Lebm34ai1BW8nHEkofHfhySBky1bUdv9Fk60b0WPsxlOpXme9zNMQUWmbirmujfG7gVM+VaelsASMCfzOqye+mOkm8pDmsdkOIgD5hCrTF/u7ae+j6b+TyFBDzelD4kO75dGpXkOcj7bhHJOB2ONSdFksfy2GdmbMC//Fl6ONhnerBg/I7H5n2x7Cfsb/xdNA5WsPbNL1jdlvkjVPPLL2BiccuQLmKlCPi6Z9d+sDJdrmcoHhbeoCL6zjzY/j7dPfRsWV4vSb1pOD1K/2r58hIOuwHIqBdYzeUryeZiVvhEz8zbBZOCVFDHGkUl3u86BEzje+iLO9L6FxoGDsDq7FIJdlQaLTHa3hxXJD0cVaTGQdQvQwYhVZfdh4ZQ7WdtbPnhPn6B7gJqU7T37P9h59heQBNIq1X7ePpkcjIpLblyrDpX53CCmIcs0G0Vp5yndGefzLzR/22ImAfK/t/YdQmX7czjV+SY6rSfgcFtZcYQMmzLxtMx+pHarVDQo1XJn6UgaLC36Js4r/iZrmscHB8yge6DLWo2d1T/FobanlTa1pFl6/Zd0kspBSJFF5vtRTB+jJgWzsj7HgJL6fRu09GXmQR3+ssVWAkTpZnG0o75nFw62PMZaObtcNsaCJO9Ged8y37zCzaruYQ90SiKWFn0Dy4u/xQFT1b65ST54I3dYTuK96h+hsuNFpcu03MlRbpcqbzevae7jWpeAGVlXYHXpj5FlruC0a7HFCH63IBIgbfNs90d4r/YnaOjZ7dNMTd63gbXp7KesEwCF2jWoyLkBa6b+B9KMxVy+vM1u8D2gAuax9hflznRKMaQcGR9eWzxvyr/i/JIf8H46/PWKGwn02urxdvX3cLz1hUHdJ/1LLL1mOQsSSSJyTctwWcWfkJs8O26eZzwnwqPkQaQ/GDDJd6mWlA0K+/hdgQPmeG5nfu9gEpAB814cbyHAVMKVagxIOWFQSaVCCJNumIur5jyA/JT5XLhcwwxVw/QFzOH3DQdM/l7FmwQ8GiYBpmovDWkoyUntpGFS0CfdOAdXzf4b8lMWxNtjjct8uIY5gobJfDmKSU75GeoXWg32BJ7OAXNc9rHfTSngYXf2wOGyeH4ejEVS/aWnJkbQwKBNiWqb1vGQDgHmO9XfxfGW51lWh29jSv8SXyWwSelzCmBmGObiytkPcsBUFo4DZqiAycgKvA2nPL6fgLaoHDBjBwn9thb02xrggp190k51vItOyym4JCta+j9Fr/UsS5uhumpPV0af6amZDqwtrRsMKLNM85BmmMZc1YWp5yAveRE0gpZ9M826HKQmlSZcMI8A810FMF2CyGQRSE4oA6eXAUlOdheRYZiHq2Y/hDyuYcqaN4+SD37BfX2Y/hqmN+GXGlTRCNQ0Ew0wKYpK7V/DGRrREM7hYz6WmHrcbgeIkdzm7EL7QCWONz+L2q7t6HPUweE2wqlxwCU4mT3Aygbk9jdKXxyZqTzQT+cLmCozOd2LgazayhZUVihC4xZg0mYhzTAV5VnrMTVtPXJTFkAUtKz7Iv09UkBwzIIY5QVUDbOq5Xm2X4O1Ph8MmPQREZFpmIsr5nDA9FgjHDCHB0yKknsCPrSrlLduIgAmcX0eadyCfudZuUJesU1V9jkybSW3L+8igZEJSwruhtmQO8rXN7TT2L0lN6iIoNtSi9Ot29A8cAh1Pbthp7I/iVoZy1kLRGkmf9jUwgKVZEL2PbtF6o0zuHmYaooTMKickn6zI9BU2X5Yn2PiE6BCBgF6pCFZPwVF6cuRlzwfJelrYNYXQCeaGBNVPIGnFzBflLOJg3Bfe/e4rw9T1TAf5BomN8mHfnGHj5IP/8InjoYpYW/1/Xj/zC/gEnsVtSyg9QEjvgmIDkgippquxfVL/hka8o3iKKfbijZLJXqsZ3G6811UNr8Au7vND/S8FSteVh52K6ZVqvP2YbpXaqjl6hZlUj7IwdoZy5A7+JnVC6u+bI+6oZ4kIM04DeUZGzEl9VzkmOezZnU6MWkUTx/5U2TA/B6qWl7wAKbXdxloXciquezDlAGT+zC9a8JN8iD7c2jA9D04eBghUQDT4RrAS4euR3XXB3CTKeujhXkJjoMIRxKQjgX4yvm7Iv5mO10D6LadRUPfPuxp+iOaew8PmfU6Eh+pam57J6kgqdqujsXyBoeKVcLdwQ8XACwBBLwMqyUBGo0RBcnLsCD3VhSnrZS1znFuYSsDppxWxD4YrMe9+oTBAFPlJtaAgj5X8aCPZztwwJykgNlvb8Fj+1ag194KQAdBY2EtXWXfnbff0GDxEGDOjzhgEp9jTecboGKB6r49sEhdLAZBbYaDjXAB0/cqw7SMl/XLgANkY17VP9U8xsEmvpfIQoBZk836fpekrcHUzA1IMRZF/AMT6gW9aUVUueatH5fPH8p/rWqYBJg8rchjVHAf5uBtF6zSR/XxBCuJ9L1ComiYBJiPfrIMvfZO2d9G7YJZwENtSRhg6vo8ZLowH19ZFRkN0+m2oK3vCEt5Oda+Bd2uejigZXR6BIqaIfKBwgHMwV0Wh4YaX8BUA0C+jgpWHqt4KFnkXYFSX2mxDqBUsy1IjAN1WsYVWFp0D3LM41Mt4wXM59kHwf97MDxgphvn4uoKDpgcMIf5PAePksv0bh7SjUHAIl8wkQDzkU+XodfRLE9cDQT4RQRkb6DfkIB0cV5EAJOCTtUdb+JI06Oo690Ni9QrR7M9N1TZdYLoucMlVvqQo6g+y2BaZTDQ9QNMNhc5YOQJiCn3pX3gUgFTJjn31GB7NVSl0ZgkoDzjCtbkrix9NbSsb1PshgyYch4ma0Dht6QcMMNZCW6SB5HWcIDpT/fvT++WaID598+Wsf7XTGMaBJhBwFKRVbowB19ZtSecfTbo2D5bM440P4HKln+i03KCsYTLYOl9m4O3h5UvFaqGqQKmmjfrixWhAKabuSl8Gj4MBZgqYQUz6eU5kotDHRK0yE4+B8ty78T8vBtiCpocMMe0Vf1O5oAZMmAq9P6KBpboaUV99hYQYPYHBcyhwZLENVbAHLC34ZP6h3Gg+SFYHHUyuEgGSIKL/fGAzDA8J2EDplITGCnApPurJrlKj+aJzwcFTAJQHXIM5Ti38OtYkH97zDoyegHzhfBNcsM8XM18mLyWnH2ouQ9zMGIGj5KHltydKCb5IMD0qJi+8ggOnGMBTPJZVrY8j+3V92LA2QaRpa+Qpk5dDynBPI4B08cNwPyUQQLtwwE5S+UUKFVnKpZNuQeL8r4QE9D0AqYa9AlN42K15IY5HDB9xMUBcwQNU6Z3m3jkG2MDzNn4yqq9ob11PkdRpU5d9068efIetFtPyjmPKmAqqh+ZwHGpYQb4TIMB5kharyeKDhEFyUuwtvSnKE1fE7Ycwz1h+Cj5EFdT2Yoo6DObsxWpUuKAGTJgBh4YXOOcWBpm8JdJ1jD3hfvewubsxiuVX8Dp7jdAwKgSPAySrMdulmUcrO/MSDdXg3MeH+ZYTfIhAHOkefj+3jfYooEe5RmXYXXpfcg1zwnnMmEf66V3Iw1TLv0ccXgS1+fgqjncJOeAOcyOmQyVPqFpmMGFlCrOwVdXhgeYFG3+pPZ/sb3623AL1E9GA8FtgCBYPBEcuXzR+zIP5mj0zsf7u0ALQI6sy5ggQJJ0gGRm9YBqJNuz+T3ZlRIgOiGJvd4Oi8w9QH/cSqI3y2D0TEAm2CU3QmiuGl/gly9CJZsaLMn/KtYUfQ8mXeaIGDbaA0LXMH3yTX00TJ6H6ZU81zBH0DADyTcCe/kEnj4ZNMwUzRx8bUV4gNnYsw9bDl8Gm9OqJMdTtYkIQWGBUsHSN7Ks5joNUoiYM1D2B2phhggdI8BI05dBg1TMyt8AnVYPs64ApWmrlb5Kw8ON3dmH6va3YHV1os/ajPruvehx1GNAaoITFrhdejjRAwkOwK2RE75dJkD0Av5IgDYotUkCa7m8ruwXmJ97MzSCfqRLjOr3w0fJfS/pS+9GHx2q9CG2Il5LzjXMEDVMD2AqL7aakpfo9G5j0TDDBUxJcuGjmt/gg/pfQGJEF7KG5Q0pkZlIFGz+JBnqx0kkYPWmQkIU9DDoUpFjnsvyGzOSyqETUlGSsSKipBdWZyc6LFWgfNE+aweq2l5CU/8e2J0W2CVqX0tPIOda+tWoD7G3hqowWlrwVaws+g7M+rxRAeJIJ4UOmIH0bhrGVnQlp3fzWhY8Sj54u00GerdYAman5SSeObwBnfYGSEw7UwBT6VYom6uy+etP/yGbwcQmROCpJa4kXS4KU1egNOMiTMu6FMmGgoiC5HDgQ9RyZzreQX3fh6jp3I7u/lNwS06mMbMkdoU9aahrDAWYGYbpuLDsl5iWeYnCdDQSBIb3+9EBpkzvxgiEOb0bB8zhtlygDzMYvZtaIuebaE3X5Cb5YMnuPftHvF/zXfz/9r4DTI7qSvev6jw5B80o5wgIhBAmY5OjARtwwDbvYZweu+uwxrsPZ693/dbetb1rwMaZNcYYm2gMyMYSIBACCaEcRqPR5Nw9M5276n3n3qrqqp6O0z1Bmlv7acfMVN1769Stv078TwwOKLqmaGR3a/BpMs2NshrFCUkKQVZtlHSEKucinN50N1bW3waXozIFq1BuYDKRs4mbs2d0J3a0/gCdvq3wKwOIMA2ZUqKScKfpn4hUeaWqhDXVt+LChV9F2STUnKdPK7JU2Rs+WTNbkTDJ47tE+DCTvDEi6JMeRspsq/DJLH2YBC5P7f8wjgw+hRjViCMar8I0IuDxYAP3YVItNr27HkjyGGyqA5XueTir6R6sqr8dDlvJRHCu4NcEI4PY3f5THBl8Al3+3YhIkWQESJnnVYFa5wpcs+LHqC9bX/APgbmnz3iSJkHvlvkBCcBMK6PZQO+Wj0meS5Q8GBnCwzvPx3CojQGmijDv725pxmXVcnhJJOdkJN2yvmgNTmu8EyvrboVzhoClvoGIJu9o/zN47cS/oSewj/f5TlOhlHTjqYATRbh8yfewou6WgpdNmrtGZsVWxCsJtKCPoHczPzOhYeakYZpPTp7LNhtM8lwA89jgi3hq/4cQUXxQlBKo8phBKZYxUCIBLrkYm5o+jzObPj3tvJKpvrKkab7d9RDe6Pw+RqMDWWuZZq8ENdc7s/FunDf//8Jd4BSjfOjdBFuR9akLwMwCMM0+zPgmT65GzArAzMEk397+n3il7auIKQEoahFUmPIumeyTy5ERXkhAjWsFrl/2S9TO6FpmFQNjB7Cl9Ss4OPR0xsRwc5pUnOVIRU3ROly9/EHUlawtaKO1vGrJBb2bBSEEYGYAzMS0Igu9G7MrrS/8bADMXNKKntr/cRwaephFk1kDLgthbWqiYp5qacPq6ltwT1/XAQAAIABJREFU1bL7YZMnJ0cxF/9VunNjShhHB5/H1ravo8//Tlot0wKYeksNlZLnPbh+xc+xpPoqralaYVYn2IoKI0f2eRdpReOFmT6tiGcPElsRD1VYo6ICMK3y/Nkbl6I/sg1QKYpMlTdmV0Y6wFRZIvc1Sx7AqrpbC7fjJ3Ekf6Qff235Ivb2PYKYQSKS6LrR6udN1Ujc7akgKtlx3fKfYkXtDQUl5RCAWbiHLgAzWw2Th22NlnunHL1bUrai5BstFw3zodcvwGCUiDpIt2SVzKZBMwCmzYGblv+WNRc7GQ7qcrmz8wFsO/Ed+KJdKUk7WYWT0QpYK+1kgCnhgvlfxtnN9xQ08JOXSS7o3YRJnunlE2lF6SWUE2C+diGGY9tZywZFskGlREztSBf0IR+mza4BZsXJAZh0W97ACbxw5LM46n0OMSk8zjSPB9F5zxyW70gZAZKCmKxiafm1uGbFT+GylWbapln/fcL0booNFW5B72YWtNAwswj6MN8FMyUzs7zMBpM8lyj5Q69dhOHY60x0jHQjF8CUnLhpxW+wuOqqrMFhJpz4yrFvY0fnj+BX+1hP9MSD+8FNgKkRXUQdESwpuwLXrfh5VvXv2d5r+rSiFKMIerekghGAmTVgJp44e+ndpgYwyU/sxEXz7mMmKhFtnCwHpVK9cOyz6A8dHB/8odiOBTDjWmbEHsWS0stw/cpfwmUvL9jtTgww9TxMQe8mNMwMW1EwrqcXUC6A+cs3LkdfeKsW9EkwyfUGlUmm0/vo1LvPwI2rfo0Kz6KCAchkD9Q18gaePfpp9IztZlMlJk6xKDkzxen/qKqJgmE2KLYw5hStw82r/4BiV0PBlpm+0sc8jYnejdat2FDpJvIN0TVSl5LQMDNomKnp3ZK3b5gNJnkuPswXDn8Wu/seREyNMH6ibIM+WgtGOKVirG/8OM6a82mNaKNgODJpAw35W7Dl+L/i+PBmKGrQCph6IRADTA6mBFMxyQ6bJGNd3W04d+GXCpqknz35Bu+MyquszJU+P0F96bpJk9fJNLAAzKwBk28mo2uklkynWtrSCvKNRHG+1fEj/O3EvQgrQY3QN7souTGOChTZKrC27g6srr8dFUULZ1x5ZLIXftB/FEf7n0c4OpLcF2bSPPX0NKfNgxX1N6DUPaegDEzZA6aV3o1ITxhbkaB3M56hAMysAVOkFemiykXDbPe+gsf2X4eg4teandEoOmimTisyPxby+TnlEjSWnIPFVZehoWQ9qktWwFPgEsKTSdPJZa3p04rMI5kBU9C7JZOxAMwMgEn1efEIOb3oet6cTiAhKn3SvbxEwvurty/GQOgw184Zv5u5X3dqpgq9IoadwXoA2eC2VaLSvQT1JRtQ7l6AiqL5aCg9HW5bBZz2mcFilAuYTcW5udG76SY5j+ILxnXrExKAmQVgsvdVpBUZksqJ3k2N4ol9H8d+328gK6S1xDXMTOQbehkqnzj+seL/ST4/D8o9c1BbtBJFtirMKd2EIlcdqouXsVNskgseZ01BywynAuAKPYegdyucRAVg5gSY5pMFW1G223BX56/wTOsnYWfKpanveJK+3ommeKo5dLDVyStsqhOlrka4bOUodjawiiyn3YMKz0KUOOeiumgpXPZSVLgXwu2sLjjnZLaymI7zcqZ30z5OvKcP0buJKLn+3ARgCsBkEsglzzGXtCIaeyzci6eP3I3jw88BsbimmJuGaeU5SeAJhwQHQP2C5BBvkKZKkCUZDpsbdqmYmexUm17iaoJbroWk2tl9VxQtQF3pUjhsxWgqPQdOe9l0YNqkzino3QonXgGYWQCmld6NN6Ug5p1kh0grSiYVFXt7fodnD30KMWk0XmPNmJ5S+zDNJrnedC5Vj3JGOswojrgGq+dx8g5lfB4GoqzZhc2o5XbYnHDYPYwZyWWrhkMtR3XRYtSVrYTHUYuG0jPgtvMWuA6bR4vQ58oQXLgXdiIjCfKNiUgt+TUCMDMAZmp6N+1CkVaU1W4kZvJf77wKPcHXTaQU6aPkiYDJWoEnQGxiC9442x6xSUkgIOX12vwnP2gUhVfcWPqK83Ns1LbX5oAk2RitHGnflD5W5pqHuuL1KHY0YFnNlShxNqDYWZfV/U/nSQIwCyd9AZjZAqZgKzIklUtakVm83aM78fNd7zKBVG6ASUCna456k97UgBlvfauDZWbATP5i8eC+TH4L3hxYpn7qbpTb56LCNp+xwjeWr8fy2mtQXby0cG9ngUYSgFkgQQo+zOSCFG1202+wiQJmVAngjfYf4pW2byKKEAe/NGb5eJO8EICpez+TaZgp7luVGJcnpdkw1wCjZ6OIv17eyJVWh60Mpc5FWNFwHVbX3wSPo5pF6G2SnWmr03WkTytKzomgk4NUCHo3y2MTGmYGDZP1SRBpRRYpTRQwaZBQ1IsdJ/4b2zv/CyEMpiWAkk3uDlWKWVs/ZPB/cuvb6iNNTA3TOU3NN8fLN9P5VZNlR/BrWF9yqgsnohDFA4dUiuW1l2BZzbVoKjsbdtnFSDVY/fgUHtnXkpsWZbAVCXo386MSgCkAk38QcmADyjVKbgEkVYEv2I63u36J3b0/x1i0K6G+PH62GTCBGBSzyjldgGlpscHXmgiyvOul/qHlLtvmsnNR7p6HM5s+wRLvXfayKUttmhhbEdeoWRO0lQ+gYUb3VJq6r48AzKwBk78a8UPkYeazTcfCfdjb/Rvs7v0FhkJHEVPD44bTfY68NSyZjmby4fQRdqblmQ6uXfJnyHGXsUvw35gDd2kYlOjcRK2UXWtcw9dkbfOk0Y2ogE2WUO1ejuXVN2Np9RWoKVpZUGb1VM8jfVpR4lWanJiGSWxFq7Q8zLX5PO5T5loBmFkDJn9h43HW5GbbbEgryqXSJ92bElECaB38K/b3/hYnRl/FSKQLZHpzwhwCPO5fk8mHKBPwmGrQmZsktelsBkxzaasGadqyeIf0+FPVuYNSrzoOmOOvjbsB9I8rH539nkx1xqwOUJJ9c8l6nF73Ucwp34Qy9/xJbfKWvUmu07uRRCRB75ZkGwjAzACYcXo3zlZkdI00oFPUkuerPoyGOnFw4AkcHHwSff7doD7fiLkBmRiO+Msb07Q4nlbEnwodiVFyfS06YCbLoTXWqwVx4lVDBNIUiEpuPVg0TP1ati4tz9MiCJ66ZNGKWa4oB3qbqqLUVo35lZdiTcNHMKfsHNhtnnxFmfT67NmKBL1bpgcgADNHwLSmpoiukZk2WLZ/j8TG0Offhw7vNvSMvYUB3zH0Bd5gpjhpaDGJR6oZYOp9cLIGTN5+jcEaj8vwwwA96tlI5rY5T1PnD7DegaFhatdS1DwOmOZwkQ6Y8euNT6sqsw8v/XNIbtSXnIXVDR/BstprCtqaQp85e8AU9G6Z9qsAzKwBU9C76aLKJ0qeaUNGYgH4w93wBk+gw7sVHb5XEYyNoWtsD8JSwEhF0sGP15Jb49oswV3PbmCpPwokjRjXPD+1SObaJf9ptRXGa5qMVFdPdDcDplZlpMXKTVOQxhZXMuNasY2Zuwz4tcqkUs9SbGj6NNbU3wqnrTiTmHL6+4Tp3RhbkeDDNAtbAGYGwIynFenmlRb91PxpiSkos8GHOZmAaX4cRL7rCx1HVImgZ3QvDg/+CX3+vQhEekE5nSqiHCz1II6uOJJWSp0f2P9zAIgyYGL6qQkVeXSba6xsCAticrPc6PKoXaqdybRK0i6Z1qvVrut/40Pp/kDTHWmqLflkofLyTCrlJN9mVJZQ7pyPKxf9JxZUXVJQhiVB75bT9yXtyQIwswbMJC9AkmtnA2Dmk1Y00a0bU0IYCXezPM6RYAe8oVYEFR+6fW/DG2xDf3A3FES4pU090AnICCwlSlCPQda0UAIpvS5dX4vuB00WQ9I1Wd13bfZukl+VOmFysg+T6c1ReHyXUS0ab86O0hVQncNpbvEGXL/6YZS6micqqnHXWaPkWhDKOCsxcZ1nDzDtV+PDvHblj9EgWlTwD2gwGEzt4S7YIzu5BkreBC3xHkTXyOl6qooaRUwJQ0EMVKNOYEpllzE1BG+gFe3e7cwkJ+AMx0YxFDiEQKTP0PqUhEgR0/iMmLx2V9o59BcCWyPYp6ciacDLwNcEmFYl1Zr6ZOX3NEtPBVW+02FXHLho0Tdw1tx7Cibe3Ond+NR6EzRB72b6GArAHL8vkwOm0DB1SU2HhpkJPQhESbdU1BhiCtc0SVNSlAgCkWFEFT/7+/HhVzAUPAoFClr6tmIk2AOJWI1lPw8w0f/pGqJmhhNgGtFu5nPk5jjPDTW9TImLTCBmseTdm7lAySWgeEh9gawqKHHV4BMbWwpmlgt6t0y7J/u/Cw0ziazS1ZLH04oEvVv222ymnWk1qmJqFN2+NzESPoFgzIewEsDA6FG0D+/AWKwTIWUQOiCrcpT5RuWYB5ADLAhkibzTrY6rQuJ7hcCQ/dkEloYbgKmq5D6gQJCK8+feh00L7i2I4AT5RkHEyL/BQsNMr2EKerfx8pmqoE/htvnERxoJdaIvcAhH+1/CYOAYVAQwHHoHgUAICsYQw4jBvmQAYZaAqftSmR+TtFhdo4WMErkRH93wKooKQB8nAHPizz/xSgGYOWqYvAIlXiKXSCQ8G4I+swkwk71qvkArukfewbHB53Hc+zxCyggiqh9RJaSFnHiaUiL5RzxwxHNLLUEmDTDpHNpi9PPGVb/F0urr8n7bBWDmLUJjAAGYGQDT0jXSZHtRAnMyZhsBmIXbnDN9JEWNYGDsEDp829A5sh0d3lcxFulFRAmygBRjLzIxEyUFTN07oP00ABMKLlv8Xzi98c68xTBxejcbKlxEvkE9fUQtuTDJU2xFEfRJ/47Odg0zmXTCUR/ah15ltfHHfa+gN7wPMTUYZ4GypoDGh9B+r2ubBJjcVFewqPzduGXNH/Lm0sy+ltx0Zwa9m2ArMj9voWFmoWGyL8u4+uLk2VizQcPMJkoejAwhFBtJTNZJi8ROWync9oq8ASJvlSyPASjF6dDAc9je8wC6fa9DITNdyzVKVveuJ8bru8nIE1UdqCtahPeveQbFroY8VgQIere8xGe5WACmAEzubSsgH2YoOoJ3un+FnrFdUBEx6rhTc3vzh1DibMbahjtQ6Vk85SS7hXulwHJE232v46WW+1hdvCJRyhMn9rAevEopkSOJSjahuuC2e3D7umdRV5KfOTxxejcZlW69zW5+ayikfKdzLAGYWQBmIj0YXZKKlXtWaJi2Vfjkph0p923rwF+wufVe9Pv3QaLyRS38oTcxs14YT/W2Sx5cuuhfsab+g1PCEznZL97LLV/HG50/RFgdAZQSqHLAVBKk53aaS4T4ivTfOORy3LDsZ1hSfWVeS82+llxbE6v0iSeui0qfuPgFYGYAzJT0bhq5QwJbLGYDYGbyYe7q+Cle7vgWxkLd42qqLToWY/qJ57PSS7q04hpcueK/4XHw1rYn89Hl24HH99yMMaUHUFxQmabJWwDzHCKtvsdS387vmJ1ic+OCxi/iXfO/mJcYsmcrIrIQbgcwwCQCYRdpmD9BvSiN5HIReZjj92K6xHVB7wZkBMzOn+Ll9m/BH+rmpL8pSCstPJLaafXuM3DL6Y+jyFmbF0jMhIupbPOJPbfgmHdLnEiYlVQSGurck1atkgI+hpluc+Gc2k/hksXfyut2sgfMBHo3hRjXBVuRWfgCMLPWMAW9my6qXAGTa1TJDo14V48gq8CpBJikRb5w4B7s7nuIlWJybZrI5rS9ZJKLLiEdMFl6kd2FjQUFzD8w6uXURPVmwOTkG1WuNSCTXGiYmuYvNMz0GqaV3i3zh16Y5MCuBA0zGWBaG5zpwKnADhduXP0o5lddnFMgKvOTmZ4zNh/8B+zqu58Bpl4yaXw+JN42OBlLAUsvsrmxse6TBdQw/8gDTBaGkMxsRdcJwDQ2j9AwM2iYos3ueAFlSiva1/Mo/tb2FYwEj3MyCyszL28xYfmlDpikg0VxZuPf44IlX4UsEZflyXtQ/fmfDn4U+/seh8pIM+O15LohrrJeRePj5zamYXpwQeOXsGn+5/MSQm5sRVZ6N+pLToAp6N2EhplyEwp6t/TvZybAHAq24OnDd6Jr+HWN1Sc+HvfPJQAmazlB1ioRAgNuexU+fMZrKPfMzQsopvvisXAPfvXW2RiJ9pgQUS+b1CAzoUsl/46orOePbK/Ah9c+j7ridXndShwwdQ3TrFWmSPbS+TCNtKL81pDXDcygi4WGmbWGmSqL0DrAbDDJMwGmL3gCTx++C+3eLVQgaGEy1912xMoT1z615mBEs0YFAooD1yx7EKsbbptBr0ruS2kd3IynDnwIAWUQiJYxCjmzlmlWshNb81Iqm9teiw+s+RNqS9bkPrnpivSVPqmzY42+5CuoNFIAJvumCx9meh9mPK2IO+oFvVvmKDlJdPOx+7C7+34EY6PjGMl1c1Qzckwmu+bdUxxYVnU9rl7+Q7jt5XmBxXRevOXYN7Cj67sIq37GqGFmbR9HvqEtlNMVUB6kjIais3HrusfhtlfmdRuCfCMv8VkuFoCZQcNMpHfjGhLP/WD/M4EkdjZomJmi5CSWl1q/iV2dP0BQ8WqNcs2CjqcaGenb3Cbn8lSpf6OMdzV9AefM/cykdFIs3CuUfKSxcC+e2H8XToy9CJWRG8f3is7hYqZ300fR/yYpdqyt/gCuXvWjvJcqADNvERoDCMDMFjD1VBBB75YxD5NEur/vD9h67F4MhSnwIzHtSgcIpkHxDE2jLJBXAfHmYLrm6UA5Llv0Daytvx022Vm4XT/JI42EuvBWx4N4q/cnCCr9cR6ChI9rKsDU68iuXvIQ1jTcnvdq8wdMCvqI0kj2SRcm+fj9mBj0MZdG6g45c/dA8whCw+TSCEQG8Oy+j+HYyF8QQ4wlY8cBk6lbFsFzxV0nieRRc1V1otazCOfN/RzmlV+AEldj3uAxuQOo8AbbsbPzZ9jd+zOMxfp4x0o2qZUAUy8TTWxUqVecO1CE9697As1l78p7ydl3jbRORZU+gt4tQSYCMDMDJtvu5r4uabbwbADMsgy15Lp43jj+n9jW/m1mltNhBcx0OMDLJUnjtFHnQkczltfciHWNH0G5ez5keWamGw0Hj2Nn14+xu/dh+CkyzqCS9wAyR77MLS0Sc/qZJg4Jc0suwk1rf523/5LkKOjd8v7mGAMIDTOJLFPzYZpPFvRumbbhSLAdj+y8GsORIyyQwRuHpb/K8BHrWhnx/CiAx16B+ZUXYUHFuzG/4hKUuZtnRGK7qsZAbSy6fNtxbPhF1jt9LNpruk+KQifv/2Rpzasp3Zy5SMJ7Fn0P65vuyiTirP6eD70bZyt6QJjkmqQFYArA5NBUQHo3s0hfPvoNvNnx/xBGCDGK5+ikJUnkPr6CkgMN08hI25RllDga0VB8OhZWXYoK90LUFK9GsaM+p/VnhTIZTqKk9L6RfRgMHkTr0Ga0+7ZhJNyJiDKW0H5C99SOH9B8v6RZ6m6LUtcifOi051HqmlOIpZo0TD0PM1WpqobaOngT+Yagd7M8AwGYWQCmYY5rtFe6uZhsN88GkzybKLkuG1+gDU/uvQmdgXcYYPIKH65mmrVNi7alvc+qCcT1hG5yfdpgY+QcblsZiuw1TOssdTdjceVlDDgpDSeXD0A2qETtekOxUQyM7cGg/zBah17FQPAgQrEBjFJbCjWgMRBlHi1RsySwZLXj5PG0KThv3tdw3twvZB4oyzOyp3cjbZjnzZrZigS9W1zQAjAzAGb6rpHjbUwBmFaBqqqCvV0P44Vjf4+gyvtuG3pMCvPcyHVNqvUmFhJKLFfTJnlQZK9lvbznlp8Hu1zEtVMCAC13noC0oewMeBzJ8xoDkUG0Db2CmBo2saTzqiR/tBc9o++AzokqoxiLehFDWAN9DeEJaLRKnfHFjqaXzkyBqYElz6pSUFd+Nq5Z9lNUuZdkCYeZT8uerUjQu2WSpgDMbAFTpBUZkspFw6SLokoQz+y/C/uGHodd4YCZjT9TJ+jQg0V8Ackqr+n3sgZeZLq7OVRqtdvM3NXcDjbZxVpgsFE0qnOq2+YjxxCOBbhJrSU90RpkVWW5lASkisqb3yU9DMBM/9rp9G1mTVORFbjkUly19MdYUn01bAWso88eMMfTu1W5VuOaVYIPU3+iAjAFYHJNLAcfZq6ASeMHIkN4Yv8H0Dn0Ejc9ZQK4VODHH0qugGl+lFQpwzyf43oxaeBowjym0WquRh1I9UocaqPM/iRFeLFCTM8THb9xGHkbUzHT3xc3dxnRmvHxsMkeXLzgW1hX/0E4bcWZFJ2c/p4+rcg81Hh6t0qNfEPQu3E5CcDMAJiCrWi8gCYCmAQi7YMv45m9H4Rf6UNEsiPG1D4yA7XNmC4WMW4ZSUnRjLN0sz45siSvn9an14u59GR6/t/aNVpifbK4d7apZ+yGFUrElyBJIdgkGevrP4mN8z+H4kkgTs6tltzKViQA07qDBGAKwMxZw8xEvpFK/aHI8rH+5/DXo5/FYKRTA8w4SqbkGU46YGrTnDIZrXybiQMkB0yr6Z8qBSp5ihDD1CxzdbnAuW/VLrmwqOI9uGDB11BTvDInzTHbkydC70Z+CVlLXBf0bnFJC8DMGjCze+lmQ9BnooBJEiR/5pG+p/HKiW9iIHwcUTWcyiOYqrOF9iCyM+ez1TANn6Y+egqt1xy513EvPkf6NZnXQrXyRbYKLKy4BBua/w51pWcw2rvJOHIDTH0FnHGd9/QRbEWGVESlz/gtmjxxXddKuMt/VneNlFfhk+em7hqZ6aWnXjdtw69gd8/DaPP9FYHogBGgMSd5WzVOHYx0jTQ9uJg1TM5qHgcznbzY8DaahhpHdpzgJrACpu4jTb8nNIeDloPKmYhKHfVY3/AxrGv8GIocdTn5kDPJN/HvuZnkVsCscK/G9YLezRCp0DAzaJgpu0Ya2oD1xZ0NGubEfJjjBe0NHMeenodxaPAJ9IUOIaqELP3IrYCpNw0zAabubEzyDHXA5Jyb/F/8M8f5N4mTUzfDUxNhJA5uNsn5mih4oyfX89VZ9wSPJ3EmJiIRqXIvxara9+GMxo/CnSLFKVdQTHd+/uQbQsMUGmaaHZa8a6T2cugqiOaDMreJpSEFYOb2qoeiXhwf3oq3+n6B7tE3EYwMgMoNx5u78QiuZQZTIrz591bAVKBomeHmqm5ZkY30JjNg6kCtp/+Yx7U+bwUSBYO0tCUjWGRak56WaYOMSvdK1JWswYraGzC34kK47RW5CWuCZwvAnKDgklwmNMysNUzRNVIXVaE0TH28mBpB7+gedI3tRMvQizg28DfEMAJJT3Jn9QEEonHt0sgPT+H3iwMmXRsHTF3/IzDUNUzCt5SAaSWMh2JJv6LgkpXbk8bnOiev3rGpEops9ZhfeSGW174P1SXLOYGIZC/cW5xhpPSVPhkY112rcT3r6SPo3djeET7M8bttvA8z7qsS9G7ZMa5PBA0oij7gP4wu39s44d2CvtGdGAwcQESNQrVFmA+QNRPTTdwEijg+JwUrNBPYlBGpd2dk+Y+aVkjGNSsGTAKYOiAn8AwxJqF4GpQMSaF6zwggs2YczOwmN4BNdqAU1VjT8AHUFZ+B+rIzUOFZNBGx5H3NxOjdSI5E77YK17OgjwBMAZgptmJqtqLMiYKzwSTPlt4tnzfdFziBkVA72oZfwvHBv8EXbcdYtA+hmN9Us01mesIsml1sdKUkMGSgqANtPJmdkRgbf4+PY1TiaNk/7C/auFbyEAnEjM5tckpxl+Gx16PSsxjzKjdhTvFZaCo/B25HVT6iyPtaQe+WtwiNAYSGmcEkjyeuG2+NdkVy8JwVgJlnlDz77asiGPViLNSDUHQY3SO7cGJoG/rG9sIbPgxFCjIcY+a0GTiZua1zanKwVCStskbV8hvoHDLVdQ1Ts9XNfks2bKJJTuMac6nM7PbYqzCnZAMaSzehsWwDylxNnBzEXjGp0e9s5Sjo3bKVVObzBGBmDZjZ5dgJwMy86SZyBpm50ZgfoegoApF+9i8YG0a79xUEooM41PNnRJUAYKOGYwoDSZlMeAaoCfz4WoK5TuSrs5/r65I1th5DszRKgEijLMbcynNYC+Da4jWoKVoJh60Ipc45cNkr4LAVQ5ZSl09O5N7zvcYKmOP7xFvH1yuatMR19yqRh2kSkADMDIBp7RpJGoVW/5uCFHY2AGahgz65AgLLqSRCDCiIKSH2MxojbVOF138IJ4a3ICxRu4guDPiPctxTowhFfYgqYahGfbnVnqf/kiUZTlsRXPZSNl5tyXKUuOrYGMuqr2Xcm5QaREEbIsjgwRvyi6auAMr1/gp9vmGS9z/GatgTMzvi8+n0buS24D5MSlwX9G5xCQnATLI7hwJHsKX1y9jf/0eNr0uLkNNW07QNo4xOdI0s9Pud53h6krrud4y7TjJ7oE0vRtxrFQ/ypPhI5rngSb88ew0zka1IBmcregiCfIM/JgGYyQDTzwHzwMAfuXNMrxRh0VWuSYwDTm2cNXW344L5X0aZa+6kvwj5TDAa7sVPd27AWJh6z0w+W1E+axXXTlwCpH33je7FX9q+hNbBF1iVUWJ5Jx89rl2y/UApUYqM+WWX4tJl30VV0dKJL+IUulIAZpKHOew/gq2tX8H+gT9qwVFNazF1r0oFmGXOeTh37r1YVnMVc/rLBeQ1LOS+E4BZSGnOzLEoTWvIfxi7Ou/HnoHfIxjxsYXqPKHWVScDTAkbmv4PNsz7HIoctTPzJqd4VQIwkwh8LNSNba3fwc6eH7PNpRPK8vK6xE4E431XNhRhYeXFWD/nTjSUnAmPo2rSiBUmul8EYE5UcjP/OioEGA11Ych/ALs7f4HDA08ixr7wevW8rlHGE/a5mRFPYueJ/cDZTffg7Lmfg0cAJheRSFxP/gLs7f4dNh8UK7KcAAAf3klEQVT+HIIqEUPQV9kaXYzXOY9PBOROdRWV7vlYUXUjllRfhYbSM2CXPTPmbcsHMPNhK5oxAjhFF0KBrS7fm9jV9RC6R7Yz4Ezcu3ET3AyYesWSlq/KqpRs2DT3Cziz6TNTUvN+MjwSAZgpnlL78Mt46eiX0D36FmveRakpZr6x8dyNpuACkcxKMaZVSlBQ41qB9XPuQlP5JtblcCrL4lJtQgGYJ8Prmf0aKaWqZ+QdtHtfw8G+p1hdvsTKSbmprVMgGKxNzC9vOtiGjveoov8stTXgokXfwrK6G2BnbT/EIQAzxR7oH92LV1u+iiPDf0KEEpxZbl0qdnAz9ZgMVXWxcjktC5D9dKMYzWXnYmX9bagtXoea4hWst8x0HfkA5nSnFU2XzGbivOSn9AaP48jgn3Gg93H0ju1HNBbSMu7DRv09M8YZSNJejpMTxu0jzuCkpwRQ4v/C8ksYYNaWrJmJtz4taxKAmULs4aiPdTvc3vE9DEXbWXTcUkxiscTN1GOM7Iv7O7SIuu4PIiIG6jVdX3oG1jZ+BE3l58FpK5mWBz9RwKR3qtS+Cp8+Z+J8mNNyw6fgpL5gO1qHX8DR4RfR6n0JweiQAXhx9ndeBsXjlSoUzSevt4fX2yrpe5WLSUKJrRbnNH8WaxvvgMtedgpKb2K3JAAzjdwowri19T4cGnwaMZVoF+IoaW1noAMm/6AbdcsazZfeZIt7NomYwYXq4jVYWPEeLKp6D+pL1rFqkak88gHMEvsqfEYA5lQ+LstcRInX5duOg/1PomX4r/BGWqkOKjlvE0tA5zuXNEuiuaNtaaawM3/ctf6amFd6Pi5e+HU0lp01bfc5EycWgJnmqShqBLs7f4ZtJ/4do+EORmujypSLaWNf6vgO1VMyeGFynDKTf93NDbm4UUTQ6YLL4UK1ewkWV16GNfW3o8K9cMr2CPlmf7vnOvgj/VynyLJShTRMAZhT9pgsE9HO8QVasa/71+wjPhBqQ1AdgypFx9W8cxDk2iInL+bpRKpMWiZA29h8sPxM3owYTrkEG+Z8Amc33zNlnJ3TI9HcZxWAmUFmgcgA3mx/ALu670cgPAyFaLyUckAeZWkYHBytdeacKScxeh6fiJ9NgaEog06PXI6G4nVYVXsrltXeCJe9PPcnmeMVOzr+G1uPfwXh2KhmhGU3gA6Yn9okTPLsJFaIs1T4IwPY3/Nb7Ot5BMOhVviVITCGUCMViLoEJTCQaEzwxgqMVh0cSPn/583YAOrVTtBqYx/wixZ8lTVlm6w+Q4WQynSMIQAzC6kPB1rw4pF7cHzoVUQZQw6BHf9ETwQwrdBJpj6NaIPHVolFFVdiWc0NWFhz2aQlvZNJ97t3bkDX6BtM383lEICZi7TyPzemhNEx9Bp2dv4Ibb6tCMS83LSOB7Q1vTBxrvhH3MjosAAmzx+mLA6+iSkAKaGh5DRcMO8+LKi8dMaRiOQvzfxHEICZhQwJVAbHDuH5Q/8HHSNvQiEmcDnKNm4cNOMDZd8ulnHpGL1mWDkaXPDYK7Gx+Z8wv/J81JSsyGKFuZ3ydsfPsLXtK/BH+3K7UNOlySQXGmbOosv5gtFgJ1469FW0ef+CoNqHmEp7DiDO4nQNJvn+S2DX0qM7+ioSOBAoKl7pWYFLF34LC6oumRGpbzkLbAouEICZg5CHA8fw5L7b0Du2GwrIj0nBc0UzZdIBZjotTksYZptc1qLxMUB1wm0rwVk1n8K7lt+b/g3J4R7Gwt340/5Po9X7AhRiCk9ysFcttUcBSytuwU1rfpHDrOLU3CSgYlvLv+Ot7h9oHzXyL2ppkvSJzUCMpLf24HPGW2gYa9D3mqnlR4VjIS5b8h9YVP2e3JY6y84WgJnjA/eFTmBH2wPY1fk/iMkjiErky6RtSR6keJVEfFgNLE1lZ/xvWt6bDkxGDpzpbVAVOCQ3llXfgPVNd6G2aDXjW8w2QGO+NdKSvYFWbDn2Tzgy+AyiKoHleFTUwdKUkmeREAWwrlrwXaxtvjtHyYnT00lAUWNgqWy9j+K149/FWKxNSwPSUyk1tZKIkFkAJx7pNvfl4xYLBfEUrZNlwsePhctl1s+I/qfD6UFz6fk4t/mfMafsTPGQMkhAAOYEt8i2lu+jY3QzukZfR0DxIcawR/MLWUooKJqeTsPUQEuPaFryPal5l8Iimh5bOZZV34TV9XegungZ42vMpmJIJ94dDhzFjhPfw8H+JxBWKbFZ0z4S7l8HTKY9a7huPsWpunH3+p0o9cyfoOTEZZYPmaogSGzyvp3Y3f0Qjg5tRlj1s4AgZ8nSH4IeSMwCMAkstSi5xVrQNEsCS5dcgeqi5VhV9z6sqLsZRY4a8WCykIAAzCyElOqUQLgfuzoexMH+36M/3IaIGjD4DTgMaj7KJE5NveeMhe1bpRQkc6xTA0zNHSXBiVLbQiypuRxLaq9EpWcRbJIdLnslHDaqUzfliapRjIV7EYgMom1oCw71/Q69Y2+zNbJa9xSOVkPDTGGSzyk6B3ecsblgLoI8xH+SX6qyDIVB/1G80/k/ODzwGDO/6dPKcnzlqJa1a7a/40noqW+ektbGf6D15+qQy1DumIflNdfitIaPocw9s2kIZ9pDFoCZ5xOhtgknhl/G/v4n0DG6DcPhVkSVIMejBEd7vDGXZlNpvkKzQkr5cHEsU1nenNFeVvsbtUAoc85nPa7d9jLUFZ+GEudcyHAYMB2O+VgDMW/wGHpGdyKijmhJJCqgeHinQ1ZrzA+jsljTLK0+TH0NEs5t/iIunP/lPKU2my9XEVGC8AZb0Tq0GYf7nkLP6G6ElRGocgxQ3FBhB+QxTcM0f7mSuXwSZak3+Y3rpmS/S5KTda1cUH4pVtS+F42l60V9+AS2oQDMCQgt2SWUqtPm3Yr9A79Hm3cLI+alhGIDwUhp0L31jIiYl1ByJpk4ZFpL1LSZdJOe+Z1M5xpoR2aaE1AIMHnivEpZenLIVEtszg2l/23xG/BE/ITDmjIlsZYMN618jOXpiSN3CaiqgtFwN455N+Pg4JPoHH4ZoYjX2CJM3ix6TQ5KrRgi92nYFSxdSCvPLXU2Y07pRqysex8WVF48beW4E7yVGXWZAMwCPg7S0oaDx9Ay9ALTHjpGXkMg2m9ob7KlnpJDH+fbzASYPLmYQ54V6MzLV/VOiUnMaV4elzr0nRIwWZCVE480lZ2NG1Y+zBp+iSM3CVDieYfvDRwb+jMODT8Lb+gEbCq1PNGcN0ajtsTkc+OrmNOE1HvKKRczPlbK611UdSUzv2dag7acbmoGnCwAcxIeApnkQ4EWtAz9GW+2/wSjkTZTra8V9rICTF3R5DppXGnVAzPGO5U63yQRMJkJbno3E8i+4lJhtcgOOGUXLl78Layt/xBrAiaO7CXQO7oHu3p+zQgyhkIHEFFivAUEiAKQH3pZoknwCROk/lAa17PIONXqOJjLhlj/l9fcyLpbUnaFOPKXgADM/GWYcgQy09u929E9uh0H+h7FQOCglt+ow56VYzNpWNo0umbE8xdMA0syvOK4lyxKzwcwAyZruDHOFZBa+yTNdH7Zhbh86fdR6VksAj5Z7BmiXaP+6Yf7n0Wb7yV0MD8ylaGStWDjHz6TyA3/tvE5NOVPpsrxMpO3qeT3DKPYUY2NDX+PupIzUFuyCiXOevG8snhe2Z4iADNbSeVxHqWN9Iy8id1dD6PVuxljMfJv6gNq5BzaS5EuYdwMmHraj27l8zSSLAHToPmidqrxdejAar1VFQ7Zg0sXfocRhMwk1vg8HsmkXhoID+JA/++wv+9R9Pn3IRQbjgfVCORYIzKd1UoL8mkPgv8w0wXGnw+PIVo/bMSMRb93yMS3uhGr6t+PZVXXw2kvndR7nK2DC8CcoidPGgcFgjp92/Fy+7+gJ7DbYJMh3yb3L7KsYrYiK32cXvdLAKeZ5Az0NCZtQ1nJBTDjEXIGlBY5mAqVIWFl9ftw4YL7UOFZILSVNPtFVWNoGXgBu7t/gRNjryMQ7YGkWuXMrAMGmBScY6ViugnADXMDMMcH4XivcGuknP6rumgZNs69F03l56DYWSc+apP4TgvAnEThJhuayBS8oTYcGXyW9V0ZDhzWTpsYYFrnKAxgck8p13zmlV6AixZ8DXPK1k8rQ/wUP6acpxv2t+DtEw/i4MBTGI72IGzzs3xIm9Xy5hY5dMCkUljtU6WloKUFTPqwUq4ua/MsodjejFUNt2JF/c2oKlrGeFbFMbkSEIA5ufJNMboK0jgHxg7hjbb/wJGBJxFSR42WviylxCBH0AM59JOlNbMx443ZzGa1Nl0CsUKqW6SA0zjPpUoJKU6ocKCxeBUuWfA1zK+4YELlmNMi2imdVEUw6mPtId7suB+9YztBHKpc86fPjibfcc8jHpxj6bqWNZs0S4mqvLQiA0JSKmlUbKxcdlHlFThn4T8yoJRlh6Bhm6LnLgBzigSdahoCzq7hHXit7V/Q7tuCqBoE0XmoBqGvGTC1yiGtqRVPR0oSPc0DMNl7KdlR7pqPd839PFbX3ga70FwSHp+KmBJhDfJebPlHdI69yf4ebwthOt3y8dN/n449Ixlg8rxdGXY0FJ+GDU1/h4XVlws/5TS8uwIwp0Hoyab0h3txqPcPeKfrJxgKHkFEiSDGaLGZAWa6RAdJ/pM3tNJTjTLQ2CSbWEtY11nhZcmBmqIzcE7zP2BJ9RWiGiRBZjElhCH/Uezu+jkO9D8GX6zXZFWn+IAZY6R7PsmvpedCJbGV7sU4reFDWF57M+sLNREClhmy1U/qZQjAnGGPbyzUjR3Hv4/OoR3wKScwrJwA0W/yVgPxvkIcJql0kvFuaxpO9oCpJ8tzrYjq1x1w2Uowr+xdOGfuFzBH9HKxfKSonNEf7kPL4IvYeuzrCMQGoer13mY3ZNr9lOzDp7tRtA6irDqMD2iHg5Fi1HrWYv2cT2JhteCpnO7XVQDmdD+BNPMf79uMbd3fxlikH6OhXoRiQ4ZvU1Ud3FcmE02bqW5YL2FPM67e1oBeXxuccKIGVe61WFLzHqxvvgNOm0hJ0cXHgnTBVrR5X8Gent+hY/RVKLw5hKl8UZd/CoqncRqmpk0aLhViBebFALIUZkN7bDWYV34+q/teUnOtCOjMkPdUAOYMeRCplkEvK/WdJoKPDt82DAWOYzTciSjCiGldAPWgAZXDcV9a+psirdJtK0OVZwkq3YtQ5T4dy2qvRU3JshkujaldXjg6wuS+u/uXaPG+xEgzAI12jQk9HoTjNoCuLZrr9s1r1jVMzRdteVAcbIvt1ahxr8LCyqtwetMdcNsrp/amxWxpJSAA8yTZIKTpEON71whVDr2JsOLHULgDgegwfMFuhCI+SEzzGQ+YFLQpcdXC7ahEuasJLrkEZc65rG9LZdFSFDlrTxIpTM0yQ1Ro4NuNDu8bODT4OHr9BxGVQoDqgoSwqfldoQCTihdcqPGsxIra67C06npWpSOOmScBAZgz75mkXRExc8eUIOjnUPAYa5M7HGhHIDzEfJpMyzE0TP4/HHYPytyNKHLWoMK9AC5bGTPx7KwmPHVJ5EkmmryXSxkLvkAbjvQ/hX09j2EgcARhyW+QpBAtniQFTbR4evlinK6PLyK5TA0mKkYMzAN6suRBlXsJFlZcgoWVF6O5/Fw4Rd133s9ysgYQgDlZkhXjnjQSIPiihmOtA3/BscEX0TWyDSORTqPhmLmMlffLMfs8tMz0dDWtmiSIHJofLFwHj60Wi6uuwfLaG9BcfjbcU9Be+aR5KDN0oQIwZ+iDEcuaOgkcG9iMd3p+ji7v2xgJd0BlZjfXARM7NFobjOW2RgaYVPctuTCnbANW1N6C5vLzUVW0WFRR5SbKaTtbAOa0iV5MPN0SoBSu1458By3+VzAcOgLyE4PILLTWx7S+xA6NuQAmJwTWmaLIALeh0rUYa+tvx8Lqy1DpWcryXEVO5XTvhOznF4CZvazEmSYJEOdnt+8NDPoPoan8XFQXrzxp5BOMDGFP16+wv+cR9IUOI4gQJ3Fm1rXOaq/5g8fdVbqGdvGT43mugBxzwy1XYXH1pTit6Q7UFa+Fw14CXhUujpNJAgIwT6anNUPWOug/jK3H/xltw6+AsuqJLee0hruwuPoquB0VM2SV45cRiPTjYO/jaBl4Fl0jOzCmeFlqlpVImXso9cQgPfNHPy0ZM33yG+alBZIiYXHl5djQ/DnUl65jAR1J0pLUZ6ykxMJSSUAAptgbWUuATNi9Xb/Grt4HMRzuQEwi5nDej90uF6Gx5Bysb7wLi6pmVt8YRuY7uhc7Or+PI4NPIxQd0yLf4+glx8mCAaUFU5PR71kvo/OppLHGsxSnz7kbK+rez1K60rUIyfohiBOnVQICMKdV/DN7cgp7UPpSODaCPZ2/xO7On8AbbkFEVqCqdt7RMlYKVQ4YZYJOuRKn1X4AZzd9AmWuZq13+vSkLhE/JXGQ7u99FG92/xhDoWNahNuWdTZVZsDUIuaMRV2CLMlwyEVY33g31s/53yh2NQqgnNnbPKfVEWBS27qynK4SJ5+yEqDOhjE1pPXMPoTjQ3/Fvu5H4A23ggqJFJkIPzhbOM/5lA0TljOFx5hN21yyEYsrrsC6xg+j2Fk/pWYoUaxRQn+7bxteb/8uOkdfZ2EcjXqX186nrIaKd/FMfo61Hpyb3TZIahGK7XWYV3EeFte+GwurLhFVOqfeW+IjwNwDYPWpd2/ijnKRAJmtRC4xEmpH98hbaPO+zLpejoZ6NDYkjjAElhQ5tvA4Gr3UFYpwEKU4M0mJ5HZd450sfaamaDU8jqpJjwiPhXvRMfoG9vc9hqPDzyEU9WliiCNk0lbGhrA0LsuUgGoGTE6G4pbLUFu0BusaPoJltdeLNra5bLyT69y9BJjPAbj85Fq3WG0hJUBRY6qZPtT3JDpGtmAk0o2YqvdU5+EPzo1EgEmEH+bZJd5CW++lrfXTNvefKXE1YGnFzVjb+H7UFK2clA6GVM445G/B7t5f452h3yIcGYw7KJmf1RzdToxOJ6JjumJ8Lg/2QZCcqCpeikWVl+P0+o+g3L1g0j8IhXzuYqycJfBnAsyfALgz50vFBaeMBDqGt+H3+26DPzoElXFwEiRobOGMRYeiHhxAx7UFZr/UAJOfwW1f43fUGVOBpDgwp/RMrKu7DQuqLkOp4d/MT4yUO9kzugetQ8/jYO8TGAjtRRQR3i+HFkJgqfCOisl5Q838oub7MG5M+2DoN0XRb2pj24yFFZdiZd0tmFO6AXabJ78bEVefDBJ4SAoEAl+RJOnLJ8NqxRonRwLewDG81HofWoZfRDBGJB50kD9Sm49lYPN/FAiSNNJh48/jQDPO1sM9ndyAJ62z2FaFRVVXYEHlJWgqPw9l7uYJ3RStY9B/lGnGe3oeRefodl6hQ3z1jPiHz8tAkpqH6XX27LfU9kEvcNRKHc0OS+N++dJYJgBTq1WUuZrQXL4JCyouw/La6+GwFU1o/eKik08CkiR9hQDzTkmSSMsUxyyVABnbw4EjOND3GA70/oH1T1ckSubmoMLBJ96kjYGPKdVGVybZTwY2BC4cTnUmdy5aburaYEOZowkLKq/E8rr3or70NLhyaAvrjwyg3fsqW2+b928Yiw5oDgNDtdWR3piTM5frq+AmOe/MSR+GJMnoOmiqMlFkwCmVoLHkLKxp+CDmVmxCmXvuLN0ts/e2VVX9X2SSk/+S/JjimNUSUFmApG1oCw70Porj3r9iTBlgPksONZrfT+XNvZJ5AXkpYBrAZAjsAOQg09gctmJUe9agufw8rGm4FTXFy9NWv8TUCPrH9mN/7+9wZPA5DAePIoYgcxNwx2rSVfHVm9ySTMPMAJi8pS0gyx40lWzCkurL0Vx2HhpKTxd+ytn7nlwhqarqDoVCgdkrA3HnZgmQT9BHhMXeV7Gn72F0jL2OqBKCREBHGmKsGLCNQqL0IdPBtFCLL5ODklXDpBA7AWZIM+/pAhtjeKco+llNd2NR5aVw2SnLLZ67Sea3N3CcEfke972EAf9BBGOUDadpiHwm7Rork1BCIQ87ky8z7tHUCr41sKc74WBJ3KFLq9/L+ujUFq/SaNemJ6dU7NLpl4DL5fKwpx8MBp8BcNX0L0msYKZIIBILYCBwAIcHn8GB/j9gyN8KBUFApaTvSBJad5acaVp+PJpsvae42czMfZOftNw1F83lG7G69nbW2pc4Oyn6TbRr+3ofRdvIFgRiw2mSzvVWxHxGtoIkAW9uilsP6iHOAkSQGe1aY+lZWFn3XsyrvAhFjjrIopxxpmzN6VrHs263+2odMO8G8KPpWomYd2ZKgJLYw7FRDAVbsKf3EbzT8zBCUS9PTjdrmGna+sY5IMffowUwNYYgIjX22Ksxp2QDbFIpQrFe9I3sRyA6iCgzvzP039CmsWq21rmTAqbGKlTrWY1N8+5FU8UmVhfPWwwLrXJm7tApXdUn3G73/WwnhEKhFaqq7p/S6cVkJ40EyCQOR0fRObIdf9r/DxiJHeWpQlrlT0JipuW+EgHTSl4Rj6YbTcUoz1MhJnIHoFJKUxQq/SNVlHyV2ryZhGf1WVqVX+Y+0H2zKmBTVXjsNdjY/Fksq7mORe7Z/OIQEtAkIEnSSpfLdcD4dAYCgdclSTpbSEhIIL0EVLzW8j1s7/gOguooFFuEMfJwEEpi6pq0Tx0suZbIT+YKoyVByQjexLVJOomn9fC2wJkPHTB1LdZs+scDWBJkxY6VJe/Gxau+g1LP/MwDizNmnQRUVd3u8Xg2mncqAoHAv0iS9MVZJw1xwxOSQMfwq9hy4t9wIvAypHCIkXRYsE8b1axhEmDyxHczUFKAxaxpmpeTHfdkshtICpg87wmyaoNDKkF9yTKsb7gHKxtumpAMxEWzQwKqqn7b4/HcawHMYDB4BYA/zQ4RiLvMVwKUu0kN2KjufHfnj9Hm3YKgMjoONDn9Gz/GASZLKDfneCauqkCAqQWXCETtcKHcuRhnNn0Cqxpuhkv00cl3K8yG6690u90s9dJiRAUCgd9KkvS+2SABcY+FkoAKb/AEdnU8gKMDT8Mb6UYQYzwhnCjPmPXNyTgYYJoaiMX5IQurYZqj45JqY1otRbnLXQtQX3QmNs77O9SVrJlSBqVCSVuMM7USUFX1UY/H83591kTAPF+SpC1TuyQx26kggWjMjy7fm9jf9zhafC/AF2yDwpLcTbk9VnJzXrgoWauGLAZ5sgqcDMLiprjmI1XtsKMIpa4a1JaswBmNd2NuxYWQZRHQORX23FTcg6qqF3g8nq1JAZN+GQwGHwBw11QsRsxx6kkgEBnA0cGnsbfnUXT7diKseC3pmdxfyY2beFpR8v452beDiMtRB0yeT1mNprJNWF5zA0sTKnHOgY31YheHkEBWEnjQ7XZ/3HzmuLhmKBRao6rq6wAEq0BWMhUnJUqAuDV7RnayhPOesR1oGfozYsQgZOYeZz3HiAQjHjE3m+tMT0ybcxlPgDfPz2jX4EBN0Qosrb4Wy2tuZA3aRGdGsU9zlIBfkqSNLpeL+IKNI2lGbiAQ+LYkSf+Y4wTidCEBiwSisSC8wVbs6rwfRwZehC/cCVUK8hQhpmk6eNUQ82zqTOf0U9NBLZVDCduWSjWlqKancn+pTVVQVbQECyuvwvzKSzCn9Cy4HVXiqQgJ5CwBVVX/1ePxjMsaSgqYfr+/SZblvwFYnPNM4gIhgQQJjIa60DvyDo4OPo+9/b9EOEZBITqoeyKPhJM2yXoIkU8z4XseN+NNA1NASUtiJzIQt60aC8svwcqG92NO2UZ4HDXiOQgJTFQCRxVFubCoqKgjcYCUNV+hUOh6VVX/ONEZxXVCAokSGAl14MjA09jT+zC6Rt60EmxI1CuIA2ZiWWPylhISbCrgspVifvmlWFZ7LRpLNzLaNVmyC+ELCUxYApIk3eByuZ5INkDaItlQKPRPqqp+Y8IziwuFBCwSUJl22e/fh5bB53F04Fn0je7WWl8oUGT6x3nXzIS/1BuIaaHab+lvrI2tewVOa7wTi6uvRKmriZF1iENIIB8JSJL0zy6X65upxsjIKhAIBH4jSdKt+SxCXCskYJYAtb+NKH4MB1qwv+sRBpzDkVaE5RDP0lTtkBHlbYL0jhdakMiBMlS5l2JF3fVYWnM1ytzz4WDtITJuZfEQhATSSkBV1Uc8Hs9t6U7KapcFg8F3AKwR8hYSKKQEmM9SiSAQ7kfv6G74Iu041LcZgWgvVFsIxJZEB/X5bi49GzVFq1DqbEJt8TrGmWlj+ZRZbeFCLluMdWpKYI/b7V6b6day3m3BYDA71oNMM4q/CwlkIQEWNVd0kmKJpQVJrLGZOIQECi8Bt9ud1ebK6iR9ecFg8HkA7yn8csWIQgJCAkIC0yKBF9xu92XZzpwTYNKgwWDw8wD+LdsJxHlCAkICQgIzVAJfcLvd38llbTkDJg0eCoVuU1X1f3KZSJwrJCAkICQwUyQgSdLtLpfrN7muZ0KASZMEAoGLJEmiuvNluU4qzhcSEBIQEpgmCRxSVfXjHo/npYnMP2HApMmoIkiSpM/QP1F7PhHxi2uEBIQEpkgCflVVf0D/klXwZLuGvABTn0Qj7CDQFCxH2UpenCckICQwVRJ4UJKkHyQSaUxk8oIApj5xIBA4H8CnBQnxRB6FuEZIQEigkBIg8l8APzTzWeY7fkEBU1+M1u7i3QDo32n5LlJcLyQgJCAkkKUE3gbwIv3T20pkeV1Wp00KYJpnDoVC6wBcoarqlQAuympV4iQhASEBIYHsJfCSJEnUj+w5l8u1O/vLcj9z0gHTvCRVVT2hUOgCVVWbAcyVJIl+6v/mAijL/RbEFUICQgKnuAR8AE4AaKd/qqrSzxOSJLW7XK4tkiQFpur+/z9k9QOvt6xKewAAAABJRU5ErkJggg==;" vertex="1" parent="1">
          <mxGeometry x="230" y="60" width="62" height="66.11" as="geometry" />
        </mxCell>
        <mxCell id="6fhHhT-RDIvyIf84DN0j-7" value="Markdown&lt;br&gt;HTML/CSS/JS" style="rounded=0;whiteSpace=wrap;html=1;" vertex="1" parent="1">
          <mxGeometry x="50" y="330" width="120" height="60" as="geometry" />
        </mxCell>
        <mxCell id="6fhHhT-RDIvyIf84DN0j-8" value="npm&lt;br&gt;bootstrap&lt;br&gt;Hyas&lt;br&gt;Doks" style="rounded=0;whiteSpace=wrap;html=1;" vertex="1" parent="1">
          <mxGeometry x="305" y="66.11" width="95" height="60" as="geometry" />
        </mxCell>
        <mxCell id="6fhHhT-RDIvyIf84DN0j-9" value="Render" style="rounded=0;whiteSpace=wrap;html=1;" vertex="1" parent="1">
          <mxGeometry x="292" y="330" width="118" height="60" as="geometry" />
        </mxCell>
        <mxCell id="6fhHhT-RDIvyIf84DN0j-10" value="" style="endArrow=classic;html=1;rounded=0;exitX=1;exitY=0.5;exitDx=0;exitDy=0;entryX=0;entryY=0.5;entryDx=0;entryDy=0;" edge="1" parent="1" source="6fhHhT-RDIvyIf84DN0j-7" target="6fhHhT-RDIvyIf84DN0j-9">
          <mxGeometry width="50" height="50" relative="1" as="geometry">
            <mxPoint x="400" y="330" as="sourcePoint" />
            <mxPoint x="450" y="280" as="targetPoint" />
          </mxGeometry>
        </mxCell>
        <mxCell id="6fhHhT-RDIvyIf84DN0j-11" value="git pull &lt;br&gt;latest commit" style="text;html=1;align=center;verticalAlign=middle;resizable=0;points=[];autosize=1;strokeColor=none;fillColor=none;" vertex="1" parent="1">
          <mxGeometry x="185" y="320" width="90" height="40" as="geometry" />
        </mxCell>
        <mxCell id="6fhHhT-RDIvyIf84DN0j-12" value="" style="endArrow=classic;html=1;rounded=0;exitX=0.5;exitY=0;exitDx=0;exitDy=0;" edge="1" parent="1" source="6fhHhT-RDIvyIf84DN0j-9">
          <mxGeometry width="50" height="50" relative="1" as="geometry">
            <mxPoint x="400" y="330" as="sourcePoint" />
            <mxPoint x="350" y="200" as="targetPoint" />
          </mxGeometry>
        </mxCell>
        <mxCell id="6fhHhT-RDIvyIf84DN0j-14" value="installs npm packages&lt;br&gt;builds the website using Hugo and the Hyas/Doks theme&lt;br&gt;publishes" style="edgeLabel;html=1;align=center;verticalAlign=middle;resizable=0;points=[];" vertex="1" connectable="0" parent="6fhHhT-RDIvyIf84DN0j-12">
          <mxGeometry x="0.3631" y="1" relative="1" as="geometry">
            <mxPoint as="offset" />
          </mxGeometry>
        </mxCell>
        <mxCell id="6fhHhT-RDIvyIf84DN0j-13" value="pipeline&lt;br&gt;hosting&lt;br&gt;domain config&lt;br&gt;metrics" style="rounded=0;whiteSpace=wrap;html=1;" vertex="1" parent="1">
          <mxGeometry x="365" y="370" width="120" height="60" as="geometry" />
        </mxCell>
      </root>
    </mxGraphModel>
  </diagram>
</mxfile>
